<?xml version="1.0" encoding="utf-8"?><!--Generator: Adobe Illustrator 22.0.1, SVG Export Plug-In . SVG Version: 6.00 Build 0)--><!DOCTYPE svg PUBLIC "-//W3C//DTD SVG 1.1//EN" "http://www.w3.org/Graphics/SVG/1.1/DTD/svg11.dtd"><svg version="1.1" id="Layer_1" xmlns="http://www.w3.org/2000/svg" xmlns:xlink="http://www.w3.org/1999/xlink" x="0px" y="0px" viewBox="0 0 530.7 96" style="enable-background:new 0 0 530.7 96;" xml:space="preserve"><style type="text/css">.st0{fill:#006EB7;}</style><g><path class="st0" d="M100.7,55.4H73.4c0,0-0.9,0-0.8-0.9c0.5-11.5,3.2-18.9,15.2-18.9C100.3,35.7,100.4,43.3,100.7,55.4 M88.1,25.6
		c-21.5,0-26.4,13.8-26.4,34.7c0,21.2,4,34.7,26.2,34.7c10.4,0,16.9-2.2,22.1-5l-4-7.9c0,0-0.4-0.8-1.2-0.4
		c-3.2,1.5-7.6,3.5-16.3,3.5c-12.6,0-15.5-6.9-16-19.6h37.9c0,0,0.9,0,0.9-0.9C111.3,40.4,111.2,25.6,88.1,25.6"/><path class="st0" d="M119.9,93.2c0,0,0,0.9,0.9,0.9h9.6c0,0,0.9,0,0.9-0.9V58.7c0-14.9,1.9-22.3,15-22.3c10.9,0,12,5.7,12,16.5
		v40.3c0,0,0,0.9,0.9,0.9h9.6c0,0,0.9,0,0.9-0.9V50.4c0-14.7-2.3-24.7-19.5-24.7c-12.2,0-17.5,3.2-20.2,7.8l-1-6.7l-8.2,0.7
		c0,0-0.9,0.1-0.9,1V93.2z"/><path class="st0" d="M180.7,93.2c0,0,0,0.9,0.9,0.9h9.6c0,0,0.9,0,0.9-0.9V58.7c0-14.9,1.9-22.3,15-22.3c10.9,0,12,5.7,12,16.5
		v40.3c0,0,0,0.9,0.9,0.9h9.6c0,0,0.9,0,0.9-0.9V50.4c0-14.7-2.3-24.7-19.5-24.7c-12.2,0-17.5,3.2-20.2,7.8l-1-6.7l-8.2,0.7
		c0,0-0.9,0.1-0.9,1V93.2z"/><path class="st0" d="M278.6,55.4h-27.2c0,0-0.9,0-0.8-0.9c0.5-11.5,3.2-18.9,15.2-18.9C278.2,35.7,278.3,43.3,278.6,55.4 M266,25.6
		c-21.5,0-26.4,13.8-26.4,34.7c0,21.2,4,34.7,26.2,34.7c10.4,0,16.9-2.2,22.1-5l-4-7.9c0,0-0.4-0.8-1.2-0.4
		c-3.2,1.5-7.6,3.5-16.3,3.5c-12.6,0-15.5-6.9-16-19.6h37.9c0,0,0.9,0,0.9-0.9C289.2,40.4,289.1,25.6,266,25.6"/><path class="st0" d="M357.4,93.2c0,0,0,0.9,0.9,0.9h9.6c0,0,0.9,0,0.9-0.9V27.7c0,0,0-0.9-0.9-0.9h-9.6c0,0-0.9,0-0.9,0.9V93.2z"/><path class="st0" d="M382.3,93.2c0,0,0,0.9,0.9,0.9h9.6c0,0,0.9,0,0.9-0.9V27.7c0,0,0-0.9-0.9-0.9h-9.6c0,0-0.9,0-0.9,0.9V93.2z"/><path class="st0" d="M0.7,93.2c0,0,0,0.9,0.9,0.9h9.9c0,0,0.9,0,0.9-0.9V64.4c0,0,0-0.9,0.5-1.6l11.2-14.4c0,0,0.5-0.7,0.9,0.1
		l22.4,44.7c0,0,0.4,0.8,1.3,0.8h11.2c0,0,0.9,0,0.5-0.8L32.9,39c0,0-0.4-0.8,0.2-1.5L59.3,5c0,0,0.6-0.7-0.3-0.7H47.2
		c0,0-0.9,0-1.4,0.7L12.9,46.3c0,0-0.5,0.7-0.5-0.2V5.2c0,0,0-0.9-0.9-0.9H1.6c0,0-0.9,0-0.9,0.9V93.2z"/><path class="st0" d="M318.5,94.1l0.9-9.1c0,0,0.1-0.9-0.8-0.9c-6.8,0-7.1-1.7-7.1-7.2V1.8c0,0,0-0.9-0.8-0.7l-9.7,2.6
		c0,0-0.8,0.2-0.8,1.1v73.5c0,11.9,3.6,15.9,15.4,15.9C317.8,94.2,317.9,94.2,318.5,94.1"/><path class="st0" d="M346.6,94.1l0.9-9.1c0,0,0.1-0.9-0.8-0.9c-6.8,0-7.1-1.7-7.1-7.2V1.8c0,0,0-0.9-0.8-0.7L329,3.8
		c0,0-0.8,0.2-0.8,1.1v73.5c0,11.9,3.6,15.9,15.4,15.9C345.8,94.2,346,94.2,346.6,94.1"/><path class="st0" d="M357.4,17.7c0,0,0,0.9,0.9,0.9h9.8c0,0,0.9,0,0.9-0.9V5.8c0,0,0-0.9-0.9-0.9h-9.8c0,0-0.9,0-0.9,0.9V17.7z"/><path class="st0" d="M382.3,17.7c0,0,0,0.9,0.9,0.9h9.8c0,0,0.9,0,0.9-0.9V5.8c0,0,0-0.9-0.9-0.9h-9.8c0,0-0.9,0-0.9,0.9V17.7z"/><path class="st0" d="M407.4,35.9c0,0,0,0.9,0,1.8v38.5c0,12.6,3.4,18.3,18.4,18.3c1.5,0,6.1-0.2,6.9-0.3c0,0,0.8-0.1,0.9-0.9
		l0.9-9.1H427c-7.4,0-8.2-3.2-8.2-9.1V37.7c0,0,0-0.9,0.9-0.9h13c0,0,0.9,0,1-0.9l0.8-8.2c0,0,0.1-0.9-0.8-0.9h-14
		c0,0-0.9,0-0.9-0.9V7.8c0,0,0-0.9-0.9-0.7l-9.3,1.8c0,0-0.9,0.2-0.9,1.1L407.4,35.9z"/><path class="st0" d="M444.3,35.9c0,0,0,0.9,0,1.8v38.5c0,12.6,3.4,18.3,18.4,18.3c1.5,0,6.1-0.2,6.9-0.3c0,0,0.8-0.1,0.9-0.9
		l0.9-9.1h-7.5c-7.4,0-8.2-3.2-8.2-9.1V37.7c0,0,0-0.9,0.9-0.9h13c0,0,0.9,0,1-0.9l0.8-8.2c0,0,0.1-0.9-0.8-0.9h-14
		c0,0-0.9,0-0.9-0.9V7.8c0,0,0-0.9-0.9-0.7l-9.3,1.8c0,0-0.9,0.2-0.9,1.1L444.3,35.9z"/><path class="st0" d="M518.6,60.7c0,13.9-1.5,24.5-15.5,24.5c-13.9,0-15.5-10.5-15.5-24.5c0-13.9,1.6-24.4,15.5-24.4
		C517.1,36.3,518.6,46.7,518.6,60.7 M530,60.3c0-19.6-4-34.7-26.9-34.7c-22.8,0-26.9,14.8-26.9,34.7c0,20.1,4.4,34.8,26.9,34.8
		C526,95.1,530,80.5,530,60.3"/></g></svg>