<?xml version="1.0" encoding="UTF-8"?><svg id="Layer_1" xmlns="http://www.w3.org/2000/svg" version="1.1" viewBox="0 0 2000 2000"><!--Generator: Adobe Illustrator 29.2.1, SVG Export Plug-In . SVG Version: 2.1.0 Build 116)--><defs><style>.st0 {
        fill: #080707;
      }

      .st1 {
        fill: #809798;
      }

      .st2 {
        fill: #fff;
      }</style></defs><polygon class="st1" points="5 1981.5 8.8 1981.5 8.8 1991 5 1991 5 1981.5"/><g><path class="st0" d="M1031.7,7.6c6.3,3.6,16.8,1.8,24.6,1.9,487.4,8.9,922.8,450.9,934.3,936.1.8,34.7.8,71.4,0,106.1-2.7,122.4-36.4,251.8-87.4,362.6-155.4,337.3-490.7,563-863.9,577.3-24.1.9-51.7.9-75.8,0-445-16.6-830.3-334.7-929.2-767.8C-103.2,621.8,333.1,40,948.3,9.5c6.6-.3,13.4.3,20.1,0l4.6-2h58.7ZM1973.2,999.5c0-536.8-435.1-971.9-971.9-971.9S29.4,462.7,29.4,999.5s435.1,971.9,971.9,971.9,971.9-435.1,971.9-971.9Z"/><path class="st1" d="M635.6,250.2c24.7-15,51.1-25,79.2-31.6,55.1-12.9,120.7-16.8,177.8-23.1,83.8-9.3,158.6-7.7,242,3.8,27.1,3.7,48.9,6.4,76.1,9.2,70.1,7,148.3,22.2,189.8,85l46.1,26.8c-33.5-30.8-56.8-79.8-45.4-126,.5-2.2-1.4-3.5,2.8-2.8,23.7,17.4,47.9,37.6,67.4,59.6,21.4,24.2,64.5,79.5,18.9,100.5,35.3,29.1,70.2,58.4,101.4,91.9,2.7-1.3-.4-4.6-1.2-6.3-5.1-10.1-10.8-17.9-14.3-29.2-10-32.1-8.8-69.6,8-98.9,16.5,18.1,31.8,38.9,44.2,60,14.8,25.2,49.9,91.6,21.3,115.3-4.9,4-8.2,3.8-12.8,6.2s-3-.5-2.4,3.2c25.9,30.7,48.9,64.2,68.2,99.5,3.3.5,1.9-4.3,1.6-6.4-4.4-39-6.7-64.6,13.9-100.3,1.8-3.1,12.8-21.2,16.7-18.4,10,25.8,22,50.9,29.4,77.7,7.9,28.8,25,103.1-13.7,115.2-3.8,1.2-11-1.7-10,3.3l37.9,105.2c6.6-3.5,2.9-13.3,4-19.7,6.1-37,25.7-69.9,55.7-92.1,1.3.8,1.8,1.8,2.4,3.2,4.4,9.6,9.1,51.8,9.9,64,1.8,30.3,2.6,105.6-24.8,124.9-8,5.7-15,5.3-24.5,4.9l9.5,104.2c5.4,1,3.1-1.5,4.3-4.1,3.9-8.4,6.5-16.6,11.2-24.9,15-26.2,42.5-51.7,71.6-60.1-1.9,44.5-7.1,89.8-22.7,131.7-10,27-29,67.7-64.5,55.9l-13.3,95.7c3.1,4,3.2-.1,4.4-1.4,6.1-7,11.9-16.4,18.6-23,21.9-21.5,50.8-34.2,80.4-40.9.9,15-6.9,33.8-12.3,48.3-13.3,36-57.8,133.4-105.1,125.9s-9.6-6.5-13.3-1.8l-33.2,80.5c1.5,2.9,3.4,0,4.8-.9,25.1-15.3,51.6-36.1,83.3-36.1h29.4c-.6,7.1-6.1,15-9.8,21.4-21.5,36.6-85.6,119.8-129.4,124.5-7.5.8-16.4.2-23.7-1.9,4.4-15,5.2-30.6,0-45.5l9.5-1.9c.7-4.1-1.7-6.5-3.8-9.5,6.9-12,20.2-23.2,26.9-34.7,8.7-14.8,18.5-39.9,25.1-56.4,96.5-238.2,69.9-517.1-68.3-733.2-54.9-85.8-125-159.1-206.4-220l-2.8.9c24.2,14.6,3.7,38.3-18,40.8-41.5,4.7-94.6-21-135.5-28.4-4.4-4.8,21.8-24.2,25.5-26.6,39.9-25.2,82.8-17.4,119.4,9.5,1.4.3,1.3-2.1.9-2.8-4.3-8.1-55-32.8-64.9-41.2-36-1.6-68.4-13.5-100.6-28.3-32.7-15-74.7-44.8-107-54.1-99.2-28.7-234.8-27.5-335.9-9.1-55.7,10.1-82.9,21.8-132,48-6.9,3.7-15.9,8.2-21.5,13.6-16.4-6.1-27.2-5.5-42.4,3.5-8.5-7.1-9.4-22.5-23.9-14.9-.5-2.2.6-5.9,0-7.6Z"/><path class="st1" d="M415.8,324.1c-4.3,4.9-8.4,9.9-13.3,14.2,1.1,1.9,5.4.9,7.6.9l-3.8,4.7c2.4,3.5,5.7,3,9.4,2.8-6,4.6-10.5,5.2-12.5,13.4h-23.5c-1.8,1.5,7.8,14.6,9.5,16.9s.8,3.3,2.7,5.7c4.5,5.7,12.6,12,18.1,17,1.6,3,4.3,5.6,3.8,9.5l-7.3.2c-4.8,7.4,2.9,11.6,3.5,18.7-6.9-2.9-20.6-11.9-28-10.1s-18.4,6.8-19.2,7.4c-2.2,1.5-2.2,4.8-6.5,6.7s-11,1.7-16.3,1.7l11.4,15.1c-5.9,0-13.4,0-18.9,1.9,9.5-53.5,41.4-102.1,76.7-142.1l6.6,15.1Z"/><path class="st1" d="M592,233.1c-19.4,5.1-43.7,1.2-60.1,13-2.1,1-2-1.3-2.4-1.7,3.8-9.1,55-53.3,59.7-53,6.4,11.5,6.2,29.3,2.8,41.6Z"/><path class="st1" d="M1679.8,900.2c-.9-5.8,2.4-3.8,6.1-3.3,81.2,10.6,110.1,77.3,97.6,152.5-35.3,18.6-54-16.5-66.1-43.7-14.2-31.7-21.9-66.1-35.7-97.9-.8-1.8,0-4.8-1.9-7.6Z"/><path class="st1" d="M1698.7,1072.6c65.5,29.3,73.1,109.6,43.6,167.7-46.9,10.3-51.5-45.5-56.8-77.9-.6-3.6,2.1-7.6-3.8-6.5,2.1-.6,4.3-3,7.6-1.9v-2.8c-1.4-2.2-3.8-3.2-5.7-4.8l-3.8-43.6c4.9-5.6,17-23.9,19-30.3Z"/><path class="st1" d="M1586.9,604.5c-4.8-5.1-13-15.5-19-20.8,45.1-19.4,90.1-10.4,122.3,26.5,8.3,9.5,28.9,40.4,29.5,52.2.7,14.1-15.5,20.4-27.6,20-29-1-85-56.1-105.2-77.8Z"/><path class="st1" d="M1545.2,507.9c-4.6-10.1-8.6-23.2-11.4-34.1-5.2-1-7.5,3.2-11.4,5.7l-5.7,3.8c-10.1,3.8-12.9-.6-22.7-1.9l8.6-3.6c2.4-3.4-.5-13.2,1.1-15s8.8-.7,10.7-7.3.3-16.7-1.5-23.3c41.4,1.6,68.9,15.9,95.7,47.3s18.7,21.6,1,35.1c-19.1,14.7-44.8,0-64.5-6.7Z"/><path class="st1" d="M1509.2,1563.4c-1.6-2.2,7-11.3,10.1-11.1,8.7.8,43,27.3,43.1,2.6,0-4.4-7.5-22.1-5.8-23.7l9.6-1.1c2.1,1.6,10.5,37.3,14.3,44.5,5.5,10.6,15.1,14.5,21.5,23.6l-10.2,8.8c-17.6-29.2-53.5-32.1-82.5-43.6Z"/><path class="st1" d="M1658.5,732.1c65.4-5,114.9,52.1,117.7,114.4.7,15.1-16.5,19.1-29,17.5-19.8-2.5-40.8-31.2-51.9-46.6-18.9-26.1-34.1-55.2-53.4-81.1,0-2.6,13.5-3.9,16.6-4.2Z"/><g><path d="M592,233.1c-.4,1.3.9,3.8-.4,5.2s-8.7,1.4-9.1,6.1l17.1,1.9c-2.2,6.2-9.2,9.6-7.6,17,11.3,1,31-18.5,38.4-16.7.8.2,5.1,3.2,5.2,3.5.6,1.7-.4,5.4,0,7.6,14.5-7.6,15.4,7.8,23.9,14.9,15.2-9,26-9.6,42.4-3.5,8.6,3.2,20.9,10.6,27.5,17,13.9,13.4,16.7,34.2,40.7,38,1.7,4.8-5.6,4.8-5.8,6.8-.9,9.2,19.9,8.7,26.7,10.2-6.2,14.1,8.8,16.6,17.9,24.7,38.8,34.1,27.1,80.4,51.3,102.2s29,14.1,12.3,21v2.7c2,3.4,9.2,7.5,10.4,10.5s-1.1,5,0,7.5,8.5,8.5,10.8,13.9c2.9,6.7,2.4,15,5.6,21,5.9,11,32.2,14.9,43.2,20.3l-.6,7.6-6.8,3.6c27,6,0,16.5,0,18,3.7,5.7,14.6,8.8,18.3,12.9s3.4,10.7,4.9,12.2,5.1.6,7.3,3.2,1.3,5.9,1.9,6.5,13,.5,18.7,3.1c8.4,3.7,10.1,13.8,20.8,9.4s16-12.5,20.9-16l1.9,1.9c-.6,1.3-2.5,6.9-1.9,7.6,7.8-5.5,17.1-.6,26.5-3.8l-9.5-4.7c10.7-4.7,1.2-17.3,4-21.6,1-1.5,7.7-.5,7.3-4-10.9-1.4-20.6-8.1-26.5-17.1,13.3-.7,23.1-13.6,34.1-18,8-3.2,22.7-2.4,26.5-11.4,2.7-6.5-12.1,2.3-14.1,2.9-4.9,1.6-15.4,5.8-17.8-1.3-2.1-13.3,5.9-35.4,17.9-42.1s18.6-3.3,25.1-14.8c4.7-8.4-2.7-6.4-3.5-13.9l30.3-5.7c1-4.6-.8-3.1-2.5-4.2s-18-9.9-14.6-12.8l18.9,1.9c-2.5-4.4-6-5.5-1.9-10.4s34.8-10,45.3-15.4c14.5-7.4,28.7-29.7,45.6-34,16.6-4.2,28.1,4.9,46.3-3,5.7-2.5,10.7-8.1,16.6-9.9,12.1-3.5,44.9,3.6,56.6,9.1s34.1,22.9,46.4,35.1l-2.8-32.2c7,5.3,14.4,12.1,17.1,20.8,13.9-16.3,20.6.9,33.4,1.8,9.4.7,15.1-9.6,25.3-3.6l-7.5,18.8c11.3-10.7,21.5-1.9,31-2.5,6.3-.4,15.7-7.6,21.6-8.6,4.4-.7,6.8,1.4,9.9,1.6,1.8,6.5,3.4,16.8,1.5,23.3s-9.7,6.2-10.7,7.3c-1.6,1.8,1.3,11.6-1.1,15l-8.6,3.6c9.8,1.3,12.6,5.7,22.7,1.9s3.7-2.5,5.7-3.8c3.8-2.5,6.1-6.7,11.4-5.7,2.8,10.9,6.8,24,11.4,34.1s17.8,26.8,18.6,31.8c1,6.5-3.5,9-3.4,12.8.2,7,16.1,15.6,0,26.5,1.1,3.4,6.6,3.9,7.5,4.7,5.9,5.4,14.2,15.7,19,20.8l-14.3,1.9c-1.7,2.4,7.3,14.1-.9,18.2l-17-4.8c.7,12.3,16.1,25.2,0,33.1,13.2,9.5,34.1,13.6,37.7,32.1l-13.1,4.9c-5,4.8,38.1,15.6,41.7,15.2.6,6.9-9.4,5.8-11.4,11.3,7.6,2,15.7,4.3,12.9,13.8-2.3,7.6-18.2,8.7-16.8,17.3,10.6,10.1,29.8,6.6,37.8,19.4,17.6,28,14.4,40.6,15.4,71.8s8,24.5-5.6,26.4c5.3,3.4,3.6,16.6,5.5,19,3.8,4.7,18,11.7,21,16,1.9,2.8,1.1,5.8,1.9,7.6l-5.7,8.5c15.4,6.6,3.1,18.9,4.5,27.6,1.3,7.6,11.7,16.8,15.4,24.5,9.1,19,2,24.9.8,42.6-1.4,20.6,8.3,41,2,61.7-2,6.4-14.1,24.8-19,30.3-7.6,8.7-19.5,15.2-27.2,22.6s-1.8,1.3-1.2,3.9c10.4,3.9,23.5,10.2,32.2,17.1s4.3,2.6,5.7,4.8v2.8c-3.3-1.1-5.5,1.3-7.6,1.9s-3.9-.3-5.7,0c-2,2.1,7.9,8.3,1.9,14.2s-12.1,2.7-17.1,2.8c3.9,6.4,18.6,29.9,14.3,36.1s-6.9-.3-8.7.8c-1.4.9-1.9,4.6-3.7,5.7-5.7,3.7-19.8-2-20.8-.9-.3,4.7,2.2,9.4,4.9,13.1s16.3,12.2,14.1,15.3c-2.5.1-12.2,5-12.8,6.1-1.1,2,0,5.4-.8,7.6-2.8,7.4-13.7,6.1-18.5,11.8,0,4.2,17.9,3,21.3,2.4,10.7-2,14.9-12.9,26-10.9l-7.6,18c8.4,3.2,5.7,12.3,9.1,19.4,1.9,3.8,5.8,5.8,7.6,9.5,4.7,9.5-1.5,19.9,8,26.1l-9.5,4.8c9,12.8-1.2,14.2-3.4,22.2-3.2,11.8,10.6,22.2,16.6,30.8,2.1,3,4.5,5.4,3.8,9.5l-9.5,1.9c5.2,14.9,4.4,30.5,0,45.5s-13.4,28.5-23.6,37.9c-4.6,4.2-44.1,30.2-48.3,31.3-11,2.9-24.8-.6-35.8,6.8-1.2,1.9,9.2,38.2,11.4,42.1,4,7.3,28,24.9,28.1,30.5-5.9,14.1-18.9,24.2-31,33.1-3.2-.6-24.2-25.8-30.9-29.9-17.8-11-50.3-15.1-69.4-25.4-2.5-1.3-4.6-3-6.2-5.3-3.9-8.7,22.4-29.4,29.4-35.2l26.6,10.6-4-14.9c-18.9,3.1-31.7-9.2-46.6-15-12-4.6-24.2-3-35.1-6.6-17.1-5.6-30.8-10.8-50-12.5-19.7-1.8-28.6,11.9-50.5,8.7-10.9-1.6-30.8-12.5-38.5-20.3-4.1-4.2-21.4-32.7-22.7-37.9-7.7-30.4,16.4-72.7,46.5-81.6-5-7.3-1.9-9.8-2.1-15.9-.3-8-4.6-12,5.8-17.3-13.2-6-3.5-12.4-6.5-21.9-1.9-6.2-13.1-11.4-18.1-16s-3.3-6.5-5.6-7.6-10,3.1-15.6,2.5c-9.1-.9-16.5-6.8-24.2-11l-2.9,7.6c-1.2,0-8.8-12.9-11.3-15.2-8.2-7.4-21.1-20.4-28.5-26.5-3.1-2.5-7.4-1.4-9.5-3.8s-16-29.8-17-32.3c-2.9-7.8-8.2-47.8-11.4-49.2s-4.8-.7-4.7.9v8.5s-18.9-3.8-18.9-3.8l1.9,15.1c-15.7-4.7-26.6,11-39.3,12.9-7.4,1.1-12.8-2.8-19.5-.7-5.2,1.6-8.2,8.1-12.6,10.4-3.3,1.7-7.8-.4-9.2,1.9l-.9,9.6c-6-3.8-9.9.9-15.8,2.2-9.8,2.1-23.8,1.8-30.7,9.1-3.4,3.6-5.1,11.6-9.7,13-4.5,1.3-10-.4-14.7.5s-14,2.6-18.6,3.7-2.3,4.2-4.3,5.5c-8.4,5.3-26.5,1.3-34.9-3.6-1.6-3.1-4.2-5.2-6.6-7.6l-1,1,7.6,8.5c4.2,13,.4,16.1-13.3,15.2,19.4,17.2-16.1,22.4-19.6,30.8-4.7,11.2,10.1,21.1-5.3,40-8.2,10-27,13.4-27.9,14.8-3.2,5.1,4.4,18-13.5,16.9-2,2.3,9.4,29.3-5.7,33.2-2.5.7-5.5-1.4-5.7-1.1-1.1,1.5,1.4,11.7-7.6,11.4,5.2,5.9,8.8,12.4,7.4,20.6l-9.2,2.1c-.3,3,4.1,2.3,5.9,4.5,4.6,5.9-2.4,22.1-8.6,25.9s-6.4,1.2-8.1,2.3c-2.5,1.6-3.2,9.6-11.9,7.1v15.1s-13.2-3.8-13.2-3.8c1.4,13-3.9,18.8-13.9,24.9-16,9.8-58.1,29.6-75.9,29.8-13,.2-45.2-3.4-58.7-5.7-22.4-3.7-22.4-6-47.5-5.4-28.5.7-33-11.2-54-21.9-8.4-4.3-23.9-7-30.3-13.3-2.6-2.6-3.1-6.5-5-8.3-10.6-10.2-15.8-9.2-20.8-26.6-14.2-49.4,39.8-70.7,30.9-112.4-.9-4.1-4.7-7.4-5.2-12-2-16.8,7.5-34.7,9.2-51.2s-2.8-67.7-10.3-82.1c-1-1.9-15.7-20.5-16.9-21-2.2,1.2-1.8,8-5.6,3.7-8.8-10-10.8-29.3-18-36.9-5.9-6.3-18.8-6-24.4-17.2s-1.1-8.4-2.2-12.6c-.4-1.5-3.1-1.2-3.6-2.8-1.4-5.1-1.6-12.1-2.1-17.5l-9.6-.8c-2.5-12.5-3.1-6.3-5.6-7.8-2.5-1.5-21.4-48.2-22.3-53.4-1.5-9.8.9-20.8-.4-30-.7-5-3.9-7.2-4.1-13.1-.1-6.2,3.2-12,4-18l-13.3-1.9,3.7-8.3c-7.5-6-6.4-11.4-2-19.2-18-6.9-7.5-13.2-9.4-26.3s-13.4-16.6-7.3-32.2c2.4-6.1,14.3-19,14.7-23.3s-6.5-5.4-5.4-10.1l11.4-4.8c-23.2-9.3-5.7-8.6-.5-14.7,1.5-1.7.6-4.8,4.3-8,9.8-8.5,34.1-10.6,30.4-30.1-1.8-7.5-45.5,13.2-46.8-8.9h-16.8c0,.1,1-3.7,1-3.7l-7.6,1.9c-2.8-6.8,5-14.1,5.4-18.3.9-9.9-29.5-11.8-30.1-23.3l-4.7,3.8-4.8-9.4c-3.5-.2-2.6,5.9-3.8,7.6-3.2,1.3-6.1-4.6-7.6-7.6-3.6-7.2-4-14.6-10.4-20.9-9.6-9.6-26.9-11.9-33.2-28.4-7.4-19.4,2.9-34.2-2.3-52.6l-7.1-.4c.5-1.2-.5-4.5,0-5.7,4.7-10.6,9.4-18.6,11.4-30.3.6-3.6-.6-8.2.1-12.2,2-12,15.3-23.5,24.3-30.8-6.3-29.1-.8-61.9,34.3-63.2,6-4.9-21.7-7.6-24.6-8.6-7.3-2.5-15.2-7.9-20.9-13.2l15.2-1-5.7-8.5c.4-1.5,5.7-4.2,7.6-4.8,5.5-1.8,13.1-2,18.9-1.9l-11.4-15.1c5.3,0,11.4.5,16.3-1.7s4.3-5.3,6.5-6.7,17.7-7,19.2-7.4c7.4-1.8,21.1,7.2,28,10.1-.6-7.1-8.3-11.3-3.5-18.7l7.3-.2c.5-3.9-2.2-6.4-3.8-9.5-4.8-9.2-12.7-16.2-20.8-22.7-1.6-2.4-11.3-15.4-9.5-17h23.5c2.1-8.1,6.5-8.7,12.5-13.3,6.4-.2,10.9-3.9,17.1-5.7l9.5,5.7c1.6-2-3.2-7-5.7-7.6-6-1.4-19.2.3-26.5,0-2.2,0-6.4.9-7.6-.9,4.9-4.4,9-9.3,13.3-14.2s5.1-9.3,7.6-10.4c4.2-2,11.2.1,13.1-1.2s1.4-11.5,11.6-9.3c-2.3-10.2-8.2-26.1-4.9-36.1s16-9.5,22.6-13.4,14-16.1,25.8-14.9l-9.5,20.8c3.6.4,9.8,1.2,12.5,3.7s1.1,7.5,4.6,7.7l5.7-32.2,5.7,9.5c6.6,1.5,3.1-8.9,10.4-9.6,5.5-.5,5.6,3.4,8.5,5.8s.3,2.7,2.4,1.7c16.3-11.8,40.7-7.9,60.1-13ZM1289.4,712.6c1.2,2.2,6.8,12.1,5.7,13.3l-58.2-8.1-32,30.4-25.3-9.1-3,9.3c-11.5-4.6-8.5,2.3-12.5,8.4-10.7,16.5-8.3,6.3-17.4,9-3.2,1-5.6,9.9-10.2,11l-7.2-3.6-18,53c-5,.4-3.1.2-3.7-2.9-2.6-14.1-3.7-28.6-6.7-42.6l-31-18.2,5.5-17.8-15.2-1-11.4,16.2v-31.3c0-10.8-12.4-36.8-12.8-47.7-.2-4.7,6.1-13.1,7-18.7s-.4-13.4.1-19.8c-9.4,1.7-19.4,2.5-28.6,4.9s-4.9,3.9-8.5,4.5c-15.8,2.9-17.5-10.7-24.9-12.8-5.4-1.6-12.7,1.2-17.6-1.3s-3.4-5.3-5.8-7.4-5.8-1.6-7.6-3.8c-2.9-3.5-.6-9-2.6-12.5-3.8-6.7-38-16.6-16.1-29.4l-15.1-6.8c-.3-.4,1.8-8.6,2.2-9,1.6-1.3,5.9,1.4,5.3-2.2-16.4-2.7-29.2-8.2-35.1-24.6s-.6-7.8-1.8-11.5c-3.8-11.3-14.8-17-23.7-23.7l5.7-7.5-13.3-15.2,7.6-4.7c-33.5-16.2-24.6-61.9-44.7-90.9-9.7-14-31.6-23.7-37-31.3-2.1-3-1-7.5-2.9-8.9-3.4-2.4-14.4-1.7-18.5-3.9s-2.3-5.3-3.7-6.7-9.1-1.1-9-7.2l3.9-6.6c-13.2-2.8-14.9-15.4-22-24.5s-30.1-25.7-43.9-26.2c-12.1-.4-20.6,11.2-29.4,8.7s-8.3-13.6-12.8-15.9c-4.2-2.2-9.6,3.1-13.4.3l-1.8-8.7c-8.9,2.2-15.9,9.7-25,12-14.5,3.6-25.3,1.4-18.6-15.7-6.6-.7-14.2-1.2-13.3-9.5l-28.5,4.7-16,14.3-6.6-9.5c.4,7.4-7.3,4.5-9.2,6s-5,28.2-18.4,27.9c-5.9-4.6-4.6-12-4.8-18.6-6.2-.5-16.8-1.6-15.1-9.6-10,7.3-21.3,2.9-21,18,.2,8.2,7.1,24.7,3,31.3s-6.3,2.4-8.1,4.2c-5.4,5.4-1.3,12.7-17.6,8l-5.6,9.5c3.5,1.7,6.9-.7,11.4-.2,15.4,1.9,22.2,21.6,20.8,35.3-8.6,2.1-18.3-15-23.6-15.1-2.8,1.9-16.7,6.9-17.6,8-4.5,5.3.3,13.8-17.5,11,15.6,15.1,27.8,30.7,30.3,53-17.1-6.3-6.1,4.2-3.4,11.9s2.1,4.3,1.5,7c-4.4,4.3-34.4-15.3-40.4-14.7s-19.7,9.7-25.1,14.8l2.9,13.2-22.7,3.9,5.9,5-2.1,8.2c8.2.4,16.7-2.3,22.5,5s12.9,22.8,13.2,24.9c.7,4.2-2.9,24.2-5,28.4s-20.4,16.3-25.5,18-12,1.3-12.5,1.7-.4,4.5-2,6.4c-5.8,6.7-14.6,9.6-20.1,19.7s-10,40.2-8.2,50.1,3.4,5.6,3.8,9.6c.8,8.9-4.7,19.4-4,30.3,2,31.2,34,25.9,41.7,52.1l3.8-7.6,7.6,13.3,9.4-5.7c-4.4,29.2,33.4,17.6,34.1,41.7l20.8-9.5-13.3,22.7h15.2s-1.9,9.5-1.9,9.5c12.4,1.5,38-11.5,44.5,3.8,7.2,17.1-13.3,30-25.5,36.9l7.6,4.7-18.9,5.7,7.5,10.2c-.7,4.2-10.4,6.3-11,7.1-.8,1.3-.4,8.3-1.7,12.5-2.3,6.8-12.9,16.7-13.7,22.4-1.4,10.1,16.9,28,7.6,42.5l17.1,1.9-9.5,17,18.9-7.6-11.4,18.9c14.9,3.1,3.4,17.1,3.7,25.7s3.5,6.7,4,11.2c.8,7-2.4,14.2-1.8,22.5,1.2,16.2,10.8,29.6,15,44.8l11.3-1.9v19s10.5,1.8,10.5,1.8l2.8,15.2,7.6-3.8c.3,9.1-4.6,19.1-.5,28,3,6.5,12.8,6.8,18.2,10.2,9.6,6,12,22,16.4,31.9l5.7-2.9,14.2,18.1c.7-3,15-12.7,16.1-12.4,7,6.1,15.9,11,22.8,17.1s6,9.7,11.4,13.2c7.5,5,18.5,4.9,25.5,10.5,2.7,2.1,22.5,29.3,23.2,31.8,1.4,5.6,1.2,34.8-.4,40.5-6.2,9.7-30.7,20.7-29.5,32.8.6,6.7,6.7,8.9,5.3,18.6-2.4,17.4-18.9,32.2-20.4,40.4s.6,14.8-.5,22.2c-1.2,7.7-5.6,25.8-7.6,34.1s-11.2,27.2-11,38.4,8.3,29,9.1,30.7c3.8,7.7,21.7,15.8,30.3,17.1,12.7,1.9,22.6-2.3,33.6-1.4,8.1.7,16.6,5.9,24.8,7.4,12.9,2.4,58,7.2,69.5,5.4,10.3-1.6,53.3-21.5,63.4-27.6,23.7-14.3-13.4-29.1,7.2-39.7l16.1,12.7,1.7-8.7c10-5.7,27.1-9.4,26.6-23.3-10.5-2.2-27.9-16.4-32.1-25.8-1-2.2.4-3.6,2.7-2.7l31.4,11.3-7.4-19.7,5.6-5.8c-11-20.1-14.4-41.1-11.4-63.6,4.4-1,3,.6,4.2,2.4,2.6,4,13.7,24.6,15.1,28.4,3,7.9-.8,18.9,7.1,24.1,2.3-14-9-36.2,13.3-34.1-4.3-22.1,16.2-13.6,28.4-27.5,13.4-15.3-2.1-24.5,4.3-37.4s16.3-14.5,24.2-16.6l-1.2-3.9c-4.1-.8-28.9-14.1-25.4-18.8,11.8-6.6,24.1-.2,36,3.8-.3-6.5-9.3-9-9.3-16.1,0-4.5,5.1-9.7,8.7-12.2,10.8,8.4,21.8,20.1,37.3,14.7,3.1-1.1,3.2-6,6.3-7s8.4.1,12.5-.7c7.9-1.6,13-5.9,22.2-1.5,2-20.7,25.3-21.2,41.7-22.8l-9.3-12.6,6.5-8.2,14.2,9.4,2.9-9.4c10,12,13.1-1.4,23.2-3.4,20.3-4.1,16.5.9,37.7-9.7,3.1-1.6,8.7-1.7,10.3-3,2.7-2.1,1.3-7.4,2.8-10.5,3-6.3,11.7-2.5,16.8-4.1,3-.9,2.4-6.9,9.8-7.1s13.1,1.9,15.1,5.6c5.5,10.2,4.8,36.4,10.7,50,5.2,12,29.2,43.5,39.4,51.5s7.5,2.3,10.7,4.5c8.2,5.4,2.7,3.4,14.2,8.5,13,5.9,23.2,19.3,36.9,3h2.8c5,22.6,35.1,23.3,28.8,50.8l22.4,9.8c.6,4.5,0,3-2.6,4-5.9,2.1-13.9,2.8-20.1,3.6-.9,7.8,7.4,23.7,3.9,29-1.7,2.6-14.1,6-19.1,9.8-15.1,11.2-31.5,37.4-30.1,56.6.5,6.9,13.4,30.7,18,37.1,11,15.5,33.7,25.6,52.5,22.4,8.1-1.4,16.7-8.2,25-9.1,11.1-1.1,20.3,4.9,31.3,3.8-7.9-12.4-20.5-33.4-21-48.4s15.1-40.3,20.1-46.2,8.2-5.4,11.3-9.5c8.5-11-5.8-6.9-11.5-13.3-4.6-4.2-5.8-10.8-4.3-16.7l9.2-5.4-4.9-17.7-18-9.5,1.2-3.9,10.2-5.5c-25.4,5-32.1-11.8-30.3-34.1h-13.3c0-5.9,1.6-12.3-3.8-16.2l-14.2,8.6-6.8-18.7c-17.9,2.5-33.2-8.5-47-18.4-4.5-3.2-16.6-15.7-19.2-16.9-11.2-4.9-17.8-3-28.4-15.2-24.4-27.9-2.8-60.6-25.5-88.2-4.4-5.3-35.1-34.4-35.1-36.9v-29.4h7.6c.6,6.9-1,14.9.1,21.7,1.7,10.9,37,38.5,44.4,50.4,7.4,25.4-2,56,16.1,76.8,9.8,11.2,15.8,7.5,24.7,11.4s11.3,11.7,15.4,14.9c15.1,12,33,23.9,52.9,22.9l3.7,12.4,12.3-7c5.9,4.6,12.1,10.1,12.5,18.2l13.1.2c.1,12-1.6,23,3.8,34.1h49.3c1,4.6-.8,3.1-2.5,4.2-4.4,3-22.8,11.3-24,13.8,12.5,3.1,10.1,18.6,17.1,28.5l-11.4,13.1c6,6.7,14.7,6.4,22.8,7.7-2.6,19.5-20.5,26-28.1,42-1.2,2.6-9.6,24.9-9.8,26.4-.5,4.7,5.8,22.9,8.1,27.8,1.5,3.2,11.9,20.2,13.8,22.2s19.9,10.1,21.6,10.6c7.8,2.1,18.3,1.4,26.7,3.6,19,5.1,28.4,16.6,52.1,18,24.1,1.5,32.8-6.5,52-10.5,13-2.7,18.4,1.5,31.7-6.2,37.3-21.4,66.2-41.8,62.9-90.2-.3-4.6-3.7-11.8-3.4-15.5.2-2.9,3.6-4.8,3.3-7.1s-10.2-13.8-12.1-18.2c-8.3-18.9,4.8-23,4.8-25.7s-4.7-3.4-5.4-6.1c-.8-3,1.6-6.7.8-8.2-2-3.6-16-4.3-19.9-18-1-3.6.5-2.5,2.8-2.8,8.3-1.1,14.2,1.9,21.8,3.8,0-10.7-12.6-13.7-11.4-26.5l-28.3,5.6-1.9-11.3,11.3-3.8c-9,.1-27.7,1.2-28.4-10.6-.8-14.3,16.4-12.6,18.6-16.3,1.9-3.3-1.9-12.6,7.9-13-5-6.7-16.4-22-12.3-30.3,6.3-8.3,15.3-4.7,23.7-1.9l-3.8-20.8c1.8-.6,3,1.7,3.8,1.9l5.7,3.8c.8-.7-3.2-4.7-3.8-5.7-1.6-2.8-12.4-23.7-11.4-24.6h20.8s-7.6-12.3-7.6-12.3c0-1.7,12.4.2,7.6-4.7s-21.4-9-24.1-11.9c-4.5-4.7-2.3-9.7,1.3-13.8,12.2-14.2,26.2-17.8,37.6-38.2,16.1-28.8,5.6-33.1,4.1-60.2-1-18.2,8.4-32.5.8-50.1-3.4-7.9-13.8-16.1-15.5-24.3-1.8-8.5,1-15,1.3-23.1l-15-6.8,13.2-11.3c-4.2-6.7-42.8-29-36-36.9,1.8-.3,3.9.3,5.7,0l5.7,1.9c.2-2.3-3.1-2.8-3.8-3.8-8.9-12.4-12.8-25,7.6-15.2-4.3-16.7,1.2-39.5-2.8-55-.7-2.6-13.6-27.1-15.2-28.4-5.3-4.7-18.9-5.8-27-10.9-16.1-10.4-11.5-23.1,5.1-28.8l-1.1-3.9c-9.6-2.8-15.8-6.3-10.2-16.9-16,1.1-40.1-19.6-45.5-33.2s.2-3.3,2.7-2.7c5.4,1.3,12.2,4.6,18.4,6.2s7.1,3.2,4.5-.7c-8.3-4.8-29.4-20.2-38-20.8s-30.3,16.7-43.6,18.8-38.6,3.2-49.2,2c-8.7-1-14.8-6.7-21.8-7.6-3-5.3-1.7-11.3-1.9-17.1s.4-6.7,0-9.5-1-1.7-1.9-1.9c-1.4-7.5-1.2-16.5-6.6-22.7-7.9,13.5-3.2,17.7,2.5,29.8,1.1,2.4,4.1,4,4.2,4.3.5,1.7.4,14.6,0,17.1-1,6.5-7.7,11.4-10.5,17.2l-18.9-11.2c-6.4,6.1-5.6,11.9-16.1,7.2,0,17.7-13.3,28.9-23.7,41.7l-1.8-22.8-17.2-9.4c-4.3-.6-2.2.7-2.7,2.9-3.4,14-15.8,23.5-21.9,36.9-4.6-7.9-14.3-13.8-19.4-19.4-.9-1-.2-2.9-.5-3.3-1.6-2-2.8-5.1-5.7-5.7-1.1,3.8,2.5,5.3,3.8,7.6ZM1395.6,434.1c.4,3.7-3.3,20.2-8.6,18.8-5.5-6.1-10.1-14.4-16.1-19.9-17.8-16.5-65.2-41-88.6-31.6-6.6,2.7-14.1,9.9-20.9,11.3-12.9,2.6-27.3-2.6-39.2.5-17.3,4.6-28.6,25-44.6,33.1-11.6,5.9-29.5,6.7-38,11.3-.8.5-2.4,2.2-1.9,2.8,4.5-.1,14.7,6.2,10.5,11.5-2,2.5-6.9,1-8.3,2.1s-.7,4.9-1.8,6.7c-4.3,7.1-17,8.8-24.9,10.2-2.5,31.9-37.4,20.2-44.8,49-.8,3.2-1.4,6.2-.9,9.5l44.4-15.2,2.8,8.2c-12.7,8.8-18.3,22.7-32.8,27.9-5,1.8-9.9,1.7-15.1,3.9s-14.5,9.5-20.1,14l34.1,7.6c-.1,7.1-16.9,11.5-21.9,14.1-1.8,7.5,7.4,16.1,6.8,21.8-.7,7.7-8.4,5.4-11.5,7.6-3.7,2.7-1.1,17-2,22.7s-7,13.7-6.9,18.7c.1,13,12.4,34,10.9,48.7l11.3-15.2v20.7c.1,0,18.9,5,18.9,5l-4.8,19.8c13.3,8.7,31.3,10,29.5,30.3l15.1-35.1,8.5,10.4,4.9-11.2,14.8,1.5,7.8-19.9,7.6,1.1v-11.4c2.5-2.7,25.8,11.5,31.4,11.3s9.8-10.3,14.1-14.2c6-5.4,14.1-10.1,20.6-15.1l43.8,6.6-15.1-41.7,44.5,45.4c10-14.7,20.1-21.6,16.1-41.7,6,3.6,11.5,8.2,17.7,11.7s18.4,4.8,19.3,12.9c8.2-7.4,7.3-20.3,10.5-30.3,11.5,10.1,13.6-4.3,21.6-3.8l16.3,8.7c15-14.2-3.9-27-7.4-41.8l11.2-40.8c2.8.2,2.9,3,3.8,4.7,10.2,19.4,16.5,42.3,15.4,64.2,3.2,9.3,48.2,7.6,57.1,6.4,15.2-2.1,24-10.8,36.9-16.1,4.8-2,22.4-5.1,24.4-7.9-1.1-12.7-8.9-21.8-4.9-36.1l17,3.8,3.3-14.2c0-4.3-17.9-8.4-14.3-22.2.7-2.8,4.7-5.5,5-8.4s-6.3-8.9-6.9-13.4,4.2-9.9,3.1-14.3-12.7-17.8-15.2-22.8c-4.6-9.4-7.2-20-11.1-29.7-17.3,17.8-34-2.3-50.7-3.3-8.1-.5-19.7,8.9-22.9-3.7,3.1-19.5,25.6-13.7,39.5-10-.5-9.2,3.1-13.7,11.5-16.3v-14c-7.2,1.3-12.7,6.5-20.2,7.4s-17-2.9-24-1.4-24.8,18.5-28.9,9.1c-3.2-7.3,7.9-14.3,10.5-20.8-4.3,0-7.2,2-11.8,1.5s-17.3-8.8-19.5-8.6-8.4,10.7-16,7.2ZM1478.9,473.8c-4.6,0-11.4-1.6-13.3,3.8,3.2-1,12-.2,13.3-3.8ZM612.3,1213.4c-3.8-2.8-16.4-4-22.1-7.3-7.8-4.6-21.9-25-29.9-27.1s-9,3.6-9.6,6.7,7.4,33.2,8.4,40.2c3.5,22.7,5.5,38.4,2,61.4-1.1,7.3-9.5,22.5-1.3,25.2-11.7,15.2.4,24.1,0,39.6-1.2,38.6-49.8,64.2-29.9,105.7,5.3,11,8.8,8.1,14.8,13.6,3.6,3.3,3.4,8,7.5,11.5,2.1,1.8,17.1,8.2,19.9,8.6,4,.6,3.3-1.7,2.7-4.7-2.7-15.5-9.2-10.8-4.7-33.4,3.5-17.9,13.5-42.9,16.1-59.7s-1.3-18.1.5-26c2.2-9.6,19.2-19.4,20.4-36.6.6-8.4-8.8-17.8-7.2-24s10.5-13.2,12-14.7c4.9-4.9,18.8-12.2,19.9-18s.7-29.1-.4-33.6-17.7-26.4-19-27.4ZM861.1,1377.7c0-4.6,1.6-11.4-3.8-13.3.5,3.3-.1,12,3.8,13.3ZM1509.2,1563.4c29,11.5,64.8,14.4,82.5,43.6l10.2-8.8c-6.4-9.1-16-13.1-21.5-23.6-3.8-7.2-12.2-42.9-14.3-44.5l-9.6,1.1c-1.7,1.6,5.8,19.3,5.8,23.7,0,24.7-34.4-1.8-43.1-2.6-3.1-.3-11.7,8.9-10.1,11.1Z"/><path class="st2" d="M1657,1190.1c-.8-.2-2-2.5-3.8-1.9l3.8,20.8c-8.4-2.8-17.4-6.4-23.7,1.9-4.1,8.3,7.4,23.6,12.3,30.3-9.8.4-6,9.7-7.9,13-2.2,3.7-19.3,1.9-18.6,16.3.6,11.9,19.4,10.8,28.4,10.6l-11.3,3.8,1.9,11.3,28.3-5.6c-1.2,12.7,11.5,15.7,11.4,26.5-7.6-1.9-13.5-4.9-21.8-3.8s-3.8-.8-2.8,2.8c3.9,13.6,17.9,14.3,19.9,18s-1.5,5.2-.8,8.2c.7,2.7,5.4,5.3,5.4,6.1,0,2.7-13,6.8-4.8,25.7,1.9,4.5,11.8,16,12.1,18.2s-3.1,4.3-3.3,7.1c-.3,3.7,3.1,10.9,3.4,15.5,3.3,48.4-25.6,68.7-62.9,90.2-13.4,7.7-18.8,3.5-31.7,6.2-19.2,4-27.9,12-52,10.5-23.6-1.4-33.1-13-52.1-18-8.4-2.3-18.9-1.5-26.7-3.6s-20.8-9.7-21.6-10.6c-1.9-2-12.3-19-13.8-22.2-2.3-4.9-8.5-23.1-8.1-27.8.2-1.5,8.5-23.8,9.8-26.4,7.6-16,25.5-22.5,28.1-42-8-1.3-16.8-1-22.8-7.7l11.4-13.1c-6.9-9.9-4.6-25.4-17.1-28.5,1.2-2.5,19.7-10.8,24-13.8s3.5.3,2.5-4.2h-49.3c-5.4-11.1-3.7-22.1-3.8-34.1l-13.1-.2c-.4-8.1-6.5-13.6-12.5-18.2l-12.3,7-3.7-12.4c-19.9,1-37.9-10.9-52.9-22.9-4.1-3.3-12.5-13.7-15.4-14.9-8.9-3.9-14.9-.2-24.7-11.4-18.1-20.8-8.7-51.4-16.1-76.8-7.3-11.9-42.7-39.4-44.4-50.4s.5-14.8-.1-21.7h-7.6v29.4c0,2.5,30.7,31.6,35.1,36.9,22.7,27.6,1.2,60.2,25.5,88.2,10.6,12.1,17.2,10.3,28.4,15.2,2.6,1.1,14.7,13.6,19.2,16.9,13.8,9.9,29.2,20.9,47,18.4l6.8,18.7,14.2-8.6c5.4,3.9,3.7,10.3,3.8,16.2h13.3c-1.8,22.3,4.9,39.2,30.3,34.1l-10.2,5.5-1.2,3.9,18,9.5,4.9,17.7-9.2,5.4c-1.5,5.9-.3,12.5,4.3,16.7,5.7,6.4,19.9,2.4,11.5,13.3s-8.6,6.3-11.3,9.5c-5.1,5.9-20.4,39.5-20.1,46.2.5,14.9,13,36,21,48.4-11,1-20.2-5-31.3-3.8-8.3.8-17,7.7-25,9.1-18.8,3.2-41.5-7-52.5-22.4-4.6-6.4-17.5-30.2-18-37.1-1.3-19.2,15-45.4,30.1-56.6,5-3.7,17.4-7.2,19.1-9.8,3.5-5.3-4.8-21.2-3.9-29,6.3-.7,14.3-1.5,20.1-3.6,2.7-1,3.2.6,2.6-4l-22.4-9.8c6.3-27.6-23.8-28.3-28.8-50.9h-2.8c-13.7,16.4-23.9,2.9-36.9-2.9-11.5-5.2-6-3.1-14.2-8.5-3.2-2.1-7.1-1.6-10.7-4.5-10.2-8-34.3-39.5-39.4-51.5-5.8-13.6-5.2-39.8-10.7-50-2-3.6-11-5.7-15.1-5.6-7.4.2-6.8,6.2-9.8,7.1-5.1,1.6-13.8-2.2-16.8,4.1s0,8.4-2.8,10.5-7.2,1.4-10.3,3c-21.1,10.6-17.4,5.6-37.7,9.7-10.1,2-13.2,15.3-23.2,3.4l-2.9,9.4-14.2-9.4-6.5,8.2,9.3,12.6c-16.4,1.6-39.7,2.1-41.7,22.8-9.2-4.4-14.3-.1-22.2,1.5s-9.2-.4-12.5.7-3.2,5.9-6.3,7c-15.6,5.4-26.6-6.4-37.3-14.7-3.6,2.5-8.7,7.7-8.7,12.2,0,7.1,9,9.6,9.3,16.1-11.9-3.9-24.2-10.4-36-3.8-3.5,4.6,21.3,18,25.4,18.8l1.2,3.9c-7.9,2.1-20.6,9.2-24.2,16.6-6.3,12.9,9.2,22.1-4.3,37.4-12.2,13.9-32.7,5.4-28.4,27.5-22.3-2.1-11,20.1-13.3,34.1-8-5.3-4.2-16.2-7.1-24.1s-12.6-24.4-15.1-28.4.2-3.4-4.2-2.4c-3,22.5.4,43.5,11.4,63.6l-5.6,5.8,7.4,19.7-31.4-11.3c-2.3-.9-3.7.5-2.7,2.7,4.1,9.3,21.6,23.6,32.1,25.8.5,14-16.6,17.6-26.6,23.3l-1.7,8.7-16.1-12.7c-20.6,10.6,16.5,25.4-7.2,39.7-10.1,6.1-53.1,25.9-63.4,27.6-11.5,1.8-56.6-3-69.5-5.4s-16.7-6.8-24.8-7.4c-11.1-.9-20.9,3.3-33.6,1.4s-26.5-9.4-30.3-17.1c-.8-1.7-9.1-29.1-9.1-30.7-.2-11.2,8.3-27.2,11-38.4s6.4-26.4,7.6-34.1c1.2-7.4-.7-15.5.5-22.2s18-23,20.4-40.4-4.7-12-5.3-18.6c-1.2-12.1,23.3-23.1,29.5-32.8,1.6-5.7,1.8-34.8.4-40.5s-20.5-29.7-23.2-31.8c-7-5.5-18.1-5.5-25.5-10.5-5.4-3.6-7.3-9.7-11.4-13.2-7-6-15.8-10.9-22.8-17.1-1-.4-15.4,9.4-16.1,12.4l-14.2-18.1-5.7,2.9c-4.4-9.9-6.8-25.9-16.4-31.9-5.4-3.4-15.2-3.7-18.2-10.2-4.1-8.9.8-18.9.5-28l-7.6,3.8-2.8-15.2-10.5-1.8v-19s-11.3,1.9-11.3,1.9c-4.2-15.2-13.8-28.6-15-44.8-.6-8.4,2.6-15.6,1.8-22.5s-3.9-7-4-11.2c-.3-8.6,11.2-22.6-3.7-25.7l11.4-18.9-18.9,7.6,9.5-17-17.1-1.9c9.3-14.4-9-32.4-7.6-42.5.8-5.7,11.5-15.6,13.7-22.4s.9-11.2,1.7-12.5,10.2-2.9,11-7.1l-7.5-10.2,18.9-5.7-7.6-4.7c12.2-7,32.7-19.9,25.5-36.9-6.5-15.3-32.1-2.3-44.5-3.8l1.9-9.5h-15.2s13.3-22.7,13.3-22.7l-20.8,9.5c-.7-24.1-38.6-12.5-34.1-41.7l-9.4,5.7-7.6-13.3-3.8,7.6c-7.7-26.3-39.7-20.9-41.7-52.1-.7-10.9,4.8-21.4,4-30.3s-3.1-6.2-3.8-9.6c-1.8-9.9,3.4-41.3,8.2-50.1s14.3-13,20.1-19.7,1.4-5.9,2-6.4,8.8-.5,12.5-1.7,23.2-13.4,25.5-18,5.6-24.1,5-28.4-11.5-22.6-13.2-24.9c-5.8-7.3-14.3-4.6-22.5-5l2.1-8.2-5.9-5,22.7-3.9-2.9-13.2c5.4-5,17.9-14.1,25.1-14.8s36,19.1,40.4,14.7c.6-2.7-.6-4.7-1.5-7-2.8-7.7-13.8-18.2,3.4-11.9-2.5-22.3-14.7-37.9-30.3-53,17.8,2.9,13-5.6,17.5-11,.9-1.1,14.8-6,17.6-8,5.4.1,15.1,17.2,23.6,15.1,1.4-13.7-5.5-33.4-20.8-35.3s-7.9,1.8-11.4.2l5.6-9.5c16.3,4.6,12.2-2.6,17.6-8,1.8-1.8,6.5-1.7,8.1-4.2,4.1-6.6-2.8-23.1-3-31.3-.4-15.1,10.9-10.7,21-18-1.7,8,8.9,9.1,15.1,9.6.1,6.6-1.2,14.1,4.8,18.6,13.3.3,16.5-26.4,18.4-27.9s9.6,1.4,9.2-6l6.6,9.5,16-14.3,28.5-4.7c-.9,8.3,6.7,8.8,13.3,9.5-6.7,17.1,4.1,19.3,18.6,15.7,9.1-2.2,16.1-9.8,25-12l1.8,8.7c3.7,2.8,9.2-2.4,13.4-.3,4.5,2.3,6.2,14,12.8,15.9s17.2-9.1,29.4-8.7c13.8.5,35.6,15.4,43.9,26.2s8.8,21.7,22,24.5l-3.9,6.6c-.1,6.1,7.4,5.4,9,7.2s0,4.7,3.7,6.7,15.1,1.5,18.5,3.9.8,5.9,2.9,8.9c5.3,7.6,27.3,17.3,37,31.3,20.1,28.9,11.1,74.6,44.7,90.9l-7.6,4.7,13.3,15.2-5.7,7.5c9,6.6,19.9,12.3,23.7,23.7,1.2,3.7.5,7.8,1.8,11.5,5.9,16.4,18.7,21.9,35.1,24.6.6,3.6-3.6.9-5.3,2.2s-2.5,8.6-2.2,9l15.1,6.8c-21.9,12.7,12.3,22.7,16.1,29.4s-.3,9,2.6,12.5c1.8,2.2,5.8,2.2,7.6,3.8s3.5,6.3,5.8,7.4c4.9,2.5,12.2-.3,17.6,1.3,7.4,2.2,9.1,15.8,24.9,12.8,3.6-.7,5.5-3.8,8.5-4.5,9.2-2.3,19.2-3.1,28.6-4.9-.5,6.4.8,13.5-.1,19.8s-7.1,14.1-7,18.7c.4,10.9,12.8,36.9,12.8,47.7v31.3l11.4-16.2,15.2,1-5.5,17.8,31,18.2c3,14,4.1,28.5,6.7,42.6s-1.3,3.3,3.7,2.9l18-53,7.2,3.6c4.6-1.1,7-10.1,10.2-11,9-2.7,6.6,7.5,17.4-9s1-13.1,12.5-8.4l3-9.3,25.3,9.1,32-30.4,58.2,8.1c1.1-1.2-4.4-11-5.7-13.3l1.9-1.9c.2.3-.5,2.2.5,3.3,5.1,5.6,14.8,11.6,19.4,19.4,6-13.4,18.5-22.8,21.9-36.9.5-2.2-1.5-3.5,2.7-2.9l17.2,9.4,1.8,22.8c10.4-12.7,23.7-24,23.7-41.7,10.5,4.7,9.7-1.2,16.1-7.2l18.9,11.2c2.9-5.7,9.5-10.7,10.5-17.2,1.2.1,2.6-.2,3.8,0,7,.9,13,6.6,21.8,7.6,10.6,1.2,38.3-.3,49.2-2s31.4-19.6,43.6-18.8,29.7,16,38,20.8c2.6,3.9-3.2,1-4.5.7-6.2-1.6-13-5-18.4-6.2s-3.7.2-2.7,2.7c5.4,13.7,29.5,34.4,45.5,33.2-5.5,10.6.6,14.1,10.2,16.9l1.1,3.9c-16.6,5.7-21.2,18.4-5.1,28.8,8,5.2,21.6,6.3,27,10.9,1.6,1.4,14.5,25.9,15.2,28.4,4,15.5-1.5,38.3,2.8,55-20.4-9.9-16.5,2.8-7.6,15.2-.2.9-1,1.8-1.9,1.9-1.8.3-3.8-.2-5.7,0-6.8,8,31.7,30.3,36,36.9l-13.2,11.3,15,6.8c-.3,8.1-3.1,14.6-1.3,23.1,1.7,8.2,12.1,16.5,15.5,24.3,7.6,17.6-1.8,31.9-.8,50.1,1.5,27.1,12,31.4-4.1,60.2-11.4,20.3-25.4,24-37.6,38.2-3.6,4.2-5.8,9.2-1.3,13.8s21.8,9.5,24.1,11.9c4.8,4.9-7.6,3.1-7.6,4.7l7.6,12.3h-20.8c-1.1,1,9.8,21.9,11.4,24.7.3,1.2-.9,2.1-1.9,1.9ZM596.2,500.7l27.2-11.7c2.9-4.2-4.7-11.1-2-18.9s24.9-43.5,26.6-45.5c3-3.4,17.3-10.2,17.9-12.5-1.1-13.5-21.5,2.3-25.4,6.8-1.9,2.2-28.4,47.7-29.1,50.6-1.4,5.3.5,8.8,1.5,13.7-9.9,1.6-17.9,7.3-25.6,13.3l-1.4,28c-5.9,4.5-18.2,10.7-22.1,16.7-10.4,15.9-15.7,43.8-19,62.5-.9,5.2.6,10.6-1.1,16s-18,14.9-18.2,16.1l5.9,11.2-11.2,13.5c8.2,11.9-1.8,14.6-3.7,22.9-1.5,6.8-1.4,19.6,2.3,25.3s19.8,16.3,21,18.8c2.1,4.3.4,11.6,1.8,17.2,3.1,13.3,11.9,31.2,25.7,35.9l4.8-11.3c3.9,7.4,5,10.2,14,11.6l.2,11.1h11.4c-2.2,3.8-3.6,15.7-.1,18.1,7.7,2.8,19.5-1.5,26.6,1.8,7.4,3.4,25.6,22,34.3,28.2,1.7,1.2,7.9,6.4,9.3,4.9v-13.3c8,4.4,12.1.9,13.3-7.6l18.9,3.8c.7-5.7-1.8-13.2,1.8-18.1,4.9-6.8,27.8-10.4,32.4-15s1.9-14.9,5.6-19,17.9-6.4,20.4-8.9,3.7-13.2,8.9-18.6,17.5-8.8,22.8-15.1c9.1-11.1.6-22.2,3.2-26.2l20.3-8.1c-.6-14.1,1.7-30.5.3-44.3s-4-8.8-4-11.2,3-1,3.7-2.5c2.1-4.6,3.2-10.3,5.5-15s11-15.9,11-18.6c.1-8.5-9.8-19.1-18.3-20.9,10.6-5.3,7.2-12.6,10.5-21.8,2.4-6.7,5.9-13,8.3-19.8l-16.8-13.6-.2-3.7c.2-1.3,4.2,1,3.5-5.1s-11.8-38.8-17.6-37.5c-12,2.7,9.6,25.3,6.3,36.5-.9,2.9-5.8,4.7-5.3,7.7.8,4.4,17.1,12.7,17.1,21.1s-6.2,22.3-6.9,23.7c-2.2,4.6-16,10.6-16,12.4,6.1,6.4,24.4,9,24.6,19.1,0,5.8-12.9,20.8-13.7,28.7l-10.9,2.4c-.8,7.4,8.1,10.9,9.4,18.1s.9,36.9-.2,38.5l-22.4,7.9c-1.1,8.3,6.1,16.1,2.3,24.1s-19.9,11.4-24.7,16.1c-4.1,4.1-4.8,16.3-10.9,20.3l-.9-17c-1.7-.2-2.4-.2-3.8.9s-12,18.8-13,21.1c-2.5,5.9-3.4,18.7-6.7,21.7s-30.4,11.3-33,15.3.3,9.6-.3,13l-17-1.9-3.2,7.7-13.9-3.9-1,9.5c-16.2-12.8-28.9-31.5-52.1-26.5l1.9-18.9c-17.1,1.8-8.7-2.5-11.7-7.3s-7.9-2.4-9.8-4-1.2-4.9-4.3-7.5-15.2-8.3-15.9-7.8c-1.5,3.4,0,11-5.7,9.5-1.3-7.2-7.8-15.4-9.1-22.2s.8-18.1-.9-20.9-22.3-12.6-24.2-22.2c-3.4-17.3,8.9-24,8.8-30.3s-3.3-4.7-2.8-7.3,11.1-9.9,12.9-13.8l-7.4-9.2c18.4-11.5,14.2-18.5,17.2-35.8,2.7-15.3,8.4-46,17.9-57.9,4-5.1,22.1-14.7,23.3-18.4l.7-26.8Z"/><path class="st2" d="M1395.6,434.1c7.5,3.5,13.8-7,16-7.2s14,8.1,19.5,8.6,7.5-1.6,11.8-1.5c-2.6,6.5-13.6,13.5-10.5,20.8,4.1,9.5,23.1-7.8,28.9-9.1s15.3,2.5,24,1.4,13-6.1,20.1-7.4v14c-8.3,2.6-11.9,7.2-11.4,16.3-13.9-3.7-36.3-9.5-39.5,10,3.2,12.6,14.8,3.2,22.9,3.7,16.7,1,33.4,21.2,50.7,3.3,3.9,9.7,6.4,20.3,11.1,29.7,2.5,5,14.7,20.9,15.2,22.8,1.1,4.5-3.8,9-3.1,14.3s7.2,10.3,6.9,13.4-4.3,5.5-5,8.4c-3.6,13.8,14.3,17.9,14.3,22.2l-3.3,14.2-17-3.8c-4.1,14.3,3.8,23.4,4.9,36.1-2,2.8-19.5,5.9-24.4,7.9-12.9,5.3-21.7,14.1-36.9,16.1-8.9,1.2-53.8,2.9-57.1-6.4,1.1-22-5.2-44.8-15.4-64.2-.9-1.7-1-4.5-3.8-4.7l-11.2,40.8c3.5,14.8,22.4,27.6,7.4,41.8l-16.3-8.7c-8-.5-10.1,13.9-21.6,3.8-3.2,10-2.3,22.9-10.5,30.3-.9-8.2-11.8-8.7-19.3-12.9s-11.7-8.1-17.7-11.7c3.9,20-6.1,27-16.1,41.7l-44.5-45.4,15.1,41.7-43.8-6.6c-6.5,5-14.6,9.7-20.6,15.1-4.3,3.9-9,13.9-14.1,14.2s-28.8-13.9-31.3-11.3v11.4s-7.7-1.1-7.7-1.1l-7.8,19.9-14.8-1.5-4.9,11.2-8.5-10.4-15.1,35.1c1.8-20.3-16.2-21.6-29.5-30.3l4.8-19.8-18.8-5v-20.7c-.1,0-11.5,15.2-11.5,15.2,1.5-14.6-10.7-35.7-10.9-48.7s6.1-12.9,6.9-18.7-1.8-20,2-22.7c3.1-2.2,10.7,0,11.5-7.6.5-5.8-8.6-14.3-6.8-21.8,5.1-2.5,21.8-6.9,21.9-14.1l-34.1-7.6c5.6-4.5,13.5-11.3,20.1-14s10.1-2.1,15.1-3.9c14.5-5.2,20.2-19.1,32.8-27.9l-2.8-8.2-44.4,15.2c-.4-3.3.1-6.3.9-9.5,7.4-28.8,42.3-17.2,44.8-49,7.9-1.4,20.6-3.1,24.9-10.2,1.1-1.8.8-5.9,1.8-6.7s6.3.4,8.3-2.1c4.2-5.3-6-11.6-10.5-11.5-.5-.6,1-2.4,1.9-2.8,8.5-4.6,26.4-5.4,38-11.3,16-8.1,27.3-28.5,44.6-33.1,11.9-3.2,26.3,2.1,39.2-.5,6.8-1.4,14.3-8.6,20.9-11.3,23.3-9.4,70.7,15.1,88.6,31.6,6,5.5,10.6,13.8,16.1,19.9,5.3,1.4,9-15.1,8.6-18.8Z"/><path class="st2" d="M612.3,1213.4c1.3,1,18.6,25.8,19,27.4,1.2,4.6,1.4,28.9.4,33.6s-15.1,13.1-19.9,18-11.7,13.8-12,14.7c-1.6,6.2,7.8,15.6,7.2,24-1.2,17.2-18.2,27-20.4,36.6-1.8,7.9.7,17.9-.5,26-2.5,16.9-12.6,41.8-16.1,59.7-4.4,22.6,2,17.9,4.7,33.4s1.2,5.2-2.7,4.7c-2.8-.4-17.7-6.8-19.9-8.6-4-3.5-3.9-8.2-7.5-11.5-6-5.5-9.5-2.6-14.8-13.6-19.9-41.5,28.6-67.1,29.9-105.7s-11.6-24.5,0-39.6c-8.3-2.7.2-17.9,1.3-25.2,3.5-23,1.5-38.8-2-61.4-1.1-7-9-37.1-8.4-40.2s6.3-7.6,9.6-6.7c8.1,2.2,22.1,22.5,29.9,27.1,5.6,3.3,18.3,4.5,22.1,7.3Z"/><path d="M1683.6,1146.5c-8.7-6.9-21.8-13.2-32.2-17.1-.6-2.7-.4-2.4,1.2-3.9,7.7-7.4,19.6-13.9,27.2-22.6l3.8,43.6Z"/><path d="M1423.9,642.4c.2.9,1,1.6,1.9,1.9.4,2.8,0,6.4,0,9.5h-1.9c0-.3-3-1.8-4.2-4.3-5.7-12.1-10.4-16.3-2.5-29.8,5.4,6.2,5.2,15.2,6.6,22.7Z"/><path d="M436.6,339.2c-.7,1.9-2.3,1.5-3.8,1.9-6.2,1.7-10.7,5.5-17.1,5.7s-7.1.6-9.4-2.8l3.8-4.7c7.4.3,20.5-1.4,26.5,0Z"/><path d="M410.1,399.9c-5.6-5-13.6-11.3-18.1-17s-2-4.7-2.7-5.7c8.1,6.6,16.1,13.5,20.8,22.7Z"/><path d="M861.1,1377.7c-3.9-1.2-3.3-9.9-3.8-13.3,5.3,1.8,3.7,8.6,3.8,13.3Z"/><path d="M1427.7,670.9c-1.2-.2-2.5.1-3.8,0,.4-2.5.5-15.4,0-17.1h1.9c.2,5.7-1.1,11.8,1.9,17.1Z"/><path d="M1478.9,473.8c-1.3,3.5-10.1,2.8-13.3,3.8,1.8-5.3,8.6-3.7,13.3-3.8Z"/><path d="M961.6,1243.2c.2.5-.2,1.3,0,1.9l-7.6-8.5,1-1c2.4,2.4,5.1,4.5,6.6,7.6Z"/><path d="M436.6,339.2c2.5.6,7.2,5.6,5.7,7.6l-9.5-5.7c1.4-.4,3.1,0,3.8-1.9Z"/><path d="M1291.3,710.7l-1.9,1.9c-1.3-2.3-4.9-3.8-3.8-7.6,2.9.6,4.1,3.7,5.7,5.7Z"/><path d="M1027.9,625.4c.8-.5,1.4-3.3,2.9-3.8h2.8c1.5,3.9-3.3,4.6-3.8,5.7l-1.9-1.9Z"/><path d="M1658.9,1188.2c.6,1,4.6,5,3.8,5.7l-5.7-3.8c1,.2,2.2-.7,1.9-1.9Z"/><path d="M1643.8,868c.7,1,4,1.5,3.8,3.8l-5.7-1.9c.9-.1,1.7-1,1.9-1.9Z"/><path d="M1425.8,644.3c-.9-.3-1.7-1-1.9-1.9.9.2,1.8,1,1.9,1.9Z"/><path d="M596.2,500.7l-.7,26.8c-1.2,3.6-19.3,13.3-23.3,18.4-9.4,11.9-15.1,42.6-17.9,57.9-3.1,17.3,1.1,24.3-17.2,35.8l7.4,9.2c-1.8,3.9-12.3,10.6-12.9,13.8s2.8,5,2.8,7.3c.2,6.3-12.1,13-8.8,30.3,1.9,9.6,22,18.5,24.2,22.2s-.2,15.4.9,20.9,7.8,15,9.1,22.2c5.6,1.5,4.2-6.1,5.7-9.5.7-.5,14.8,6.8,15.9,7.8,3.1,2.6,2.3,5.9,4.3,7.5s9,2.7,9.8,4c3,4.7-5.5,9,11.7,7.3l-1.9,18.9c23.2-4.9,36,13.7,52.1,26.5l1-9.5,13.9,3.9,3.2-7.7,17,1.9c.7-3.4-1.2-10.6.3-13,2.5-4,29-11.8,33-15.3s4.2-15.8,6.7-21.7c1-2.3,12-20.3,13-21.1,1.4-1.1,2.1-1.1,3.8-.9l.9,17c6.2-4,6.8-16.2,10.9-20.3,4.7-4.7,21.3-9,24.7-16.1s-3.4-15.7-2.3-24.1l22.4-7.9c1-1.6.9-34.7.2-38.5-1.3-7.2-10.2-10.6-9.4-18.1l10.9-2.4c.8-7.9,13.8-22.9,13.7-28.7-.1-10.1-18.5-12.7-24.6-19.1,0-1.7,13.8-7.8,16-12.4s6.9-22.4,6.9-23.7c0-8.4-16.3-16.6-17.1-21.1s4.4-4.9,5.3-7.7c3.4-11.2-18.3-33.8-6.3-36.5s16.8,31.4,17.6,37.5-3.3,3.8-3.5,5.1l.2,3.7,16.8,13.6c-2.4,6.7-5.9,13-8.3,19.8-3.2,9.1.1,16.5-10.5,21.8,8.5,1.8,18.4,12.3,18.3,20.9s-9,14.6-11,18.6-3.4,10.3-5.5,15-3.7,1.5-3.7,2.5c0,2.4,3.5,6.5,4,11.2,1.4,13.8-.9,30.2-.3,44.3l-20.3,8.1c-2.6,4,5.9,15.1-3.2,26.2-5.2,6.3-17,9-22.8,15.1s-6.4,16.2-8.9,18.6-16.9,5-20.4,8.9-1.5,14.8-5.6,19-27.5,8.2-32.4,15c-3.6,4.9-1.1,12.4-1.8,18.1l-18.9-3.8c-1.2,8.5-5.3,12-13.3,7.6v13.3c-1.4,1.5-7.6-3.7-9.3-4.9-8.7-6.2-26.9-24.8-34.3-28.2-7.1-3.3-18.9,1-26.6-1.8-3.5-2.4-2-14.3.1-18.1h-11.4s-.2-11.1-.2-11.1c-9-1.4-10-4.2-14-11.6l-4.8,11.3c-13.8-4.7-22.6-22.6-25.7-35.9-1.3-5.6.3-12.9-1.8-17.2s-17.4-13.4-21-18.8-3.9-18.5-2.3-25.3c1.9-8.3,11.9-10.9,3.7-22.9l11.2-13.5-5.9-11.2c.2-1.2,16.2-9.7,18.2-16.1s.1-10.7,1.1-16c3.3-18.8,8.6-46.6,19-62.5,3.9-6,16.1-12.2,22.1-16.7l1.4-28c7.7-6,15.7-11.7,25.6-13.3-1-4.9-2.9-8.4-1.5-13.7s27.2-48.4,29.1-50.6c4-4.5,24.4-20.3,25.4-6.8-.6,2.3-14.9,9.1-17.9,12.5s-25.8,43-26.6,45.5c-2.7,7.7,4.9,14.7,2,18.9l-27.2,11.7Z"/></g><g><g><path class="st0" d="M928.9,1741.9c3,5.2-9.4,34.1-14.8,36.5-15.3,6.9-25.3-14.8-40.6-12.3-9.6,1.6-20.4,37-3.8,41.7,4.3,1.2,2.4-2.4,2.7-4.7.9-5,1.8-17.8,7-19.6,2.1-.7,24.5,1.1,28,1.7,5.9,1,11.9,5.9,12.2,12.1.1,3.8-8.2,45.9-9.8,47.9-6.3,8-40.9,6.1-51.1,3.8-34.1-7.5-48.3-32.8-44.8-66.6,6.6-62.7,70.1-75.2,115-40.6ZM906.6,1762.4l3-13.3c-32.6-19.9-73.7-10.1-78.5,31.5-5.6,47.3,22.6,57,64.3,53,2.5-1.8,6.9-28.5,4.8-31.5l-10.3-1.5c-3.5,2.2,1.7,22.5-14.4,23.4-27.6,1.5-33.3-20.3-28.9-43.1,7-36,33.4-39,60.1-18.5Z"/><path class="st1" d="M906.6,1762.4c-26.7-20.4-53.1-17.5-60.1,18.5-4.4,22.8,1.3,44.6,28.9,43.1,16.1-.9,10.9-21.2,14.4-23.4l10.3,1.5c2.2,3-2.2,29.7-4.8,31.5-41.7,4-69.9-5.7-64.3-53,4.9-41.6,45.9-51.4,78.5-31.5l-3,13.3Z"/></g><g><path class="st0" d="M1013.7,1861c-9.9-2.1-18.6-26.4-24.6-34.1-3.2.1,2.7,26.2-4.8,31.2-8.2,5.5-27.6-.1-37.5.7-7.2-9.8-2.2-17.6-2.1-27.1.3-26.2-3-60.5-.1-85.4.4-3.5,1.3-8.8,5.1-10.1,2.7-.9,34.6-.9,37.3,0l20.2,30c-1.3-7.4.3-30.3,10.4-30.3h35.1c3.2,10.6,0,19.8,0,29.3-.3,25.4,2.3,55,.2,79.7-.5,6.1-2.4,10.4-3.9,16h-35.1ZM971,1843.9v-38.8c0-3.2,9.4-20.3,10.4-19.9l35.4,58.4,18.7.3,1.9-92.9-13.1,2c-2.3,10.3,7,56-12,50.8-7.7-2.1-26.5-42.7-32.6-50.9l-18-1.9-1.9,92.9h11.4Z"/><path class="st1" d="M971,1843.9h-11.4s1.9-92.9,1.9-92.9l18,1.9c6.1,8.3,24.9,48.8,32.6,50.9,19.1,5.2,9.7-40.5,12-50.8l13.1-2-1.9,92.9-18.7-.3-35.4-58.4c-1-.4-10.4,16.7-10.4,19.9v38.8Z"/></g><g><path class="st0" d="M1160.6,1804c15.8-.4,16.6,21.6,15.2,33.3-.9,7-6.2,8.6-12.6,10.1-13.2,3.1-40.8,6.6-54.8,7.7s-11.9,0-17.8-.2l-17.1-110.9c0-11.2,9.4-11.9,18.1-13.7,13.5-2.7,41.8-7.5,54.8-7.9,10.1-.3,16.8,6.3,18,16.1,1.3,11.2,2.8,25.1-9.5,28.5,8.7,8.8,6.5,25.5,5.7,36.9ZM1147.3,1739.7l-56.9,7.6,13.3,91,54.1-7.5.8-9.6-41.5,3.6c-2.1-10.4-6.2-19.3-1.8-29.9l29.9-4.2v-9.4c-11-1-21.9,4.9-32.7.2-4.6-2.9-3.6-19.6-2.3-24.9l37.1-5.6v-11.4Z"/><path class="st1" d="M1147.3,1739.7v11.4s-37.1,5.6-37.1,5.6c-1.3,5.3-2.3,22,2.3,24.9,10.8,4.8,21.8-1.2,32.9-.2v9.4c-.1,0-30.1,4.2-30.1,4.2-4.4,10.6-.3,19.5,1.8,29.9l41.5-3.6-.8,9.6-54.1,7.5-13.3-91,56.9-7.6Z"/></g><g><path class="st0" d="M1353.8,1698c2.6,3.9,6.1,3.7,9,8.9,3.7,6.8,6.4,19.3,6.1,27,15.5-9,27.2,22.8,24.3,32.7s-4.1,5-6.8,6.6c-6.5,3.8-63.9,29.2-67.5,28.6l-52.2-110.5c.1-1.8,19.6-10.9,23.2-12.6,8.3-4,45.4-20.9,51.5-20.6,10.9.4,13.9,8.8,16.6,17.7s7.6,20.2-4.3,22.3ZM1351.9,1726.4l-4.7-11.3c-10.7,4.2-25.8,17.9-33.6,5.1-15.6-25.7,13.2-26.1,29.9-35.4l-4.1-9.5-50,20.9,35.9,84.4,51.1-20.2-4.7-11.2c-7.1,3.6-31.6,18.8-38.5,14.7-4.8-8-9.7-16.3-9-26.2l27.6-11.4Z"/><path class="st1" d="M1351.9,1726.4l-27.6,11.4c-.7,9.8,4.3,18.1,9,26.2,6.9,4,31.4-11.1,38.5-14.7l4.7,11.2-51.1,20.2-35.9-84.4,50-20.9,4.1,9.5c-16.8,9.2-45.5,9.7-29.9,35.4,7.8,12.8,22.8-.8,33.6-5.1l4.7,11.3Z"/></g><g><path class="st0" d="M1249.6,1745.4c1.9,4.5,7.6,4,11.3,6.7,27.4,19.9,21.2,58.8-8.1,73.2-10.9,5.3-47.5,12.2-56.3,4.4-2.2-1.9-5.8-28.5-5.3-31.8.8-5.3,11.2-11.7,9.1-14.6-36.9-16.5-26.3-63.9,9-77.3,8.9-3.4,38.4-8,44.2-1.5,4.1,4.6,10.6,41.1-3.9,40.9ZM1242,1732.1c-.2-8.7,3-15.8-8.2-15-22.5,1.5-43.2,12.8-39,38.6,3.9,24.1,52.7,11.7,54.3,32.6,1.4,18-29.1,20.5-41.2,13.9-1,20,12.1,16.4,26.6,12.3,17.4-4.9,34.4-19.7,25.5-38.9-9.4-20.5-47.5-12.3-51.7-25.9-6.2-20.1,20.1-23.1,33.7-17.6Z"/><path class="st1" d="M1242,1732.1c-13.6-5.5-39.9-2.4-33.7,17.6,4.2,13.6,42.3,5.5,51.7,25.9,8.8,19.2-8.1,34-25.5,38.9-14.4,4-27.5,7.6-26.6-12.3,12,6.5,42.5,4.1,41.2-13.9-1.6-20.9-50.4-8.5-54.3-32.6-4.1-25.8,16.5-37.1,39-38.6,11.3-.8,8,6.3,8.2,15Z"/></g><g><path class="st0" d="M735.6,1690.9c40.1-6.8,76.5,20.2,72,62.5-5.2,49.4-50.2,83.2-96.7,54.2-44.2-27.5-19.4-109.2,24.7-116.7ZM745.2,1706c-37.9,2-62,74.6-17.2,92,38.8,15.1,66.2-21.5,63.2-57.5-1.9-22.2-25-35.7-45.9-34.5Z"/><path class="st1" d="M745.2,1706c21-1.1,44.1,12.4,45.9,34.5,3,36-24.4,72.6-63.2,57.5-44.8-17.4-20.7-90,17.2-92ZM745.1,1717.3c-20.1,3.3-37,53-19.4,67.8,29.9,25.2,52.5-20.1,50.3-46.5s-16.7-23.6-30.9-21.3Z"/><path class="st0" d="M745.1,1717.3c14.2-2.3,29.6,6.2,30.9,21.3,2.2,26.5-20.4,71.7-50.3,46.5-17.6-14.8-.7-64.6,19.4-67.8ZM748.6,1732.5c-7.9,1.5-24.6,42.3-5.8,43.2,11.4.6,21.8-31.8,16.1-39-1.4-1.8-8.1-4.6-10.3-4.2Z"/></g><g><path class="st0" d="M642.2,1639.8c2.8-.3,31.2,13.9,34,16.7s3.1,2.5,3.3,6.4c.5,11.3-29.5,53.3-34.1,66.7-.6,7.1,22.8,7.6,24.4,20.7,1,8.5-10,30-18.1,31.1-5.6.8-40.9-17.6-48.3-21.8-4.5-2.6-16.7-8.3-16.9-13.2l55.8-106.6ZM652.7,1753c-6.3-2-25.7-10.1-26.6-16.2-1.7-10.6,29.1-55.6,34-68.5.4-4.3-8.6-6.9-12-8.2l-42.7,80.6c6.3,3.3,39.2,23.9,43.2,21.5l4.1-9.2Z"/><path class="st1" d="M652.7,1753l-4.1,9.2c-4,2.4-36.9-18.2-43.2-21.5l42.7-80.6c3.4,1.3,12.4,4,12,8.2-4.9,12.9-35.7,57.9-34,68.5,1,6.1,20.4,14.2,26.6,16.2Z"/></g><g><path class="st0" d="M460.8,1497.4c3.5-.7,4.4-.2,7.2,1.5s32.1,31.4,35.7,36.3c14.3,19.1,12.5,41-6.6,55.6-3.2,2.4-10.6,4.2-12.2,6.8-5.7,9.3-.8,16.8-15.2,28.3-32.7,26.1-76.2-16.3-91.5-44.2l82.5-84.3ZM462.5,1518.1l-63.7,63.5c17.7,31,69,61.6,70.9,2.6,51.6-12.2,18.6-46.9-7.2-66.1Z"/><path class="st1" d="M462.5,1518.1c25.8,19.2,58.8,53.8,7.2,66.1-1.9,59-53.2,28.4-70.9-2.6l63.7-63.5ZM464.6,1537.2c-4.9,1-19,14.2-18.2,19.2,6.3,20.2,38.7,20,35.7-3.2-.8-6.4-10.3-17.4-17.5-16ZM436.1,1565.6c-4.9.7-20.4,16.8-20,21.3,6.9,20.7,43.2,26.4,39.4-1.4-1-7.3-12.5-20.8-19.4-19.8Z"/><path class="st0" d="M436.1,1565.6c6.9-1,18.4,12.6,19.4,19.8,3.9,27.9-32.5,22.1-39.4,1.4-.4-4.5,15.2-20.6,20-21.3Z"/><path class="st0" d="M464.6,1537.2c7.2-1.4,16.7,9.6,17.5,16,3,23.2-29.4,23.3-35.7,3.2-.7-5,13.3-18.2,18.2-19.2Z"/></g><g><path class="st0" d="M544.2,1586.7c16.8-2,36.8,6.8,48.9,18.4,55.4,52.8-43.1,157.8-99.5,82.5-27.4-36.6,9.6-95.8,50.7-100.8ZM581.9,1617.2c-47.4-48.2-118.1,43.4-58.7,74.8,27.1,14.3,52-3.2,64.2-28,8.4-17,8.4-32.6-5.5-46.8Z"/><path class="st1" d="M581.9,1617.2c13.9,14.2,13.9,29.7,5.5,46.8-12.2,24.8-37,42.3-64.2,28-59.4-31.4,11.3-123,58.7-74.8ZM547.9,1615c-14,2.9-33.5,31-34.7,45-1.5,17.4,17.2,30.1,33.3,25.7,11.8-3.2,30.4-30.2,32-41.9,2.4-17.1-14.1-32.2-30.7-28.8Z"/><path class="st0" d="M547.9,1615c16.6-3.4,33.2,11.7,30.7,28.8s-20.2,38.6-32,41.9c-16.1,4.4-34.8-8.3-33.3-25.7,1.2-13.9,20.6-42.1,34.7-45ZM553.2,1630.4c-11.1,4.2-35.7,34.2-16.1,40.3,3.5,1.1,3.8.7,6.7-1,5.8-3.4,21.7-25.7,19-32.3l-9.5-7Z"/></g><g><path class="st0" d="M1513.3,1635.2c15.3,7.9,42.6,6.1,34.9,30.7s-16.6,19.5-19.4,20.3c-9.3,2.8-16.5-2-25.2-3.4l6.8,13.2c-2.2,4.3-29.9,24.8-34.3,24.7s-6.9-5.2-9.3-7.7l-63.4-89.6c.8-4.3,41-33.1,47.3-36.1,35.8-17.2,65,11.8,62.6,47.9ZM1532,1658.2c-6.9-1.3-32.1-8-35-13.3,2.4-63.1-37.1-52-71-19.6l52.1,74.7c28.8-8.6-19.3-27.7.9-40.8,13.8-8.9,28.4,9.2,42.6,11.6l10.4-12.6Z"/><path class="st1" d="M1532,1658.2l-10.4,12.6c-14.2-2.3-28.8-20.5-42.6-11.6-20.2,13.1,27.9,32.1-.9,40.8l-52.1-74.7c33.8-32.3,73.3-43.5,71,19.6,2.9,5.3,28.1,12,35,13.3ZM1449.2,1619c-11.6,11.9,8.9,28.7,17.3,36.9,13.5-7.4,22.6-15.6,15.2-31.9s-22.4-15.4-32.5-5Z"/><path class="st0" d="M1449.2,1619c10.1-10.3,26.3-8.5,32.5,5s-1.7,24.5-15.2,31.9c-8.4-8.2-29-25-17.3-36.9ZM1467.5,1627.9h-3.8s0,2.8,0,2.8l2.8,2.9.9-5.7Z"/><polygon class="st1" points="1467.5 1627.9 1466.6 1633.5 1463.8 1630.7 1463.8 1627.9 1467.5 1627.9"/></g></g><g><path class="st1" d="M302.1,593.2c-2,11.7-6.7,19.7-11.4,30.3-1.8-4.7-2.7,1.8-3.4,3.2-2,4.3-4.9,8.3-6.1,12.9,1.9.1,9.2-9.8,9.5-10.4l7.1.4c5.2,18.4-5.1,33.3,2.3,52.6-9.6,1.4-20.1-3.5-25.5-11.4-2.4-3.5-1.6-8.5-4.8-9.4-107.1,230.9-96.8,504.9,25.5,727.7l48.3,77.7c-14.1-4.4-17.7-22-27.5-32.2-8,3.1-10.8,12.6-19.8,14.4-3.5.7-19.6-.7-23.6-1.4-42-7.4-108.2-91-127.7-128.1-2.6-4.9-6.3-9.9-6.1-15.7h29.4c5.9,0,24.2,5,30.9,7,28.8,9,53.4,27.8,73.4,49.8,1.4.3,1.2-1.8.9-2.8-4.1-13.2-15.9-32.3-21.7-46.5-8.1-19.8-15.5-40.1-21.9-60.6-6.8,1.4-9.8,8.6-17,10.5-32.9,8.7-62.8-35.2-77.4-59.2-21-34.4-34.4-73-45.8-111.5,2.3-3.9,7.6-1.2,11.7-.3,30,6.2,61.6,26.2,81.2,49.6l28.4,43.6c-9.4-43.4-16.9-87.2-19-131.7-5.5.6-9,6-14.6,7.1-35.8,7.4-54.3-39.9-63.1-66.8-12.7-38.9-17.8-81.4-18.9-122.3,37.2,11.5,67.5,45,81,81l13.7,49.7c-.8-50.9,5.5-101.5,13.3-151.6-12.5,9.9-29.9,7.8-40.8-3.8-23.4-25.1-22.7-93.4-19.8-126s7.7-61.6,12.3-61.6c30.4,23.2,53.1,60.6,56,99.4s-2.6,42.6-3.9,64.4c-.1,2.1-1.2,7.2,2,6.7,14.3-73.6,41.3-146.3,76.7-212.3,3.7-6.9,9.2-20,16.1-22.7Z"/><path class="st1" d="M358.9,1224.2c3,48.1,21.8,102.6,17,150.6-1.8,18.2-15.4,42.7-36.7,40.2-9.1-1.1-23-29-26.7-37.4-17.6-40.3-20.9-79.1,4.2-116.9,9.5-14.3,25.8-31.7,42.1-36.5Z"/><path class="st1" d="M315.3,1065c-2.7,31.7-3.8,63.9-7.8,95.5-3,23.3-9.6,76-38.7,80.6-21.8,3.4-22.7-4.9-27.9-23-19.5-68,2.1-134.7,74.4-153.1Z"/><path class="st1" d="M261.8,659c-27.1,10.2-41.3-12.1-43.2-36.4-4.1-51.5,19.4-108.9,40.8-154.5,6.3,0,22.1,31.4,24.6,37.9,20.7,54.5.9,103.5-22.2,153Z"/><path class="st1" d="M311.5,896.4c.4,3.3-.2,6.4-.8,9.6-3.9,18.3-15.1,47-21.8,65.3-8.4,22.7-24.1,69.6-47,80-11.3,5.1-32.9,6.1-34.6-9.9-8-75.1,24.6-137.5,104.2-145Z"/><path class="st1" d="M343.8,731.5c1.5,3,4.4,8.9,7.6,7.6-19.4,26.4-36.6,54.9-56.1,81.3-14.3,19.3-37.1,50.6-64.8,42.5-13-3.8-14.4-9.7-13.1-21.9,6.2-58.6,47.4-107.7,108.5-109.6s12.9,4.2,17.9,0Z"/></g></g></svg>