<?xml version="1.0" encoding="UTF-8"?><svg id="Layer_1" xmlns="http://www.w3.org/2000/svg" version="1.1" viewBox="0 0 773.4 709.3"><!--Generator: Adobe Illustrator 29.1.0, SVG Export Plug-In . SVG Version: 2.1.0 Build 142)--><path d="M51.8,504.9c-3.1-7.2-1.1-14.5-1.6-21.9-6.9,1.5-10.8-1.5-12.7-7.6-.5-1.7-1.4-2.5-3.3-2.1-4.1.8-6.2-1.6-7.4-5.1-2.5-6.9-4.7-13.9-2.9-21.4.3-1.3.5-2.6-.7-4.5-4.8,1.1-9.4,0-13.4-3.5-.8-.7-1.9-.3-2.9-.2-5.1.6-7.3-1.4-6.8-6.4.3-3.6,1-7.3,2-10.8,4.6-15.1,6-30.8,11.6-45.8,2.9-7.9,6.2-16.5,4.8-26-1.2-8.1,2.7-16,4.9-23.8.4-1.3.9-2.5,1.4-4-5.8-2.3-5.5-6-3.7-11.2,4.4-12.6,12.3-22.8,20.8-32.6,15.5-17.7,31.1-35.2,49.1-50.4,5.4-4.5,11.9-7.2,17.3-11.6-2.2-7.4-1.6-9.2,4.6-13.5,7.2-5,15.7-7.1,24.4-10.6-5.5-2-7.8-5.4-5.7-10.9-.9-.3-1.5-.7-2.1-.7-2.8-.4-6-.5-6.4-4.2-.3-3.4,2.5-4.4,4.9-5.5,2-.9,3.9-1.9,6-2.5,2.9-.8,5-1.8,5.2-5.5.2-3.2,3.3-3.8,6.1-3.9,9.9-.4,18.8-3.7,27.2-9.5-3.6-3.7-7.2-6.1-12.5-4.5-2.5.8-5.1.6-6.6-2-1.5-2.5.2-4.6,1.8-6.2,8.7-9,19.6-14.2,31.5-17.4,6.4-1.7,13-3,19.5-4.1,7.1-1.2,14.2.3,21.7,2.4-.2-5.3-2.6-9.2-3.3-13.6-1-6.1.5-11,4.9-14.9,2.8-2.4,3.7-4.8,2.7-8.3-.4-1.6-.4-3.3-.2-5,.5-4.6,4.8-6.8,7.7-3.5,9.1,10.5,20.9,7,33.4,7.5-2.9-3.5-5-5.9-7-8.5-2.1-2.7-5.1-5.5-3.6-9.3,1.6-4.1,5.7-3.3,9.1-3.4.8,0,1.6-.2,2.3-.2.2-.5.5-.9.4-1.1-2-8.6.7-11.4,9.3-8.7,10.5,3.3,21,6,32.1,6.6,5.7.3,10.9,3.1,15.6,6.4,3.8,2.7,6,1.7,7.8-2.1,1.1-2.2,2.1-4.5,3-6.9,1.5-4.1,3.5-8,6.2-11.3,2.2-2.7,4.9-5.5,8.8-4.8,3.6.6,4.5,4.1,5.6,7.1.4,1.1.9,2.1,1.4,3.2.8,0,1.4,0,2.1,0,6.5-1,9.1,1.7,8,8-.9,4.9-2.2,9.7-.7,14.8,2.2,7.5,9.9,13.6,17.7,13.6,2,0,2.5-1,2.9-2.6,1.1-4.2,2.5-8.3,3.6-12.5,2.7-9.9,4.5-10.6,12.5-4,3.3-2.8,3.9-7.2,5.8-10.7,4.4-8.2,6.4-8.9,14.2-3.9.4.3.9.4,1.9.8,4.5-7.9,8.6-16,10.8-24.9.2-1,.3-2,.6-2.9.7-2.1,1.7-4.2,4.1-4.6,2.5-.4,4,1.2,5.2,3.1,1.6,2.5,2.9,5.2,3.7,8.1.5,1.8.4,4,2.5,5.9,5.3-8.6,10.8-16.9,14-26.5,1.1-3.3,1.4-8.2,5.9-8.2,5.1,0,5.1,5.1,5.8,8.6,2.7,13.2,4.8,26.5,2.7,40.1-.9,6.2-3.6,11.7-5.7,17.6,8.5-1.2,16.9-2.2,22.9-9.1,1.6-1.8,4-2.8,6.4-1.6,2.6,1.3,2.6,4,2.5,6.6-.2,7.8-3.7,14.4-8.3,21,3.5,1.1,6.6.3,9.6,0,8.8-.8,10.6.3,13,8.4,1.7,1,3.2,0,4.7-.6,9-3.5,18.6-5.1,27.9-7.8,6.2-1.8,9.2.5,9.5,7,.1,2.7,1.5,2.9,3.4,3.1,3.1.4,6.3.5,9.4,1.2,6.4,1.6,8.8,6.1,7,12.5-.4,1.3-.8,2.5-1.2,3.8-2.5,9.3-2.4,9.9,5.4,15.3,4.1,2.9,6.6,6.7,7.8,11.3,1.1,4.2,3.6,6.5,7.4,8,11,4.4,22.6,7,33.4,11.7,7,3.1,14.2,5.8,20.9,9.6,6.5,3.7,8.4,7.7,6.9,15.1,6.3,2.5,13.2,2.6,19.8,4.2,7,1.8,13.5,4.7,20.2,7.3,5.6,2.2,9.1,6.6,11.3,12.1,11,27.5,26.2,52.7,42.8,77.1,2.6,3.8,5,7.9,7.2,12,3.4,6.5,2,8.8-5.1,9.2-.8,0-1.6.3-2.2.4-1.2,2.5.3,4.5.2,6.6,0,2,0,4.6-1.4,5.7-4.1,3-3.1,7-2.8,10.8.3,5.6-1.4,10.3-5.9,13.6-5.5,4-6.5,9.5-5.6,15.5.5,3.8,1.7,7.4,3.3,11,4.2,9.5,6.9,19.4,8.4,29.7.3,2.3.8,4.9-1.9,6.2-2.9,1.4-4.7-.6-6.3-2.6-1.6-1.9-3.1-3.8-4.8-5.8-4.3,10.1-4.7,20.3-3.1,31.1,2,13.5,2.9,27.1,3.8,40.7.6,8-2.3,9.7-9.4,6.3-3.6-1.7-7.2,0-7.5,4-.2,2.7-.8,5.3-1.7,7.8-3.1,8.4-7.6,10.1-15.2,5.6-6.9,2.3-8.4,7.4-8.1,14,.3,7.8,0,15.6-2.7,23.2-1.7,4.5-3.4,8.1-9.1,6.6-1.5-.4-2.5.5-3.6,1.2-1.2.8-2.7,2.1-4.1,1.6-5.3-1.8-8.3,1.6-11.7,4.5-6.9,5.8-14.2,4.9-20-2.2-1.2-1.5-2.2-3.4-4.4-3.8-1.6.5-2.3,2-3.2,3.1-3,3.7-6.5,4.6-10.5,2-2.9-1.8-5.6-2.2-8.9-.7-3.9,1.8-8.2,1.4-12.1-.6-2.1-1.1-4-2.4-6.1-3.4-1.9-.9-3.9-2.9-6-1.5-2.4,1.6-1.8,4.6-1.2,6.9,2,7.6,4.1,15.2,4.4,23,.8,17.2-6.6,31.3-17.3,44-3.7,4.4-7.2,9.4-14.2,8.6-1.4-.2-2.2,1.3-3.2,2.3-6.4,6.2-14.1,9.9-22.3,12.9-1.8.7-3.9,1.1-5.1-.5-5.5-7.8-12.9-7.7-20.9-5.1,1,6.9-1.1,9.7-8.3,11.2-3.9.8-7.7.4-11.4-.6-4.3-1.2-6.3,0-7.4,4.5-3.6,16.1-10.8,30.5-22.5,42.2-7,6.9-14.6,13.2-23.8,17.1-2.8,1.2-5.6,2.2-8.7,1.9-1.9-.2-3.6.3-5.2,1.4-9.3,6-19,6.4-29,2.1-4.1-1.8-8.4-1.7-12.8-1.5-7.3.2-13.9-1-21.1-3.7-10-3.7-16.2-9.7-20.6-18.7-.8-1.6-2.3-2.4-4-2.8-5.5-1.4-9.1-5.1-10.9-10.1-3.8-10.8-10.4-20-16.3-29.6-2-3.2-5.4-4.4-7.8-6.9-3.5-3.5-7.7-6.3-11.2-9.8-2-2.1-6.5-1.5-8.4-4.8-1.8,1.4-1.8,3.2-2.3,4.7-2,5.6-6.3,6.4-10,1.7-3-3.8-5.6-7.9-8.4-11.8-1.3-1.7-2.4-3.7-4.8-3.8-1.8.6-1.6,2-1.8,3.3-.5,3.3-1.3,6.6-3.3,9.4-2.3,3.3-5,3.4-8,.6-2.2-2-3.1-5.1-6.3-6.9-1,5.9-1.6,11.7-3.4,17.2-.9,2.8-1.8,5.8-4.9,6.3-3.5.6-4.6-2.6-5.8-5.2-2.2-4.8-4.3-9.7-6.6-14.5-.6-1.3-1.1-3-3-2.9-2,.2-3.2,1.3-3.9,3.3-.9,2.5-2,4.9-3.2,7.3-.9,1.9-2.2,3.4-4.6,3.3-2.4-.2-4-1.8-4.7-3.9-1-3.2-1.9-6.4-2.7-9.6-2.4-9.7-5.8-19-10.4-27.9-2,.5-1.8,2.1-2.1,3.2-2.5,8.9-6.3,17.2-11.4,24.8-1.5,2.3-3.2,4.7-6.4,3.6-3.3-1.1-2.9-4.2-2.7-6.8.5-6.3,2.2-12.5.9-18.9-.7-3.5-1.3-7.1-4.7-10-1.5,3.2-2.8,6-4.3,8.7-.9,1.7-2,3.6-3.4,4.9-1.9,1.7-3.9,4-7,2.7-2.8-1.2-3.4-3.8-3.7-6.6-.7-7.5-1.9-14.8-4.6-21.9-1-2.6-2-4-5-2.7-3.3,1.5-6.2.2-8.6-2.2-1.6-1.6-3.1-3.1-5.5-2.9-9.4.7-16.7-3.8-23.4-9.6-4.7-4.1-9-7.8-15.9-8.1-6.1-.3-9.7-5.6-10.2-10.9-1-10.7-7.3-19.4-9.5-30.1-5.7,0-12,6-17.5-1.4M591.6,594.5c8.8-13.4,10.3-27.8,6.2-43.1-3.5-12.9-5.3-25.7-4.1-39.4,1.4-15-5.7-27.4-17.5-36.8-3.3-2.6-7.4-4.3-5.8-9.7.3-1-.8-1.7-1.4-2.5-4.8-5.5-4.8-6.9.8-12-6.9-5-11.1-11.8-13.6-19.7-2.4-7.3-6.1-12.6-14.7-12.4-1.8,0-3.3-.8-3.3-2.9,0-2,1.2-3,3-3.4,2.3-.5,4.6-.2,6.9.4,8.2,2.2,12.1,8.5,14.5,15.8,2.3,6.9,5.9,12.6,12,16.6,7,4.6,7.2,7,1.7,13.3,2.2,2.1,6.8,3.3,5.4,6.8-1.5,4,.7,5.4,2.6,7.5,8.5,9.4,15.2,19.7,16.7,32.8.7,5.9-1.4,11.5-.7,17.7,5,0,8.6,3,12.6,5.3,4.9,2.8,9.8,6.6,16,2.1,2.2-1.6,5.3-.4,7.5,1.2,3.7,2.7,5.6,1.8,7.6-2.1,2.8-5.5,6-5.8,10.7-1.7,2.6,2.3,5,4.9,7.5,7.4,2.3,2.3,5,2.5,7.2.6,5.1-4.3,9.3-9.2,16.9-10.2,3.1-.4,6.1-3.3,9.7-1,2.3-2.9,2.8-5.9,2.8-9.1,0-7.2,0-14.3.1-21.5,0-5.7-1.4-12.4,7.6-12.8.3,0,.5-.4.8-.6q5.6-4.6,10.9,0c1,.8,1.8,2.1,3.9,2,0,0,.4-.5.5-1,.7-2.7,1.4-5.5,1.9-8.3,2.2-11.2,2.9-12,14.2-13.9.3,0,.5-.4,1-.9-.8-10.9-1.6-22-2.4-33.1-.5-7.8-4.3-16-1.8-23.2,2.5-7.1.7-12.8-1-19-.7-2.6-1.7-5.1-2.6-7.6-1-2.7-1.3-5.4,1.8-6.9,2.9-1.4,4.7.7,6.2,2.8,3,4.1,5.9,8.3,9.5,13.3-1.2-13.2-9.8-23.3-8-36.6-2.8,2.2-1.7,4.8-3.1,6.2-2.2,2.1-1.4,7.3-6.3,6.4-2.4-.5-2.9-7-1.5-11,2-5.4,6.3-10.1,5.3-16.5,0-.4.2-1,.4-1.4,3-5.1,2.7-10.8,2.9-16.4,0-1.6.2-3.1,1.8-3.8,1.9-.8,3.2.4,4.1,1.9,1.6,2.8,2,6,2.7,9,.8,3.5.9,6.7-2.4,9.5-2,1.7-2.7,4.5-1.8,7.4q9.7-7,8.5-18.5c-.4-3.8,0-7.4,3.6-9.7,1.6-1,1.4-2.3,1.2-3.9-1.4-8.9-1.4-8.9,6.6-13.3-1.8-2.8-3.5-5.6-5.3-8.3-9-13.8-18.8-27.1-26.3-41.8-4.8-9.3-9.4-18.7-13.5-28.4-2.9-6.8-6.5-13.9-13.5-16.7-14.2-5.6-28.7-10.6-44.6-8.8-6.6.8-13.2,1.3-19.9,2-3.8.4-9,1.1-9.7-4.3-.6-4.8,4.2-5.7,7.9-6.8,5.5-1.6,11.3-.6,16.9-1.4,2.7-.4,5.7-.2,7.7-2.8-.6-2.3-2.4-3.3-4.1-4.3-10.5-6.6-22.2-10.6-33.9-14.3-7.5-2.4-15.1-4.1-21.9-8.2-4.1-2.5-7-5.7-8.2-10.3-.9-3.7-2.9-6.1-6.3-7.8-9.5-4.6-11.6-17.5-9.5-24.7,1.9-6.5,1.7-7-5.2-7.1-6.9,0-12.9-1-13.6-9.2-2.3-.8-3.8.2-5.4.6-8,2.2-16,4.6-24,6.8-9.3,2.5-11.1,1.3-12.8-7.9-4.7-.4-9.1,1.8-13.7,1.9-3.2,0-6.9,1-9.1-2.5-2.3-3.6.4-6.3,2-9.1,2.3-4.1,5.6-7.7,7.2-13.7-2.7,1.4-4.6,2.3-6.4,3.3-1.9,1-4,2.4-6.1,1.9-3.7-.9-6.4.9-9.4,2.5-2.5,1.3-5,2.6-7.5,4.1-2.2,1.3-4.3,2.1-6.3,0-1.8-1.9-1.2-4.1,0-6,3.6-5,5-10.8,7.1-16.5,4.2-11.7,3.8-23.5,1.5-36.7-1.5,2.6-2.3,4-3.1,5.4-4.3,7.9-8.5,15.9-14.1,23-1.6,2.1-3.6,5-6.9,3.9-3.5-1.1-3.4-4.5-3.5-7.6,0-3-.2-6-2-9.2-3.4,7.5-7,14.3-11.4,20.5-2.3,3.3-5.2,4.8-8.9,2-2.5-1.9-3.9-.8-5.1,1.5-1.1,2.2-2.2,4.5-3.5,6.6-2.2,3.5-3.9,8.3-8.1,9.1-6.4,1.2-7.5,5.7-8.5,10.5-.9,4.4-3.6,5.9-7.9,5.9-4.7,0-8.8-1.7-12.9-3.5-13.7-6.1-18-13.4-16.7-28,0-.6,0-1.2-.2-1.9-10.7,1.3-6.1-9.3-10.4-13.2-2.9,2.3-4.3,5.3-5.5,8.4-2.1,5.6-3.6,11.4-5.8,17-1.8,4.7-5.1,5.9-9.6,3.4-2.9-1.6-5.4-3.9-8.2-5.7-12.3-7.7-26.5-7.4-40.6-10.3.9,2,1.5,3.3,2,4.7.8,2,1.7,4.1,0,6.1-1.9,2.1-4.2,1.6-6.5.9-2-.6-4-1.1-7.3-2.1,4.1,5.2,7.4,9.4,10.6,13.5,1.4,1.8,2.6,3.7,1.2,5.9-1.4,2.3-4,3-6.2,2-11.9-5.5-25.2,1.9-37.1-5,1.1,9.4,1.2,9.5-6.7,13.4-2.2,1.1-3,2.7-2.5,4.8.5,2.4,1.3,4.8,2.2,7.1,1.6,4.2,3.5,8.3,5.2,12.5,1,2.5,1.1,5-1.2,6.9-2.2,1.8-4.4,1-6.5-.3-.7-.4-1.5-.8-2.1-1.3-4.8-3.8-10.4-4.8-16.4-4.7-6,.2-12,.4-17.9,1.4-9.7,1.8-19.2,4.3-28.2,11.5,5.9-.6,7.4,4.4,11.4,5.5,3.2.8,7,2.4,7.2,6,.2,3.6-3.9,4.9-6.7,6.7-.4.3-.9.4-1.3.7-8.6,4.2-16.8,9.5-27,10.6,2.8,5.9-.9,7.6-5.5,8.7,3.2,6-1.8,7.6-5.5,10.2,2.2.6,3.8,1,5.4,1.4,2.7.7,5.3,1.6,5.7,4.8.4,3.1-2.1,4.4-4.2,5.6-5.6,3.3-11.6,5.9-17.6,8.2-4,1.5-8.2,2.6-11.8,5.2,6.7,4.7,6.8,7.8-.4,11.7-7.8,4.2-14.9,9.5-22,14.7-19.1,14-34.4,31.9-50,49.4-6.4,7.2-12.1,14.9-15.8,24,7,2.3,7.8,3.7,5.2,10.6-1.9,5-3.5,10.1-4.5,15.3-1.3,6.3-4,12.7-2.3,19.1,1.1,4,.9,7.1-1.4,10.3-.9,1.2-2,2.6-2.1,3.9,0,8.5-4.9,15.4-7.4,23-.8,2.4-2.6,5.2-1.8,7.1,2.6,6.7-1.1,11.9-2.9,17.7-1.2,3.8-3.5,7.4-3.1,12.3,6.2-3.2,9.3.3,11.5,4.9,9.5-2.9,11.3-1.5,11.1,7.9,0,1.7,0,3.4-.4,5-1,5.2-.5,10.3.5,15.4.5,2.4,1.2,4.6,4.6,3.2,3.9-1.5,6,.7,7.1,4.1.8,2.3.7,5,2.4,7,2.6.1,4.3-1.6,6.3-2.8,3.2-1.8,5-.4,6.1,2.6.6,1.6,0,3.3,0,4.9,0,6.8-2.4,13.7-.2,20.6,3.4.3,5.4-1.8,7.6-3.1,6.3-3.7,10.5-1.9,12,5.2.7,3.2.1,7.1,2.3,9.6,4.2,4.7,4.6,10.1,4.7,15.8,0,3.7.8,7.2,3.4,10.7,8.4-5.3,12.8.5,17.3,6.2.3.4.6.8.9,1.2,5.4,6,11.6,10.4,20.2,10.1,4.2-.1,8.4-.2,11.4,3.6.8,1.1,2,.7,3.2.3,7.4-2.7,8.8-2.1,12.3,5.2,1.1,2.2,1.9,4.6,2.5,7,1.4,5.6,2.4,11.2,3.2,17.1,2.1-.9,2.6-2.7,3.1-4.1,1.2-3.4,2.1-7,3.3-10.5.7-1.9,1.9-3.7,4.1-3.9,2-.2,2.9,1.4,3.7,2.9,4.8,9,11.5,17.4,8.8,29.9,1.3-1.5,1.7-1.7,1.9-2.1,3.6-7,5.1-14.4,4.3-22.2-.2-2.1,0-4,2.2-5.2,1.3-.7,2.6-.4,3.7.5,5.9,4.6,11.5,9.4,13.9,17.1,2.3,7.5,5.4,14.7,8.2,22.4,1.7-3,1.6-6.3,5.1-7.6,7.5-2.8,8.9-2.3,13.2,4.7,2,3.3,2.9,7.3,6,10.1,1.8-3.3,1.8-6.5,1.7-9.6-.3-5.1.1-9.6,6.8-9.5,0-2.8,0-6.1-2.6-6.3-7.3-.6-7.4-5.4-7.2-10.7.1-4.4-.3-8.6-4.1-11.9-.7.7-1.2,1.3-1.8,1.9-1.5,1.6-2.8,3.6-5.4,2.5-2.4-1-2.6-3.3-2.7-5.5-.1-2.5-.7-4.9-1.5-7.3-3-9.7-8.8-18.2-11.1-28.4-2.9,3.4-5.6,6.6-8.3,9.7-1.4,1.6-2.4,4.1-5.1,2.8-2.6-1.2-2.2-3.8-1.8-6.2,1.1-8.3,4.4-15.6,9-22.5,4.2-6.2,8.5-12.5,9.3-20.2.3-2.9.6-5.9-1.8-8.3-2.7.6-5.4,2.1-7.7-.3-2.4-2.5-1.4-5.3-.3-7.9,2.9-6.9,3.5-14.1,3.2-21.6-.5-11.7,4-21.8,10.3-31.2,1.6-2.5,3.8-4.6,5.9-6.8,1.4-1.5,3.1-2.2,4.9-.8,2.1,1.7,1,3.6-.3,5.2-.6.8-1.4,1.5-2,2.2-6,7.2-10.3,15.1-11.1,24.6-.7,8.3.2,16.6-2.6,25.6,4.2-1.1,6.8,0,7.1,3.4,1,10.4,3.2,20.9-3.3,30.6-.9,1.4-1.8,2.9-.7,4.6,2,3.3,1.9,7.1,2.1,10.7.3,6.5,2.2,12.4,5.4,18,2.9,5.1,2.9,11.5,10.3,14.4,4.6,1.8,7.7,7.6,9.9,12.8,2,4.7,1,10.9,7.4,13.2.5.2.7,1.1.9,1.7,1.9,4.3,3.2,8.8,3.1,13.5,0,2.9.7,5.5,3.1,7.6,1.8-2.8,2.4-5.5,1.9-8.7-.4-2,0-4.1,2-5.3,2-1.3,3.8-.2,5.6.8,5.7,3.3,10.7,7.4,14,13.2.7,1.2,1.3,2.8,3.2,3,.9-.6.9-1.6,1-2.6.3-2.5-1-5.7,2.5-6.9,3.2-1,4.6,1.9,6.6,3.6,1.2,1,2.2,3,4.2,1.8,5-3,6.9.7,8.9,4.1,1.6,2.7,2.2,5.9,4.9,8,7,5.4,16.5,8.5,17.8,19.2,0,.7.9,1.5,1.6,1.8,6,3.4,7.5,9.2,9.2,15.3,1.7,5.9,3.3,12.6,11.6,13,1.3,0,2.5,1.5,3.6,2.5,3.1,2.7,5,6.3,6.5,10,2,4.7,5.5,6.8,10.4,7.2,2.9.2,5.9.6,7.2,3.6,1.2,3,3.4,3.3,6.1,3.2,2.3-.2,4.6-.7,6.9-.7,4.7,0,9.8-2.5,14.2,0,11.4,6.4,15,6.2,24.8-2.7,2-1.8,4.7-3.9,7.1-1.9,4.1,3.3,7.4,1.5,10.9-.6,6.6-3.9,12.7-8.6,17.2-14.9,9.7-13.5,17.8-27.6,21.4-44.1,1.6-7.2,4.2-8.2,10.7-5.4,3.7,1.6,7.5,3.3,12,1.5-.8-1.3-1.6-2.2-2.1-3.2-1.4-2.8-2.3-5.7.1-8.4,2.3-2.7,5.2-2,7.8-.6,5.9,3.3,11.3,1.4,16.7-1.2,3.8-1.9,7-2.1,8.9,2.4,5.9-2.4,6.3-2.2,8.6,4.4,1.1-.4,2.2-.6,3.2-1.1,7.5-3.1,13-8.5,17.6-15,1.6-2.2,3.5-4.9,6.3-3.9,3.1,1.2,4.3-.5,5.8-2.2,1.7-1.9,3.2-3.8,5.2-6.3Z"/><path d="M459,494.4c1.6,24.8-8.1,44.1-26.8,59.1-1.8,1.5-3.8,2.7-5.8,3.9-10.4,6.3-8.1,3.7-6.7,15.3.7,5.7,5.5,7.9,10.6,5.2,2-1.1,4-1.7,6.2-1.2,9.9,2.3,19.8-.2,29.8,0,6.2.2,8.7,1.2,8,7.4-1.1,10.6-.6,21.3-1.5,31.9-1.8,22.1-11.7,40.2-26.4,56.3-8.7,9.5-20.2,13-32.3,15.5-13,2.7-25.2-.4-37.1-5-11-4.3-17.8-13.5-22.2-23.9-7-16.6-11.5-34-11.9-52.2,0-2.1-1-3.8-2-5.5-2.4-3.8-3.1-8.1-3.5-12.4-.6-7,4.3-11.8,11.2-10.1,7.8,2,15.5-.2,23.3.7,3,.4,5.6-1.9,6.7-5.1,1.1-3.1,2.6-6.1,2.7-9.8-8.8-3.5-17.4-7.6-24.4-14.3-10.5-10-17.5-22.1-21.2-36.1-3.6-13.8,5.2-31.3,19.3-39.6,6.8-4,14.2-5.4,21.9-6.2,3.3-.3,6.6-.7,9.9-1,.4-3.1-1.7-4.9-2.7-7.1-1.1-2.4-2.9-5.2.2-7,3.1-1.8,4.2,1.5,5.7,3.3.4.5.8,1,1.4,1.8,2-3.2-1.2-10.2,5.3-9.1,2.8.5,5.4-1.6,7.9.2,3.1,2.2.6,5.2,1,8,.8-.3,1.3-.3,1.6-.6,1.8-1.7,3.9-3.3,5.9-.7,1.9,2.5-.3,4.4-1.8,6-1.7,1.9-3.7,2.3-5.4-.2-.6-.9-1-1.4-2.3-1.2-4.1.7-6.8,3.9-11.3,4.8,2.4,2.6,4.5,1.9,6.4,1.9,10.3,0,20.6-.7,30.8,2,13.6,3.6,25.6,9,29.4,24.9M456.4,593.4c-2.9,1.1-6.1,1.9-8.8,3.5-2.9,1.6-5.7,2.6-8.3.4-2.4-2-1.2-4.9-.6-7.5.3-1.5,1.9-3.2.3-4.6-1.6-1.4-3.7-1.6-5.6-.4-3.4,2.3-6.8,2.2-10.5.8-2.7-1.1-5.6-.4-8.4-.6-2.7-.2-3.7,1-4.2,3.6-1.4,7.9-3.2,15.6-3.7,23.6-.1,1.9-.6,3.9-2.8,4.1-2.5.2-3.4-1.8-3.6-3.9-.2-1.5-.3-3,0-4.5,1.1-6.9,2.3-13.8,3.5-20.7.3-1.9.8-3.9-1.9-4.2-7.9-.9-15.9-2.5-23.4,1.8-2,1.1-4.2,2.5-6.6,2.1-7.4-1.3-14.9,1.1-22.3-.9-4.2-1.1-5.6.5-4.9,4.8,1.1,6.3,4.3,11.4,9,15.7,5.9,5.4,12.5,10,17.3,16.5,3.5,4.9,7.5,9.4,11.7,13.7,3.3,3.4,7.3,5.5,12.1,4.3,7.1-1.8,14.2-1.6,21.4-1.5,10.4.2,17.6-4.6,21.2-14.2,1.9-5.2,4.9-9.4,9-13,7-6.1,13-12.9,15.4-22.2.5-1.9,2.3-3.9.6-5.6-1.9-1.8-4.3-.9-6.7.3,1.7,2.6,4.6,4.9.9,8.4M433.2,532.7c-2.8-.5-5.5-1.4-8-2.7-4-2.2-6.3-5.4-6.1-10.1.2-4.7,2.5-8.3,6.7-10.4,4.7-2.4,9.9-1,14.5,3.4,2.5,2.3,4.1,5.6,8.1,7,2.6-5.5,3.1-11.3,3.9-17,1.2-7.9-1.7-14.5-7.9-19.4-7.3-5.8-16.3-8.2-25.2-8.4-16.4-.4-32.9-1.2-49.3,1.5-18.8,3.1-34.9,23.9-24.3,44.8,1.7,3.4,3.6,3.6,6.2,1.5,1.9-1.6,3.4-3.6,5.1-5.4,4.7-5,10.2-6.8,14.6-4.9,4.8,2.1,8.1,7.1,7.8,11.7-.3,4.6-3.8,8.8-8.8,10.5-4.7,1.6-9.7,1.4-15.7,2.6,12,14.7,26.2,22.2,44.2,22,15.1-.1,36.9-13.8,41.8-26.1-2.2-1.1-4.6-.2-7.6-.8M391.6,659c2,.9,4,1.3,6.3,1.4,8.8.2,17.7,1.8,25.9-3.1.3-.2.7-.2,1-.2,9.7.8,14.8-6.2,15.4-15.1.4-4.8,2-9,5-12.8,1.7-2.1,3.6-4.3,3.3-8-3.3,1.8-4.1,4.7-5.2,7.4-5.5,12.9-14.4,18.8-28.4,18.4-6.2-.1-12.3,0-18.4,1.3-4.6,1-8.9,0-13-2.2-6.1-3.2-9.7-8.9-14.1-13.9-2.5-2.9-4.3-6.5-8.3-9,0,4.3,2.2,6.8,4.3,9.3,2.9,3.5,5.2,7.2,5.4,12,.3,7,2.2,8.9,9.3,9.9,4,.6,7.9,1.4,11.6,4.6Z"/><path d="M324.9,350.4c1.4,5.3-.9,9.3-3.7,12.8-12.9,16.5-40.4,17.2-54.2,1.5-6.4-7.2-6.1-15.5-3.3-24,6.5-19.8,27.4-26.9,44.7-15.5,6.6,4.3,10.9,10.1,13.7,17.3,1,2.5,1.8,5,2.8,7.9M291.4,334c-3.1-.2-5.6.8-7.8,4,3.2.5,5.7,2.6,8.4.7,1.5-1.1,1.3-2.9-.6-4.7Z"/><path d="M505.6,375.7c-1.9-.8-3.4-1.4-4.9-2.2-12.1-6-15.5-13.5-11.9-26.5,2.6-9.3,7.6-16.8,16.2-21.9,16.8-10,35.4-2,42.5,15.6,8.3,20.4-7.5,32.8-24.3,36.2-5.8,1.2-11.6.5-17.6-1.2M522.9,335.6c-1.5-.6-3-1.4-5-.4-.4,1.6-1.1,3.7.8,4.7,2.7,1.4,5.3-.3,7.7-1.3-.3-2-1.9-2-3.6-2.9Z"/><path d="M568.2,274.8c6.1,4.1,11.8,8.1,16.3,13.6,2.4,2.8,4.2,6,2.3,9.5-1.7,3.4-5.3,2.7-8.5,2.9-1.4,0-2.9-.9-4.8.6,2,1.7,3.9,3.1,5.7,4.8,2.3,2.2,4.6,4.4,6.5,6.9,2,2.5,4,5.3,2,8.7-2,3.4-5.2,2.1-8.1,1.4-4.3-1.1-8.7-2.2-12.9-3.8-2.2-.8-5-2.2-3.6-5.5,1.3-2.9,3.8-1.9,6.1-1.2,2.2.7,4.2,1.9,7.1,1.6-2.1-3.7-5.4-5.4-8.4-7.4-1.5-1-3.2-1.8-4.7-2.8-2.5-1.6-5.6-3.2-4.6-6.9,1.1-4,4.8-4.2,8.1-4.3,3.5-.1,7.1,1.5,11.1-.3-2.3-4.4-6.3-6.6-9.9-9.1-5.4-3.7-10.3-7.9-14.3-13.1-1.7-2.1-3.2-4.5-1.9-7.3,1.3-3,4.2-3.4,7.2-3.4,14.2-.1,28.2,1.5,42,5.1,2.2.6,4.4,1.2,7.5.5-4.5-2.9-8.8-4-13.1-5-8.4-1.9-16-5.6-22.9-10.7-1.6-1.2-3-2.6-3.9-4.5-1.1-2.3-1.3-4.5.5-6.5,1.7-1.9,3.8-1.8,6-.8,7.1,3.2,14.5,5,22.2,5.4,4.9.3,9.5-.8,15.2-3.6-12.2-5.7-18.2-16.4-26.6-24.8-5-5-11.1-7.9-18.6-5.9-2.1.6-4.7.5-5.4-2.2-.7-3.1,1.9-4,4.2-4.5,10.5-2.3,18.9,2,26,9.3,2.8,2.8,5.3,6,7.7,9.2,4.4,5.6,10,9.7,16,13.3,2.6,1.6,5.4,3.4,4.8,6.9-.5,3.3-3.5,4.5-6.3,5.9-8.5,4.2-17.3,4-26.4,2.8,2.8,2.2,7.2,3.9,12.8,5.1,7.8,1.6,14.4,5,18.5,12.3,1.2,2.1,1.9,4.4.4,6.6-1.6,2.3-4,1.7-6.4,1.2-16.1-3.5-32.1-7.6-48.7-7.3-.8,0-1.6,0-2.8.2,1,3.6,4,5,6.3,7.5Z"/><path d="M247.6,203.9c2.9-1.7,5.7-3,8.6-3.5,2.1-.4,4.2,0,4.9,2.3.7,2.4-.7,3.8-3,4.3-9,2.2-15.6,7.7-21.7,14.4-4.2,4.7-8.8,9.1-14.8,11.9,1,.8,1.8,0,2.5-.2,2-.7,3.6-.2,4.9,1.4,1.5,1.8,1.3,3.8,0,5.5-2.4,3.1-3.6,6.7-4.4,10.5-2.1,9.9-9.1,16.4-15.8,23.1-2.6,2.6-5.5,4.8-7.9,8.8,4.3-.9,6.8-3.2,9.6-5,2.1-1.3,4.3-3.1,6.8-1.1,2.6,2,1.5,4.5.6,6.8-1.4,3.7-1.8,7.5-1.6,11.3,1,16.8-1.5,32.9-9.2,48-.3.6-.3,1.2-.5,1.8,1.5,1.2,2.2-.2,3.2-.6,3.2-1.4,5.9-.1,6.1,2.8.6,6.2,4.2,12.1,2,18.4.5.4.7.8,1,.8,2.4,0,5.1-.2,5.5,3,.4,3.2-2.4,4.1-4.8,4.8-5.7,1.7-10-2.3-9-8.1.4-2.1.8-4.3.5-6.4-.5-3.7-1.2-6.7-6.5-5.2-4.9,1.3-8-2.5-6.4-7.6,1.4-4.6,3.6-8.9,5.6-13.4,6.3-14.2,5.7-29,5-44.3-5.9.8-10.3,4.4-15.6,4.9-2.2.2-4.5,1.1-5.8-1.3-1.2-2.2,0-4.1,1.3-6,6.5-9.1,14.7-16.8,22.4-24.8,4.7-4.8,7.1-10.7,7.6-17.8-5.1-.2-9.9,1.6-14.9.7-2.5-.5-5.3-.6-5.9-3.6-.7-3.2,1.9-4.5,4.2-5.4,14.2-5.7,26.4-14,36.6-25.4,2.3-2.6,5.4-4.4,9-5.9Z"/><path d="M333.7,166.7c13.6-4.1,23.8,2.3,33.6,10,2.1-2,1.7-4.2,1.8-6.3.1-2.6,1-4.6,3.6-5.4,2.7-.8,4.4.9,5.8,2.8,1.4,2,2.8,4.1,4.1,6.1,2.5-.6,2.9-2.5,3.7-4.1,2.4-4.9,4.3-10.2,7.9-14.4,2.3-2.7,5.3-5.2,9-3.9,3.6,1.3,4.1,4.9,4.3,8.3.5,7.5-.6,14.9-1,22.7,2.4-.2,3.3-2,4.5-3.2,5.6-5.7,11.1-11.5,18-15.8,1.4-.9,2.8-1.7,4.3-2.5,2-1.1,4.1-1.5,6,.3,1.8,1.7,1.9,3.9,1,6-2.1,4.7-4.5,9.3-6.7,13.9-3.8,8-7.5,16-11.2,24-1,2.2-2.1,4.7-5,3.5-3-1.2-2.7-4-1.6-6.4,3.5-7.7,7.2-15.4,10.8-23,.8-1.7,2.2-3.3,1.8-6.2-6.9,5.1-12.2,11.1-17.5,17.2-1.1,1.3-2.1,2.6-3.2,3.8-1.6,1.6-3,4-5.8,2.9-3.1-1.2-3.1-4-2.9-6.8.6-7.8,1.2-15.6,1.7-23.4.1-2.1.8-4.2-.7-6.9-3.5,3.8-5.1,8.3-7.2,12.4-1.4,2.8-2.3,5.9-3.7,8.7-2.9,5.9-6.7,6.1-10.2.7-.8-1.2-1.5-2.5-2.2-3.8-.5.3-.8.4-1,.6-3.7,5.9-1.1,10,3.5,14.2,4.2,3.9,6.7,9.1,8.1,14.7.6,2.3,1,5-2,5.9-2.9.8-3.5-1.7-4.3-3.7-6.7-17.2-20-26.8-37-32.1-2.8-.9-5.9-1.3-8.7-2.1-2.1-.6-4.2-1.5-4.7-4-.5-2.4,1.2-3.6,3.3-4.9Z"/><path d="M688.2,282.8c7,9.3,13.6,18.5,15.7,30.1.9,5.3.8,10.6.1,15.9-.3,2.7-1.1,5.5-4.2,6.2-3.1.7-4.8-1.6-6.2-4-3.9-6.6-8-13-12.9-18.9-3.5-4.2-7.6-7.8-13.4-9.9,0,5.3-.5,10.2-4,14.2-1.9,2.2-4,4.2-7.2,3.4-3-.8-4.1-3.4-4.3-6.1-.9-13.5-7.7-23.4-18.8-30.7-1.6-1.1-3.1-2.5-1.6-4.5,1.7-2.4,4-1.9,6.1-.4,11.2,7.9,19.1,17.9,20.6,32.1,2.5-3,2.6-5.3.9-10.3-.8-2.3-2.6-4.6,0-6.8,2.4-2.1,4.7-.3,7,.6,12.3,4.6,20.7,13.5,27.6,24.3.7,1.1,1.4,2.3,2.2,3.3.3.4.7.7,1.5,1.4,1.4-2.9,1-5.6.3-8.3-3.5-13.5-11.8-24.1-20.4-34.5-2.2-2.7-4.6-5.3-6.8-7.9-1.7-2-2.9-4.3-1.8-6.9,1.2-2.8,4-3.4,6.8-3.3,5.6.2,11,1.4,15.9,4,4.7,2.5,8.9,3.9,13.7-.4-2.7-6.6-8.1-11.6-13.3-16.6-5.4-5.2-11.6-9.5-18.6-12.4-2.4-1-4.5-2.3-3-5.2,1.3-2.6,3.7-2.4,6.1-1.2,14.8,7.4,26.8,17.9,35.3,32.2,3.4,5.7,1.8,9.7-4,12.1-.3.1-.8.1-.9.3-4.2,6.8-8.3,2.8-12.8.2-4.6-2.6-9.3-4.9-15.3-4.8,3.3,4.2,6.7,8.4,10.2,13Z"/><path d="M120.4,413.8c-5.3,11.1-10.6,21.8-17.9,31.3,6.3,4.9,6.2,4.8,12.2.6,10.3-7.2,18.6-15.8,24.2-27.3,5.7-11.6,14.6-21,23.5-30.3,1.4-1.4,2.7-3.3,5.1-1.8,2,1.3,2.1,3.3,1.6,5.4-1.7,7.4-3.5,14.8-5.3,22.3,2.6-1.4,4.1-4,6.1-5.9,1.3-1.2,2.7-2.2,4.4-1,1.8,1.3,2.1,3.2.8,4.8-4.2,5.4-8.7,10.7-15.3,13.2-4.4,1.6-7.1-1.1-6.1-5.8,1.2-5.2,4.4-9.6,5.1-16.2-6.1,5.4-10.3,11.2-13.1,17.5-8.6,19.3-25.5,29.8-41.7,41.1-3.4,2.4-6,1.5-7.6-2.5-4.1,1.5-7.7,3.7-12,3.7-2.4,0-4.8-.2-6-2.7-1.3-2.7.6-4.4,2.4-5.9,2.5-2,5-3.9,7.5-5.8,12.1-9.1,18-22.4,24.6-35.3,5.2-10.2,8.5-21.3,14.7-31.2,3.4-5.5,7.3-10.7,11.5-15.7,1.4-1.6,3.2-2.8,5.2-1,1.7,1.5,1.2,3.4,0,4.9-11.2,12.6-16.9,28.1-23.8,43.5Z"/><path d="M629.3,433c2.9-3.2,5.3-1.5,7.6.3,6.2,4.8,11.6,10.5,16.1,17.8,2-3.7,4.9-5.1,9.8-3.7-4.7-9.5-9.8-17.6-15.6-25.1-3.6-4.6-7.3-9.1-10.8-13.7-1.6-2.1-3.7-4.6-.6-6.9,2.9-2.1,4.5.6,6.1,2.5,10.1,12.4,19.7,25.2,27.1,39.4,1.9,3.7,3.6,7.5,4.7,11.5.5,2.1.4,4.1-1.6,5.3-1.9,1.1-3.5,0-5-1.1-1.4-1-2.3-2.9-5.1-2.7,2.2,7.9,5.3,15.1,9.4,21.9,1.6,2.7,5.2,5.6,1.7,8.7-3.6,3.3-6.4-.5-9-2.5-6.8-5.1-10.4-12.4-13.3-20.1-2.6-7.1-5.4-14-11-19.4-.7-.7-1.2-1.6-2.6-1.5-.1.2-.5.4-.5.7-.7,3.8-1.3,8-5.9,8.9-4.2.9-5.6-3.1-7.2-5.8-8-13.8-19-24.7-32.1-33.6-7.6-5.2-12.3-13-16-21.3-1.1-2.4-1.7-5.1-1.5-7.8,0-1.8.8-3.4,2.7-3.7,2-.3,3.1,1.1,3.5,2.8,2.7,12.7,10.5,21.4,21,28.5,11.2,7.5,20,17.4,27.2,30.2,1.2-3.8-.7-6.6,1-9.4Z"/><path d="M76.4,313.8c4.7-6.7,9.8-12.7,11.5-21.8-2.7,1.3-4.6,2.3-6.6,3.3-3.5,1.7-7.1,2.8-11.1,2.5-1.8-.1-3.3-.8-3.9-2.6-.7-1.8.3-3.2,1.5-4.4.2-.2.5-.5.8-.6,18.1-7.9,28.2-24,39.2-38.9,14.3-19.4,33-32.1,55.9-39.1,1.4-.4,2.9-.8,4.4-1.1,2.5-.5,5-.1,5.6,2.7.6,2.8-1.8,3.6-4,4-8.1,1.5-15.5,5-22.8,8.6-14,6.9-24.6,17.6-34,29.6-5.6,7.2-10.5,15-16.8,21.7-.7.7-1.6,1.6-1.2,2.6,4.3,12-2.4,21.1-7.9,30.5-2.4,4.1-5.5,7.9-8.7,12.4,3.4.7,6.1-.5,8.7-1.6,6.8-3,10-.7,9.5,6.9-.2,2.3-1.2,4.5-.6,6.7,1.2,1.4,2.7.6,3.9,1.1,1.2.5,2,1.2,2.2,2.5.3,1.5-.4,2.7-1.7,3.3-3,1.4-6.2,2.7-9.5,2.8-3.6.1-5.1-2.3-4-6.1.9-3,2.3-5.8,2-9-2.2-1.1-3.8.3-5.5.6-2.1.4-4.3,1.4-6.3,1.1-3.1-.4-7.1,1-8.9-2.9-1.6-3.6,1.3-5.8,3.3-8.2,1.7-2.1,3.4-4.1,5.3-6.5Z"/><path d="M365.7,123.3c-8.9-11.5-20.5-17.2-34.5-18.4-5.6-.5-11.2-1.2-17.2-1.8,2.2,2.9,5.2,4.5,8,6.4,2,1.4,4.6,2.7,4.1,5.7-.5,3.2-3.3,4-6,4.4-2.3.4-4.6.8-6.5,2.4-7,5.8-15.1,8.9-24,10.1.1.5,0,1,.3,1.1,8.1,4.1,5.7,8.1-.6,11.3-6.7,3.5-14,5.1-22,6.4,3.4,3.6,7.9,4.2,11.5,6.3,1.4.9,3,1.5,4.3,2.5,1.3,1,1.7,2.5,1,4-.8,1.5-2.2,2.2-3.8,1.6-8.5-3.4-17.3-6.3-23.5-13.6-3.2-3.7-2-6.8,3-7.8,5.9-1.1,12-.3,17.8-2.4,2-.7,4.3-.9,6-3.1-2.1-1.3-4.2-2.6-6.2-3.9-2.2-1.4-4.1-3.1-3.3-6.1.8-2.9,3.4-3.4,6-3.3,6.9.1,13.6-.5,20.1-3.2,5.1-2.1,9.3-5.7,14.7-9-3.5-3.3-6.6-6-9.4-9-2.1-2.3-4.5-5-2.4-8.4,2-3.2,5.2-2.3,8.1-1.5,8.4,2.4,17,3.2,25.6,4.3,14.5,1.8,25.7,9.4,34.4,20.9,1.4,1.8,3.4,4,.9,6.1-2.8,2.4-4.4-.4-6.3-2.4Z"/><path d="M459.2,95.7c5.2-1.9,9.8-4.4,14.1-7.2,2.6-1.7,5.2-3.4,8.3-1.6,3.1,1.8,3.7,5,3.8,8.2,0,1.2,0,2.4-.2,3.5-.7,3.2.8,4.2,3.8,4.1,2.8,0,5.7-.2,8.5,0,6.8.6,10.8,5.8,9.7,12.5-.9,5.5-3.3,10.5-5.6,15.4-1,2.2-2.9,4.1-5.6,2.6-2.5-1.4-1.6-3.6-.7-5.7,1.4-3.2,2.8-6.4,3.8-9.7,2.1-6.4,1-7.9-5.6-7.9-2.3,0-4.7,0-7,0-6.5-.3-8.5-2.4-8.6-9,0-1.9.7-3.9-.6-5.9-5.4,2.5-10.8,5.1-16.2,7.5-1.7.7-3.4,1.3-5.2,1.8-5.9,1.5-8.5-.5-8.8-6.5-.2-3.5.4-7-.6-10.4-.6-2.2-1.3-4.4-3.2-5.8-2.1.6-2.2,2.3-2.7,3.6-4.6,11.4-11.3,21.5-18.9,31-5.1,6.3-8.7,13-7.2,21.5.3,1.9-.3,3.5-2.3,3.8-2.6.4-4.1-1.3-4.7-3.6-1.4-4.9,0-9.6,1.7-14.1,1.2-3.2,2.9-6.5,5.1-9.1,9.5-11.7,16.9-24.7,22.7-38.6,2.7-6.5,6.1-6.8,10.5-1.4,4.4,5.4,7,11.3,7,18.3,0,3.3,1.4,4.2,4.7,2.8Z"/><path d="M547.4,488.3c2.3,1.6,4.3,3.1,6.9,5-2.7-12-4.6-23.4-16.6-29.5-3.1-1.6-6-3.7-8.3-6.3-4.8-5.4-3.9-9.5,2.7-12.3.6-.2,1.2-.5,2.5-1.2-6.1-3.4-12.2-5.6-16.9-9.9-1-.9-2.2-1.5-3.1-2.5-6-6.3-12.9-7-20.5-3.5-1.2.6-2.4,1.1-3.7,1.4-1.8.4-3.4-.2-4.1-2-.7-1.9.2-3.3,1.8-4.1,9-4.4,18.9-7.3,28.4,1,5.4,4.7,11.4,8.5,18,11.4,2.4,1,4.8,2.4,6.9,4,4.2,3.2,3.7,8-.9,10.5-1.6.9-3.4,1.4-5.4,2.2,1.1,2.3,3.2,3.4,5.1,4.6,9.1,5.4,15.7,12.4,18.1,23.3,1.5,6.6,4.5,12.8,6.8,19.3,1.1,3,2.8,6.2-.6,8.6-3.5,2.4-6-.4-8-2.7-2.3-2.6-4.3-5.5-7.3-7.5,0,4.7,2.9,7.8,3.4,11.9.4,3.4,2.2,7.2-2.6,8.9-2.3.8-7.1-3.8-6.5-7.5.9-6-2.3-10.1-4.5-14.8-1.2-2.7-1.9-5.6.3-8,2.3-2.5,5.1-1.9,8.1-.2Z"/><path d="M411.3,332c-.9,2.4-2.1,4-4.6,3.3-2.4-.7-2.5-2.7-2.6-4.8-.1-2.4.5-5-.7-7.4-2.3.3-2.7,2.3-3.8,3.6-4.6,5.3-9,4.7-11.7-1.7-2-4.8-3.7-9.6-6.6-14-.5-.7-.9-1.4-2.2-1.3-2.9,6.2-.7,11.8,2.6,17.2,3.7,6.1,8.1,11.9,9.6,19,1.6,7.5.2,10.4-6.5,13.4,1.1,3.1,2.6,6.1,2.7,9.5,0,2.2,0,4.6-2.9,4.9-2.5.3-3.8-1.5-4-3.6-.7-7.9-6.2-11.7-12.4-15.1-1.3-.7-2.7-1.3-4-2.1-1.5-.9-2.7-2.2-2.5-4,.2-2,1.7-3.2,3.6-3.7,3.6-1.1,7.2-1.4,10.8-.3,2,.7,4.1,1.3,6.7,2.2.2-5.8-3.1-9.9-5.8-13.7-5-6.9-6.8-14.3-6-22.6.5-4.5.7-9,1.1-13.4.2-2.1,1-4.1,3.2-4.5,2.2-.5,3.1,1.4,4.2,2.9,5.4,7.7,11.6,14.8,14.1,24.1,3.4-.8,3.9-3.4,5-5.2,1.4-2.2,2.7-4.4,5.6-4.2,3.1.2,4.6,2.7,5.4,5.2,1.7,5.1,2.1,10.4,1.6,16.2Z"/><path d="M683.2,394.8c-16.3-12.9-33.3-24.5-46.3-40.7-6.6-8.3-12.7-17.1-17.4-26.7-.7-1.3-1.1-2.8-1.6-4.2-.8-2.1-.9-4.1,1.3-5.2,2.4-1.1,3.5.7,4.4,2.7,5.6,11.8,13.1,22.4,21.4,32.4,8.7,10.4,19.9,18.1,30.2,26.8,8.4,7,17.9,12.8,26.4,21.6-1.4-6.5.4-9.8,6.4-10.2,2.5-.1,2-2.2,1.5-3.9-1.2-3.5-2.5-6.9-3.8-10.3-.9-2.5-1.7-5.2,1.4-6.4,3-1.2,4.1,1.5,4.9,3.6,2,5.3,4,10.6,5.6,16,2.1,7.1,0,9.9-7.5,10.3,1.8,5.2,3.5,10.5,2.9,16-.3,2.6-.2,5.8-3.6,6.4-3.4.6-4.4-2.4-5.4-4.8-4.2-10.1-12-17-20.9-23.4Z"/><path d="M462.2,341.9c-2.5,0-4.5.1-6.5,0-5.5-.1-7-2.9-4.3-7.8,2-3.6,4.8-6.7,5.5-12.5-7.6,7.7-17.9,10.6-20.9,21.2-.5,1.9-2.1,3.2-4.3,2.3-2-.8-2.5-2.6-2.1-4.6,1.2-5.8,4.4-10.5,9.1-13.8,6.1-4.3,11.9-9,17-14.6,1.8-2,3.9-3.9,6.9-2.7,3.1,1.2,2.9,4.1,3,6.8.4,6-2.5,11.2-4.6,16.7,4.4,2.8,7.8.9,11-1.1,2.6-1.6,5.1-3.9,8.1-1.6,3.3,2.4,2.3,5.9,1.4,9.2-1.4,5.3-3.5,10.4-6.3,15.2-1.9,3.3-2.2,6.3.3,9.7,1.6,2.2,2.5,5.1,3.4,7.7.7,2.1.2,4.1-2,5-2.5,1.1-3.7-.5-4.5-2.6-1.4-3.6-3.3-6.8-5.5-10-2.9-4.1-.6-8,1-11.8,1.5-3.6,4.5-6.6,4.5-10.8-3.5,0-6.7,0-10.5,0Z"/><path d="M164.6,522.3c-2.6,2.6-5,4.9-7.4,7.2-1.4,1.3-2.8,2.7-4.8,1.4-2.1-1.4-2.4-3.4-1.4-5.7,1.8-4.4,4.7-8.1,7.9-11.5,12.4-13.2,19.5-29.2,24.1-46.5.6-2.2,1.1-4.5,1.9-6.7.7-1.8,1.7-4.1,4.1-3.5,2.8.7,2.6,3.2,2.1,5.4-1.6,6.1-3.1,12.3-5.2,18.2-2.4,6.7-5.1,13.4-8.7,19.6-1.3,2.3-1.6,4.2-.6,6.9,1.8,4.9-.3,9.8-1.5,14.6-.3,1.3-.8,2.5-1.4,4.2,3.7-.7,5.9-3,8.4-4.6,2-1.3,4.3-2.6,6.2,0,1.9,2.6,0,4.4-2,5.7-5.7,3.8-11,8.1-17.2,11-2.3,1.1-4.8,2.1-6.9-.2-2-2.1,0-4.1.9-5.9,1.9-3.8,4.6-7.3,4.7-11.8-1.7,0-2.1,1.3-3.2,2.2Z"/><path d="M555.8,579.2c1.6-4.1,4.5-5.6,8.1-4.4,3.3,1,5.1.1,6.2-2.9.1-.3.2-.6.4-.9,1.5-2.1,2.6-5.5,5.9-3.6,3.1,1.8,1.4,4.7.2,7.1-.6,1.4-1.4,2.6-2.1,4q-3.8,7.6-11.8,4.1c-1.4,3.1-2.7,6.3-4.3,9.4-1.4,2.8-3.1,6.2-6.8,5.7-4.1-.5-4.5-4.6-4.9-7.8-.6-4.9-1.9-9.4-3.8-13.9-1.3-3.3-3-6.3-6.4-8.3-1.8,1.4-1.7,3.5-2.1,5.3-.7,3.1-2.2,5.9-5.5,6.3-3.1.4-4.8-1.9-6-4.4-4.7-9.7-12.4-13.8-23.1-12.8-2.4.2-5.1.4-5.6-2.7-.5-3.4,2.6-3.4,4.7-3.8,9.2-1.9,17,1.3,23.8,7.3,1.7,1.5,3.1,3.4,4.7,5.2,1.4-1.5.5-3.3.8-4.8.3-2.3.4-4.8,3-5.9,2.3-1,4.1.4,6,1.5,8.5,5.2,12.5,13.5,15.2,22.6.2.8.4,1.6.8,2.9,1.8-1.6,1.7-3.5,2.5-5.4Z"/><path d="M157.6,325.7c4.1-12.3,4.9-24.7,6.6-37.1,1.7-12.3,9.6-20.9,19.4-27.9,3.4-2.4,6.8-4.9,10.9-6,2.2-.6,4.6-.6,5.5,2,1,2.7-1.3,3.4-3.1,4.2-5.9,2.5-10.9,6.3-15.6,10.6-5.4,4.9-8.5,11-9.8,18.1-1.8,9.9-1.6,20.2-5.1,30.2,2.8.4,4.2-1.2,5.7-2.2,4.5-3.1,8.2-1.8,9.8,3.6.9,3.1.7,6.3,0,9.4-.3,1.4-1,2.8-.5,4.4,1.6,1.2,3.2-.2,4.8.1,1.7.4,3.4.9,3.7,2.8.3,2-1,3.3-2.6,3.8-3.3,1.2-6.8,2.1-10.2,1.9-3.8-.2-5.4-2.6-4.8-6.6.6-3.7,2.8-7.1,2.3-11.5-3.6,1.4-6.8,3-10.2,4-3.1.9-6.1.8-6.9-3.8Z"/><path d="M319.8,261c-2.5,1.9-4.3.2-6.1-1.3-6-4.8-12-9.5-19.1-12.6-3-1.3-6-2.5-9.7-1.7.9,3.8,3.8,5.6,5.5,8.2,2.2,3.4,4.6,6.9,2.4,11.1-2.4,4.4-6.8,3.3-10.7,3.1-.8,0-1.5-.2-3.4-.4,4,3.3,7.2,5.8,10.3,8.5,4.7,4,8.6,8.8,11.4,14.4,1.3,2.6,2,5.4-1.2,6.9-2.9,1.4-4.2-1.2-5.1-3.3-3.8-9.1-11.4-14.5-19.2-19.6-3.4-2.3-8.3-4.2-6.9-9.1,1.5-5.1,6.8-5.1,11.4-5.2,2,0,3.9,0,6.2,0-1.8-4.1-5.1-7-7.6-10.4-4.1-5.6-2.9-8.9,3.8-11,6.2-1.9,12,0,17.3,2.7,7.1,3.6,13.7,8.1,19.8,13.4,1.5,1.3,2.5,2.7,2.3,5.2-.5.8-.8,1.1-1.1,1.3Z"/><path d="M602.4,461.8c3.2,3,1.3,6.9,2.9,10.4,2.2,4.8,7,8.5,6.6,14.5-.1,1.7.5,3.3-1.3,4.3-1.8,1-3.2.2-4.5-1-2.9-2.6-8.5-3.8-5.6-9.8-4.1-2.7-3.6-8.5-7.5-11.3-2.4-1.7-3.1-3.6-3.3-6.9-.2-3.3.3-8-4.1-10.5-3.2-1.8-3.2-4.5-.3-6.6-.9-2.1-2.7-2.6-3.9-3.7-.8-.8-2.3-1.6-2.3-2.5-.4-8-6-11.8-12.1-15.3-1.4-.8-2.2-2.1-1.6-3.8.7-1.9,2.3-2.6,4-2,6.2,1.9,12.2,4.8,17.1,8.9,3.2,2.7,4.3,7.3,2.7,11.7,2.3,2.1,4.6,4.1,6.7,6.2,1.6,1.5,2.1,3.4,2.5,5.7.7,3.8,2.4,7.5,3.9,11.5Z"/><path d="M295.7,393c-1.8.7-3.3,1.1-3,3.1.3,2,1.9,2.7,3.5,3.1,4.1,1,8,2.2,11.5,4.6,1.7,1.2,3.4,2.5,2.3,4.9-1.1,2.4-3.6,2.8-5.6,1.5-6.2-3.9-14-3.6-20-8.6-2.8-2.3-8.3-1.3-12.6-1.7-4.3-.4-8.1-1.9-10.9-5.3-1.5-1.9-2.3-4.2-.8-6.5,1.3-2.1,3.7-2.5,5.8-1.7,11.2,4.5,22,1,32.7-2,10.3-2.8,20.1-1.4,29.6,2.9,1.2.5,2.3,1.3,3.2,2.3,1.1,1.1,1.7,2.6.8,4.1-1,1.7-2.8,1.9-4.4,1-3.6-1.8-7.5-2.6-11.3-3.8-7.1-2.2-13.8,0-20.9,2Z"/><path d="M485.4,271.8c-4.6,1.9-8.2,4.4-10.5,8.6-.9,1.8-2.3,3.1-4.4,1.6-1.9-1.3-2.4-3.1-1.4-5.3,2.4-5.1,6.8-8.2,11.6-10.5,5.5-2.7,11.3-4.7,17.4-5.8,8.5-1.5,16.7-4.2,24.7-7.8,6.9-3.1,9.9-1,9.9,6.5,0,6.3-3.1,11.4-6.1,16.9,2.3,1.9,4.6,3.6,6.5,5.5,4.9,4.8,4.7,11.7-.3,15.7-1.7,1.3-3.5,2.2-5.4.6-2-1.7-1.4-3.5.2-5.2,2.8-3.2,1.6-5.8-1.5-7.9-.9-.7-2-1.2-2.9-1.9-5.3-3.7-5.9-6.8-2.3-12.1,2.1-3.1,4.7-6,3.5-10.8-7.6,3-15.2,5.2-22.9,7.3-5.3,1.4-10.9,1.4-16.1,4.5Z"/><path d="M373.1,436.3c-.9,2.5-1.1,5.6-4.3,4.8-3.2-.8-2.8-3.7-2.1-6.2.6-2.3.4-4.6.3-6.9-.3-5.6,2.1-7.4,7.3-5.4,6.4,2.4,6.4,2.4,9.2-3.6,1.4-3,2.6-6.1,4-9.1,2.1-4.6,5.5-5.5,9.5-2.5.3.2.6.4.7.7,3.1,7.3,11.6,10.5,13.8,18.4.8,2.6,2.5,2,4.4,1.6,9.5-1.9,15.2,3.5,14,13.3-.2,1.9-1.2,3.1-3.1,3.4-1.8.3-3.2-.8-3.3-2.3-.6-7.2-4.1-8.5-10.6-6.4-4.8,1.6-7.5-1.6-8.3-6.2-.5-2.7-1.3-4.6-4.3-5.3-2.3-.5-3.2-2.7-4-4.8-.6-1.5-.6-3.3-2.9-4.1-2.1,3.9-4.2,7.8-6.4,11.6-4.1,6.8-5.8,7.4-12.6,4.5-1.3,1.1-.6,2.8-1.3,4.5Z"/><path d="M290.9,568c-1.9-1.1-3.6-1.9-4.8-3.2-2.4-2.6-4.3-3.8-8-1.6-3.5,2.2-7-.9-7.7-6.3-.4-2.8-.6-5.6-1.5-8.3-1.4-4-2.9-4.4-5.8-1.4-.8.8-1.5,1.8-2.5,2.4-2.1,1.2-4.3,3-6.9,1.5-2.8-1.6-2.7-4.4-2.2-7.1,1-4.8.8-9.6.5-14.5-.4-9,3.9-16,9.1-22.6,1.5-2,3.8-3.2,6-1.3,2.3,1.9.8,4-.7,5.6-7.3,8-8.6,17.7-7.5,28.5,2.1-1.4,2.7-3.5,4-5.1,2.8-3.5,5.5-3.2,7,.9,2.4,6.2,7.9,10.9,7.3,17.9,3.1.6,5.5-1.5,7.5.3,3.6,3.2,7.5,6.2,10.2,10.1,1.8,2.6-.3,4.6-4,4.3Z"/><path d="M275.1,423.4c-4.3.8-7.2,3.3-10.5,5.4-3.2,2-6.6,3.7-9.9,5.5,7,3.9,7.5,5.5,3.5,12.5-3.7,6.3-2.6,14-6.1,20.4-.8,1.4,1.4,2.4,2.4,3.5,1.3,1.4,2.3,3.1.9,4.9-1.5,1.9-3.4,1.6-5.3.5-5.9-3.2-7.3-5.6-4.4-11.6,3.3-6.8,1.6-15,6.7-21.3-2.5-1.7-4.7-2.8-6.5-4.4-4-3.8-3.2-8.3,1.9-10.1,7-2.4,13.4-5.7,19.6-9.6,4.9-3,10.4-4.5,16.2-2.9,2.3.6,4.8,1.6,4.3,4.6-.5,3.2-3,2.9-5.5,2.4-2.3-.4-4.6-.4-7.3.3Z"/><path d="M588.6,182.2c3.5-5.6,3.5-6.1-2-8.9-3.8-1.9-4.9-5.1-5.2-8.8-.7-.2-1.2-.5-1.7-.5-11.8.4-23.6-.4-35.4-1.1-5-.3-10,0-13.8,4.3-1.3,1.4-3,1.5-4.4,0-1.5-1.6-1.3-3.4,0-5,3.7-4.4,8.8-6.4,14.1-6.5,14.9,0,29.9.5,44.8,1,4,.1,6.3,2.5,5.1,6.7-.8,2.6.5,3.6,2.4,4.6,9,4.8,6.6,13.6.3,19.3-1.3,1.2-3,1.6-4.5.3-1.9-1.7-1.3-3.5,0-5.7Z"/><path d="M511.8,222.4c-1.2.9-2.2,1.6-3.1,2.3-3.2,2.6-5.7,2.4-7.2-1.8-2.7.5-3.6,2.9-5.3,4.4-1.5,1.3-3.1,2.2-4.9.8-1.8-1.4-1.4-3.3-.3-4.9,3.2-4.6,7.2-8.3,11.8-11.3,3.6-2.3,5.5-.4,6.1,3.4,5.1-.5,9.6-9.8,15.6-.8,4.8.5,10.3-9,15.5,1,6.7-3.6,12.4,1.4,18.7,2.8,1.7.4,3,1.8,2.6,3.7-.4,1.9-2.1,2.8-3.8,2.4-3.9-1-8.1,1.2-11.9-2.1-1.8-1.6-4.8.2-7.2.8-3.4.7-6.8,1.8-8.1-3.3-2.6,1.4-4.7,2.5-6.7,3.5-5,2.7-6.1,2.1-6.7-3.7-2,0-3.1,1.7-5,2.8Z"/><path d="M42.2,297.3c-.5-2.6.9-3.9,2.5-4.7,3.9-2,5.5-6.2,8.9-8.6,1.6-1.1.7-2.7.9-4.1.3-2.4,2.6-3.2,4-4.8,3.9-4.3,7.4-8.7,12-12.7,5.2-4.5,8.7-11.1,15.6-14,.8-.3,1.9-.7,2.1-1.3,2.1-6.4,8.1-6.1,12.9-7.9,2.1-.8,4.1-.7,5,1.6.9,2.4-.8,3.9-2.8,4.5-2.9.9-6,1.2-5.6,5.4,0,.4-.6,1.1-.9,1.1-7.1-.2-9.6,7.2-15.2,9.3-2,.7-4.3,1.4-3.6,4.4,0,.4-.2,1.3-.5,1.3-6.7,1.4-7.2,9.2-12.6,11.9-2.2,1.1-3.4,2.5-3.5,5.3-.2,4.8-12.1,15-16.9,15.1-1.1,0-1.8-.7-2.4-2Z"/><path d="M514.1,384.6c3.9.8,7.3.7,10.8.3,2.7-.3,5.3.2,6.8,3.1,1.5,2.8-.3,4.8-1.8,6.7-.8,1-1.7,2.2-2.8,2.8-4.8,2.5-7.9,5.3-4,11.1.9,1.4,0,3.3-1.7,4.2-1.6.8-3,.1-3.9-1.2-2.4-3.4-4.9-6.7-6.9-10.3-1.4-2.5,0-4.5,2.6-5.5,1.8-.7,3.7-1.2,6.9-2.2-10.6-2-19.9-5.2-29.2-.4-3.3,1.7-6.5,3.4-8.3,6.8-1.2,2.2-2.8,3.7-5.1,2.3-2.6-1.5-2.2-3.9-.7-6,6.4-8.9,15.4-12.9,26.1-12.9,3.6,0,7.3.7,11.3,1.2Z"/><path d="M600.8,370.1c-4.3-1.8-6.4-4-3-7.6-1.9-5.2-13.4-1.1-9.9-11.1-1.5-1.7-3.8-1.6-5.8-2.4-1.5-.6-2.5-1.7-2.3-3.5.3-2,1.9-2.9,3.6-2.6,5.8.9,11.5,2.2,16.8,4.7,3.7,1.8,2.5,4.8,1.5,7.7,3,3.1,10.5,3.7,5.7,10.6,3.2,2.8,8.1,4.3,6.6,10.1-.2.9,1.7,2.3,2.6,3.4,1.7,2,3.6,3.9,5.2,6.1.9,1.3.7,2.9-.7,4-1.2,1-2.8,1.3-3.6.2-3.3-5-10.9-6.7-10.5-14.7.1-2.9-3.9-3.1-6.3-4.9Z"/><path d="M64,386.6c-.4,2.7-1,4.9-3.3,6.2-3.6,2.1-6.2,6-9.1,7.7-6.3,3.7-10.5,10.7-18.1,12.3-2.3.5-4.8,1.7-6-1.3-1.2-3.1,1.5-3.9,3.5-5,6.4-3.5,12.4-7.4,16.8-13.5,1.9-2.6,5.4-3.2,7.9-5.1,1.1-.8,2.6-1.2,3.2-2.3,3.3-5.7,3.2-5.8,8.2-8.6-2-4.4.2-6.7,4.3-8.5,2.7-1.2,5-3.2,7.5-4.8,1.7-1.1,3.6-1.4,5,.3,1.6,1.9.4,3.5-1.1,4.7-2.4,2-5.1,3.7-7.9,5.8,2.7,4.4.2,6.5-3.6,8.2-2.4,1.1-4.7,2.4-7.3,3.9Z"/><path d="M206.7,187.5c-1.7-.5-3-.7-4.3-1.1-1.7-.7-2.7-2-2.3-3.9.5-2,2.1-2.6,3.9-2.3,2,.3,3.9,1,5.9,1.2,2.1.3,4.3.7,5.3-2.3.8-2.3,2.9-2.4,5-1.9,2.6.6,5.1,1.2,8,1.9,2-6.3,6.2-4.7,10.8-2.9,2.6-4.9,6.2-4,10-1.6,3.2,2.1,6.5,4.1,9.6,6.3,2,1.4,3.6,3.4,1.6,5.9-1.9,2.2-3.9,1-5.7-.5-1.5-1.3-3-2.6-5.4-3.4-2.3,5.5-5.7,4.5-9.6,1.6-1.2-.9-3.2-2.1-4.4-.1-2.5,4-5.7,2.3-8.8,1.4-3.2-1-6.7-3.8-8.7,2-.6,1.8-3.2,1.2-5.1.9-1.8-.3-3.6-.7-5.8-1.1Z"/><path d="M139.8,274.9c-.2.6-.3,1.1-.5,1.2-6.5,1.5-10.2,7.6-16.2,9.9-1.6.6-3.3,1.3-4.4-.5-1.2-1.8-.5-3.5,1.1-4.8,4.5-3.5,8.5-7.4,11.6-12.3.4-.6,1.3-1.4,2-1.4,8.1,0,10-6.9,13.4-12,1.1-1.6,2.6-2.7,4.4-3,3.9-.6,7.9-1.1,11.8-1.4,2.1-.2,4.1.6,4.3,3.1.2,2.4-1.7,3-3.5,3.5-1.8.4-3.5.8-5.6,1.2.2,3.5-1.3,5.7-4.9,6-.6,0-1.7.5-1.7.8-.6,6.5-6,5.9-10.2,7-1.2.3-1.3,1.4-1.5,2.7Z"/><path d="M292.4,75.8c3.8-4.6,10.1-6.3,14.7-4.3,1.6.7,3.1,1.2,4.8.5,1.7-.7,3.2-.2,4.8.6,3.6,2,6.7,4,11.5,3.2,4-.7,6.5,4.1,9.9,6.1,4.8-2.2,13.1,1.8,14.4,7,.3,1.2.3,2.4-.7,3.2-1.1,1-2.5,1.1-3.7.3-1.5-1-2.8-2.3-4.2-3.5-.9-.7-2-2.1-3-1.3-3.8,3.2-6.3.9-9-1.7-1.2-1.2-2.7-1.9-4.6-1.3-1.3.4-2.9.6-3.8-.4-4.2-4.4-10-3.8-15.1-4.4-3.9-.5-8,.3-12.1-.7-1.9-.5-3.6-.7-4-3.3Z"/><path d="M266.7,574.4c4.9,4.6,9.7,8.9,14.5,13.3,1.7,1.5,3.1,3.4,1.5,5.6-1.6,2.3-3.4,1-5.2,0-8.6-5.1-17-10.7-23.3-18.6-2.2-2.8-3.7-5.6-7.6-7-3.3-1.2-3.2-10.9-.4-13.2.8-.7,2.3-1.2,2.7-.5,2,4,7.8,4.2,8.9,9.7.7,3.1,4.5,5.4,6.9,8.1.7.7,1.3,1.5,2.1,2.6Z"/><path d="M337.2,286.2c5.3.9,9.8,3.9,14.1,6.1,5.1,2.6,6.5,10.1,8.8,15.7.9,2.1-.2,4-2.5,4.7-2.3.7-3.2-1-4-2.8-1.2-2.7-2.1-5.6-4.2-7.9-9.4,5.5-7.5-6-12.2-7.6-4.2,3.7-4.4,3.6-9.5-2.5-5,1.9-9.7,0-12.4-4.9-.7-1.3-.8-2.6.2-3.7,1.4-1.5,3-1.4,4.5-.4,2.6,1.7,4.7,4.1,8.3,1.6,1.3-.9,3.1.8,4.3,2,1.6,1.7,2.9,1.2,4.5-.4Z"/><path d="M356.6,373c-1.9,0-3.3.6-4.7,1.9,4.6,4.5,1.1,10.4,3.1,15.5.4,1-.7,2.2-1.9,2.7-1.3.6-2.7.5-3.7-.6-.7-.7-1.4-1.6-1.5-2.5-.9-6.2-3.3-11.2-9.5-13.8-1.6-.7-2.4-2.8-1.7-4.8.6-1.7,2.2-2.5,4-2.5,3.9,0,7.5-1.4,11.1-2.5,7.6-2.3,17.3,1.1,22.3,7.6,1.3,1.8,2,3.5.3,5.3-1.9,2-3.6,1-5.2-.4-3.4-3.3-7.1-6-12.6-5.9Z"/><path d="M108.4,365.9c4.2-6,9.8-9.9,15.8-13.3,2.4-1.4,5.4-2.2,6.8,1.1,1.3,3-1.5,3.7-3.6,4.8-8.6,4.2-14.3,11.1-18.2,19.8-3.3,7.3-6.9,14.4-10.4,21.6-1.2,2.5-2.8,5.2-6,3.5-3-1.6-1.5-4.3-.3-6.5,5.8-9.9,9.1-21.1,15.8-30.9Z"/><path d="M644.4,231.6c-2.3-1.1-4.1-2.2-6.1-3-5.5-2.2-5.9-3.1-3.4-8.4-3.5-1.2-6.9-2.3-10.3-3.6-1.7-.6-3.6-1.5-3-3.9.6-2.2,2.6-2.3,4.5-2.3,2.1,0,3.9.8,5.7,1.5,6.8,2.8,13.6,5.3,20.2,8.4,4.6,2.2,4.7,3.9,1.5,7.9.4,1.9,2.4,2.1,3.6,3.2,1.7,1.6,3.1,3.4,1.4,5.6-1.6,2.1-3.5,1.1-5.3,0-2.8-1.8-5.6-3.5-8.7-5.5Z"/><path d="M311.1,604.3c.3-3.5-1.7-7.5,2.7-9,2.2-.8,3.3,1.4,4,8.1,4.8-1,6.3,1.4,5.8,5.7-.1,1.2-.2,2.7,1.1,3,4.5,1,4.3,4.8,5.7,7.9,2.4,5.2,6.4,9.4,10.1,13.8,1,1.2,2.7,2,3.4,3.5.9,2.2.3,4.7-2.1,4.4-2.9-.4-6.8-.9-8.1-3.9-2.7-5.9-9.3-9.3-10-16.3-6.6-1.6-3.9-10.8-10.6-12.6-1.4-.4-1.6-2.8-1.9-4.8Z"/><path d="M518.4,522.6c-4.5,6.4-6-1.1-9.2-1.6-.6,1.6.4,4.2-2.4,4.7-2.1.4-3.5-.8-4.6-2.3-1.5-2.1-3.7-3.3-5.7-4.8-1.5-1.2-3-2.5-1.6-4.5,1.3-1.9,3.1-1.5,4.9-.7,1.2.6,2.4,1.1,3.6,1.7q4.8-3.8,13,2.4c5.1-4.2,6.4-3.5,13,6.7,3.5-4.7,5.8-4.5,8.1,1,.9,2.1,1.5,4.4,1.9,6.7.3,1.8-.5,3.4-2.4,3.8-2,.5-3.1-.9-3.7-2.5-.6-1.7-.7-3.6-1.9-5-4.7,3.4-5.1,3.2-8.6-1.8-1-1.5-1.2-4.3-4.3-3.7Z"/><path d="M514.7,466.8c-1.6-1.3-1.1-3.1-1.9-4.7-3.5-.2-8.5,2.6-9.7-3.8-1.3.3-2.3.5-3.2.8-2.4.8-4.8,1.1-5.8-1.9-.8-2.7,1.4-4.1,3.5-4.6,4.1-1,8.7-4.2,11.6,2,6.1-1,9.9,3.4,14.8,5.7,3.7,1.7,8.4,1,10.3,6.2.5,1.5,3.2,2.3,4.7,3.5,1.4,1.1,2.3,2.6,1.2,4.3-1,1.6-2.7,2-4.4,1-3.6-2.1-9.3-.8-10.7-6.7-.3-1.1-2.4-.7-3.7-.9-2.1-.2-4.3.5-6.7-1Z"/><path d="M466.8,182.6c2.4-1.1,3.5.8,5.1,1.4,5.9-11.9,6.5-12.3,12.2-9.4,4-3.5,9.5-4.4,13.6-7.8,1.5-1.2,3.5-1.2,4.8.7,1.4,2,0,3.4-1.2,4.8-3.9,4.4-9.8,5.8-14.3,9.5-1.7,1.4-3.4-.4-4.9-1.1-4.5,2.7-2.3,12.7-11.6,10.1-.6,1.8-1.3,3.7-2,5.5-.6,1.5-1.6,2.6-3.4,2.3-1.8-.3-2.5-1.6-2.4-3.2.2-4.5.4-9,4-12.8Z"/><path d="M566,608.6c-1.3,2.4-3.2,3.2-5.3,4-2.2.8-4.5,2.3-6-.7-1.3-2.6-.3-5.6,2-6.5,5.1-1.9,6-8.2,11.4-9.9,2.2-.7,3.1-4.8,4.8-7.3,2.2-3.1,6.6-4.1,7.2-8.8.2-1.8,3.1-1.8,4.4,0,1.8,2.5,1.9,5.6,1.7,8.6-.2,3.4-1.9,4.5-5.5,4.9-3.2.3-2.9,5-5.5,7.1-2.4,2-3.5,5.5-7.4,5.8-.6,0-1,1.6-1.7,2.7Z"/><path d="M46.2,349c-5.1,8.5-6.9,17.9-9.8,26.9-1,2.9-3,5.5-4.5,8.3-1,1.8-2.3,3.7-4.6,2.5-2.6-1.3-1.7-3.6-.9-5.7,1.1-2.7,1.7-6,3-8.3,4.1-7.1,3.3-15.9,8.7-22.3.7-.9,1.9-1.9,1.2-3.1-3.2-4.8.4-7.8,2.7-11.1,1.2-1.8,2.9-3.7,5.4-1.9,2.5,1.7,1.2,3.9,0,5.7-1.9,2.7-4.3,5.3-1.1,9Z"/><path d="M673.2,430.6c-2.6-1.9-4.9-3.4-3.7-7.1.8-2.3-1.9-2.8-3.1-4-1.4-1.3-2.8-2.8-1.3-4.7,1.3-1.7,3.3-1.8,4.9-.6,4,3.1,10.9,4,9.1,11.8-.1.6,1,1.6,1.7,2.3.9,1,2.6,2,2.6,2.9-.5,5.4,4.5,8.9,4.8,13.9,0,2,1.4,2.9,2.6,4,1.4,1.3,2.6,2.6,3.2,4.4.8,2.5-.3,4-2.8,4.1-2.4.1-10.3-8.2-9.8-10.7.4-2-.2-3.1-1.5-4.4-2-1.9-3.5-3.7-2.5-7,.7-2.4-2.4-3.2-3.9-5.1Z"/><path d="M444.3,243.8c4.3-4.6,8.3-9,12.4-13.3,1.7-1.8,3.8-3.9,6.3-1.3,2.4,2.4.4,4.3-1.2,5.9-8,8.1-13,18.1-18.7,27.7-.6,1-.4,2.6-.6,3.9-.2,2.1-1.1,3.6-3.3,3.6-2,0-2.8-1.5-3.3-3.2-.5-1.8-1.2-3.7-.5-5.4,2.6-5.3,4.5-10.9,6.6-16.3.3-.6,1.3-1,2.2-1.6Z"/><path d="M663.2,507.7c-5.3,3.8-5.1-1.6-6.9-3.7q-6.1.7-8.4-8.8c-3.9.3-6.4-1.5-6.6-5.8-4.9,1.3-6.8.3-7.1-4.3-.2-4-.6-8,.6-11.9.7-2.2,2-4.1,4.7-3.3,2.4.7,2.6,2.7,2.2,4.9-.6,3.2-1.6,6.5-.6,10.4,1.9-1.2,2.4-4.7,5.2-3.5,3.8,1.6,1.4,5.4,2.6,8.1,8.1-2,5.1,5.6,7.3,8.7,5.7-.8,7.5,1.3,7.1,9.1Z"/><path d="M462.6,135.4c5.6-4.4,11.2-8.1,17-11.7,2-1.2,4-2.2,5.8-.2,1.9,2.2,0,3.6-1.4,5-2.3,2.3-4.6,4.5-7.9,5.8-3.3,1.3-6.3,3.9-8.2,7-3.4,5.2-10.8,6.3-12.9,12.9-.4,1.2-2,1.7-3.5,1.2-1.6-.6-2.6-1.9-2.2-3.5,1.6-5.6,4-10.9,7.8-15.5,1.3-1.6,3.4-1,5.6-1.1Z"/><path d="M104.1,400.5c4.3-7.8,6.5-16.5,13-22.6,1-.9,1.7-2,3.1-2.4,1.3-.4,2.6-.7,3.7.5,1,1.1,1.3,2.6.3,3.7-10.5,10.9-12.9,26.6-22.7,37.8-.3.4-.5.8-.9,1.2-1.7,1.7-3.5,4.3-6.2,2-2.6-2.2-.8-4.5.9-6.5,3.4-4.1,5.9-8.8,8.9-13.6Z"/><path d="M436.2,390.9c4.3,1.3,4.2,3.6,1.8,6.3-4.1,4.7-9.7,7.6-15,10.3-3.8,2-7,5-11.3,6.2-1.4.4-2.6,1.5-4.1.5-1.6-1.1-1.8-2.7-1.3-4.4,1.1-3.9,2.8-7.5,5.2-10.7.6-.8,1.7-1.9,2.3-1.7,8.6,2.2,15.2-2.5,22.4-6.4Z"/><path d="M732.8,456.1c-3.8-3.8-6.2-8-7.4-12.9-.3-1.3-.7-2.5.1-3.8.4-.5,1-1.6.9-1.6-4.4-2.9-1.6-8.2-4-11.7-1.1-1.7-1.7-3.3,0-4.9,1.5-1.4,3.1-.8,4.5.2,1.5,1.1,2.9,2.2,4.3,3.3,7.4,5.6,7.6,5.9,3.2,13.6-1.4,2.4-1.7,4,.3,6,2.5,2.6,2.1,6.5,3.7,9.6.6,1.2.2,2.7-1,3.6-1.8,1.3-3.1,0-4.6-1.4Z"/><path d="M719.1,291.9c2.9,3.3,5,6.6,6.9,10.2,2.1,3.8,2.4,7.1-2.9,8.5.5,2.3,1,4.4,1.3,6.5.2,1.8-.3,3.4-2.2,4-2,.6-3.1-.8-3.7-2.5-1.6-5.1-3.3-10.1-5.9-14.8-1.4-2.5.7-4.3,2.5-5.5-1.5-3.9-4.2-6.2-6.6-8.6-1.3-1.3-2-2.8-.8-4.4,1.4-1.9,3.2-1.5,4.9-.4,2.7,1.7,4.5,4.4,6.7,7.1Z"/><path d="M558.4,540.2c.4-4.3-2.7-7-3.5-10.5-.4-1.8-1.4-3.6.6-4.9,1.8-1.2,3.5-.4,5,.9,3.7,3.4,6.7,6.9,7.4,12.4,1,7.6-.3,15.1-.4,22.6,0,1.8-.9,3.3-2.9,3.5-2.1.2-2.6-1.5-3.2-3.2-2.5-6.6-1.9-13.7-2.9-20.9Z"/><path d="M205.3,559.4c.4-3.4.8-6.3,2.2-9,1-2.1,2.3-4.1,4.9-2.9,2.5,1.2,2.2,3.4,1.1,5.6-.3.6-.5,1.2-.8,2.2,5,1.6,4.6,5.1,4,9.5-.5,4.1,1.9,8,3.4,11.8,1.1,2.8,2.3,5.5,2.7,8.5.2,1.7-.2,3.4-2.1,4-2.1.6-3.1-.8-3.8-2.4-2-5.1-3.8-10.2-7.6-14.3-.3-.3-.5-1-.4-1.4,1.5-4.6-.9-7.9-3.6-11.6Z"/><path d="M302.3,187.3c-5,.5-9.4,1-13.1,4.5-1.7,1.7-4.5,1.8-6.2-.4-1.7-2.1,0-3.8,1.4-5.2,3.2-3.1,6.7-5.5,11.6-5.9,4.5-.3,8.8-2.7,13.4-.3.4.2,1.6-.5,2.1-1,2.1-2.1,4.2-1.6,6.3-.3,2.5,1.6,5.1,3.2,7.4,5,1.2.9,1.8,2.6.7,4-.9,1.2-2.4,1.2-3.7.7-1.5-.6-2.9-1.5-4.4-2.3-1.8-.9-3.5-1.9-5.4.2-1.3,1.5-3,1.1-4.6.5-1.8-.6-3.5-1.3-5.5.4Z"/><path d="M437.6,364.2c-1.4.2-2.5,0-2.9-1-2.1-4.1,1.1-6.9,2.6-10,1.1-2.3,2.4-4.7,5.4-4.3,4.6.6,8.8.5,13.3-1.7,2.3-1.1,5.9-.5,8.6.4,2.8.9,2.9,3.8.7,5.5-2.9,2.1-5.6,4.4-9.6,4.8-6.3.6-12.3,2.8-18.1,6.2Z"/><path d="M632,302c.6,2.3,2.5,3,3.7,4.4,1.4,1.6,2.4,3.4.7,5.3-1.8,2-3.6,1-5.2-.5-5.3-4.8-11.8-8.2-16.1-14.1-.4-.6-1.5-1.2-2.1-1-4.8,1.1-6.9-3.8-11-4.7-2.5-.6-2.4-3.4,0-5,1.9-1.3,4.5-1.7,6.2-.8,5.1,2.4,11.1,3.6,14.5,8.8.9,1.4,2.3,1.9,3.5,2.6,2.1,1.3,4.5,2.2,5.8,5Z"/><path d="M396.6,106.3c6-3.8,9-9.1,10.6-15.4.6-2.4,1.1-5.6,4.4-5,3.1.6,3.1,3.7,2.4,6.1-1.2,3.8-.3,8.5-4.5,11.1-1.3.8-.9,2.7-1.2,4.2-.3,1.8-.5,4.4-2.4,4.6-5.4.6-4.4,4.2-4.1,7.6.2,2.2.8,4.7-2.2,5.2-3,.4-4.1-1.9-4.3-4.4-.3-4.6-.9-9.3,1.3-14.1Z"/><path d="M259.9,488c-3-3.4-.9-5.8.9-8.2,1.5-1.9,3-3.5.4-5.9-1.5-1.4-1-3.4.2-5,2.2-2.7,4.3-5.4,6.7-8,1.4-1.6,3.3-2.4,5.2-.7,1.7,1.6,1,3.3-.1,4.9-2.1,2.9-5.6,5.2-1.9,9.6,1.4,1.7-.9,3.9-2,5.6,3.1,4.4,2.1,9.7-2.3,12.7-1.9,1.3-3.5,1-4.5-1.1-.6-1.3-.9-2.9-2.6-3.9Z"/><path d="M580.1,180.4c3.1,3.2,1.6,5.3-1.5,6-3.6.7-7.6,1.9-10.5-2.1-1.9-2.6-4.3-1.1-6.4-.4-4,1.3-6.6.6-6.6-4.2-2.3-.4-3.9,1.1-5.8,1.5-1.7.3-3-.2-3.7-1.7-.7-1.4-.3-2.8.8-3.6,4-2.9,8.4-4.7,13.4-4.6,2.5,0,3,2.2,4.1,4.3,6.1-1.7,9.6,5.8,16.1,4.8Z"/><path d="M637.5,523.3c-2.3,1.1-4.3,3.3-6.4.7-2.2-2.7-2.9-6-1.5-9.4.5-1.2,1.7-1.8,2.9-1.4,5.4,1.7,11.6.2,16.5,2.2,4.9,2,10,4.2,14.8,6.6,1.5.8,2.2,2.6,1.3,4.4-.9,1.9-2.6,1.6-4.3,1.4-5.6-.7-10.2-4.9-16.1-4.5-2.3.2-4.6,0-7.2,0Z"/><path d="M134.2,462.8c.8-1.7,1.3-3.1,2.1-4.4,1.1-1.9,2.5-4,5-2.8,2.6,1.2,1.8,3.5,1,5.6-2.1,5.4-4,10.9-6.2,16.3-2.4,5.7-3.8,11.7-5.4,17.6-.6,2.2-1.1,4.6-3.9,4.1-2.6-.5-3-3.1-2.6-5.2,1-4.7,2.2-9.4,3.7-13.9,1.9-5.7,4.2-11.2,6.4-17.2Z"/><path d="M538.3,189.7c-4.3.3-8.6,1.2-12.5,3-3.9,1.7-7.2,2.3-8.2-3.2-3.7.4-6,2.8-8.8,4.3-1.8,1-3.5,1.5-4.9-.3-1.6-2-.5-3.9,1.3-5.1,4.9-3.5,10.2-6.2,16-8,3.4-1,4.7,1.5,5.8,4.1,2.8.6,5.2-.8,7.8-1.3,2-.4,3.6.2,4.9,1.7,1.4,1.7.4,3.1-1.1,4.6-.2.3-.2.2-.2.2Z"/><path d="M182,362.3c.9,2.5-.9,4.1-1,6.5,2.8,1.6,4.4,4,3.1,7.7-.8,2.2,2.4,3.1,2.1,4.6-1,6,1.5,12.2-.7,18.1-.7,1.8-1.8,3.4-4.1,2.7-2.1-.7-2.9-2.6-2.3-4.4,1.5-4.7-1.3-9.2,0-14.2.6-2.4-3.3-5.8-1.7-9.4-5-3.2-5.5-5.6-2-10.6,1.6-2.3,3.4-5.2,6.6-1.1Z"/><path d="M492.3,256.9c-3-1-5.5-1.7-7.9,1-1.1,1.3-2.8.9-4-.3-1.3-1.2-1.3-2.8-.3-4.1,2.3-2.8,4.4-6.4,8.9-4,1.7.9,2.8,0,4-.8,3.8-2.8,7.6-5.1,12.8-3.9,1.9.4,4.1-.9,6.2-1.5,1.8-.5,3.3-.2,4.5,1.2,1,1.3,1.3,2.7.6,4.2-.8,1.7-2.6,1.4-4.1,1.8-6.8,2-14.4,1.7-20.7,6.3Z"/><path d="M612.4,161.9c5.1,1.1,9.9,1.8,14.4,3.2,3.4,1,6.5,3,2.6,7-1,1-.4,1.7,0,2.5.8,1.2,1,2.5-.2,3.6-1.4,1.4-2.9,1.3-4.6.6-2.9-1.3-5.7-2.7-8.9-2.9-2.1-.2-4.2-.5-4.5-3-.3-2.6,1.9-3.1,3.8-3.8-2.8-1-7.1,1.2-7.9-3.3-.5-3,2.4-3.5,5.1-3.9Z"/><path d="M584.2,491.7c3.3,3.5.9,5.1-1.9,6.7.7,3.7,8,6.2,1.8,10.6.3.7.3,1,.5,1.3,1.8,2.1,4.9,4.3,2.2,7.1-3,3.2-4.9-.7-6.8-2.3-2.8-2.5-6.9-5.1-1.3-9.1-2.6-3.5-7.6-6.4-2.2-10.8-1.5-2.7-6.6-4.2-3.5-7.8,3-3.4,5.5,1,8.1,2,1,.4,1.9,1.4,3,2.3Z"/><path d="M108.2,468.1c2.1.8,2.6,2.3,2.2,3.8-1.4,5.5,2.8,9.4,3.8,14,1,4.8,3.8,8.9,4.4,13.7.2,2.1,0,4.3-2.4,4.8-2.1.5-2.9-1.4-4-2.9-5.1-6.6-5-15.4-9.3-22.4-1.7-2.8,1.8-9.5,5.3-11.1Z"/><path d="M204.1,218.1c0,3.3-1.2,5.3-4,6.6-4.6,2.1-5.8,8.1-10.8,9.9-1.7.6-3.2,1.8-4.8,2.6-1.7.8-3.3.5-4.2-1.3-.9-1.8-.5-3.4,1.2-4.2,6.3-3.2,9.1-9.4,13.2-14.6,1.4-1.8,3.4-3.1,5.3-4.5,2-1.4,4.4-3.4,6.6-.8,2.4,2.8-.7,4.3-2.4,6.4Z"/><path d="M481.5,589.2c1.8-3.9,3.2-4.1,6.2-1,7.1,7.3,9.1,17.4,14.8,25.4,1,1.4.8,3-.7,4-1.6,1.1-3.3.8-4.5-.6-2.1-2.5-4.8-4.8-5.7-8.1-.9-3.4-2.9-6.2-5.4-8.3-3.5-3-4.7-6.7-4.8-11.4Z"/><path d="M230.8,258.1c-1.1-4.7,3.6-5.3,5.1-8.5-4.6-3.3-2.3-6.2.9-9.3,2.9-2.8,6.1-5.2,9.2-7.6,1.8-1.4,3.9-1.5,5.2.5,1.3,2,.6,3.8-1.3,5.1-2.7,1.9-5.5,3.6-7.7,6.1,4.2,4.5,4.2,5.3-.6,9.5-1.9,1.7-3.7,3.3-5.8,4.7-1.6,1.1-3.4,1.3-5.1-.7Z"/><path d="M347.2,338.2c1.1-5.1,5.2-3.2,8.4-4.1-1.1-2-4.5-3.4-2-6.2,2.2-2.4,4.9-1.6,7.3-.3,1.8.9,3.6,1.9,5,3.2,1.7,1.7,2.1,3.7,0,5.6-3.3,3.1-7,5.8-9.5,9.9-1.5,2.5-4.8,2.2-7.3,1.1-2.4-1-2.2-3.1-1.1-5,.8-1.5-.3-2.5-.7-4.1Z"/><path d="M319.6,574.4c4.1,1.6,7.2,4,9.6,7.3,1.2,1.7,1.9,3.7.5,5.5-1.5,1.9-3.2,1-4.9,0-3.7-1.9-8.9-1.1-10.3-6.9-2.7,1.1-5.6,2.2-6.7-1.4-1.1-3.8-2-7.8.6-11.5.9-1.2,3.2-1.2,3.4-.1.7,4.5,5.8,3.7,7.8,7Z"/><path d="M333.3,220.7c.6-6.4,2.1-6.6,10.1-1,1.7-5.8,5-4.1,8.1-1.5,2.9,2.4,5.8,5,8.4,7.7,1.5,1.6,2.4,4,.4,5.8-2.3,2-3.9,0-5.4-1.6-2.3-2.6-4.9-4.9-7.9-6.8-1,1.4.5,2.1.6,3.1.3,1.7,0,3-1.5,3.9-1.5,1-2.9.3-3.9-.9-2.5-3.1-5.3-6-8.7-8.5-.3-.2-.2-.1-.2-.1Z"/><path d="M309.4,423c-3.2.6-5.9,1.3-8.7,1.7-2.1.3-4.1-.2-4.7-2.6-.6-2.3,1.1-3.4,2.9-4,2-.7,4.1-1.2,6.2-1.7,4.2-1.2,8.8-.6,12.2-5.1,1.9-2.5,6.7-2.1,10.4-1.2,1.4.4,2.3,1.3,2.4,2.8,0,1.3-.6,2.7-1.7,2.7-7.1.2-11.1,8.1-19,7.3Z"/><path d="M620.3,518.1c.3,2.2,0,3.9-2,4.4-1.9.5-3.1-.8-4.1-2.2-1.7-2.5-4.3-4.8-4.8-7.5-1-5-.8-10.2-4.6-14.5-1.1-1.2,1.3-2.8,2.6-3.7,1.7-1.1,3.4-1.1,5,.3,4.1,3.6,7.2,8.1,5.9,13.5-.8,3.8.4,6.4,1.9,9.7Z"/><path d="M225.7,442.2c1.6-2.2,2.9-4.1,4.4-5.8,1.1-1.2,2.5-1.7,4-.7,1.4,1,1.6,2.4,1.1,4-1.8,5.4-1.4,10.9-.5,16.4.3,1.5.8,2.9.2,4.4-.8,2-1.4,4.2-4,4.6-2.3.3-3.2-1.7-4-3.2-1.9-3.7-3.9-7.7-1.4-11.7,1.8-2.8-1.1-5.1.2-8Z"/><path d="M141.7,237.1c5.1-2.8,10-5.3,14.8-7.9,2-1.1,4.3-1.8,5.7.7,1.4,2.5-.4,4-2.5,5.1-8.6,4.6-17.3,9.1-25.3,14.9-1.4,1-3,1.6-4.4,0-1.5-1.7-1.1-3.3.4-4.9,3.1-3.4,7.3-5.1,11.4-7.8Z"/><path d="M674.1,347.4c-2.6-6-7.8-9.7-12-14.4-1.6-1.8-4.5-3.4-2-6.1,2.3-2.4,4.6-.4,6.4,1.3,6.8,6.3,12.8,13.4,18,21.2,2.9,4.4,1.9,6-4,6.1-2.5-2.9-4.5-5.6-6.5-8.2Z"/><path d="M498.7,319.1c-1.8,2.9-3.7,4.4-6.6,2.4-2.1,1.7-2.3,4-3.1,5.9-.8,1.9-2.2,3-4.3,2.4-2-.6-2.3-2.2-2.1-4,.5-4,2.1-7.7,4.4-11,.6-.9,2.2-2,2.8-1.7,4.6,2.2,5.9-1.9,8.2-4.1.8-.8,1.5-1.8,2.4-2.5,1.6-1.2,3.5-1.4,5,.2,1.6,1.7,1,3.3-.4,4.9-2.1,2.4-4,4.8-6.3,7.6Z"/><path d="M139.9,302.3c.5-.7.8-1.1,1.1-1.5,1.5-2.1,2.6-5.6,5.9-3.4,3,2,.9,4.9-.4,7.1-4.8,7.4-10.8,13.9-16.7,20.4-1.7,1.8-4,3.1-6.1,1.1-2.4-2.3-.2-4.1,1.3-5.9,5-5.8,9.9-11.6,15-17.8Z"/><path d="M663.5,396.6c.1,4.2,1.5,7.1,5.2,9,1.7.8,2.9,2.6,1.6,4.6-1.3,2.1-3.3,1.9-5.2.7-2.7-1.6-5.4-3.3-8.2-4.7-3.5-1.7-5.1-3.8-2.4-7.4-1.9-2-4.3-2.8-6.5-3.9-1.6-.8-2.9-2-2.1-4,.8-2,2.6-2.7,4.5-1.9,4.7,1.8,9.3,3.7,13.1,7.6Z"/><path d="M366.3,396.9c3,.8,5.2,2.2,7.3,3.8,1.6,1.2,2.4,2.9,1.2,4.8-1.1,1.7-2.8,1.5-4.5,1.1-6.1-1.3-12-2.6-17.6,1.9-1.9,1.5-4.9,1.2-6.9-.8-2.2-2.3,0-4,1.3-5.6,2.7-3.3,6.6-5.1,10.5-4.1,3.3.8,5.7.2,8.7-1.1Z"/><path d="M143,490.4c-1.6,6.3-3.2,12.3-4.7,18.2-.6,2.2-1.4,4.4-4.2,3.9-2.4-.5-2.9-2.8-2.5-4.8,1.9-9.6,4.4-19,8.1-28.1.7-1.7,1.9-3.5,4.2-2.6,2.3.9,2.5,2.9,1.8,5-.8,2.7-1.8,5.4-2.8,8.4Z"/><path d="M576.6,406.4c.7,2.6,2.8,3.6,4.1,5.3,1.1,1.5,1.4,3.1,0,4.5-1.2,1.2-2.8,1.2-4.1.2-2.7-2.1-5.7-3.9-7.4-7.1-1.8-3.4-6.2-5.3-5.8-10.2.1-1.1-2.2-1.1-3.4-1.7-1.6-.7-2.9-1.8-2.5-3.8.3-1.7,1.8-2.3,3.3-2.5,4.2-.7,9.8,3.1,10,7.3.2,4,5.1,4.1,5.8,8Z"/><path d="M472.9,546.6c-.7,1.8-1.8,2.7-3.2,2.1-3.7-1.4-5.1-5-7-8.1-1.7-2.8,1.5-3.8,3-5.5-3-3.6-.1-8.4-2.8-12.2-.6-.8.2-2.3,1.4-2.9,1.3-.7,2.8-.4,3.7.6,2.9,3.2,7.8,5.1,5.5,11.4-.9,2.4,1,5.8-3,7,.3,2.8,2.7,4.5,2.4,7.5Z"/><path d="M495.3,277c4.7,1.9,9.1,3.7,14,2.8,1.8-.3,3.4.3,4,2.2.7,2.2-.7,3.5-2.5,4.2-1.5.7-3.2,1.7-4.7,1.4-5.8-.9-11.5,2.2-17.4.5-1.3-.4-2.6-.6-3.1-2-.5-1.4,0-2.7,1.1-3.6,2.5-2.2,4.9-4.6,8.5-5.6Z"/><path d="M471.3,653.7c-1.9-4.8.4-8.8,2.3-12.8,2.3-4.9,5.9-9.2,6.4-14.9.1-1.6,1-3,2.8-2.9,1.7,0,2.5,1.4,3.1,2.9,1.9,4.7-.8,14.4-5.1,17.3-2.3,1.6-2.9,4-3.6,6.3-.8,2.6-2,4.6-5.6,4.1-.4,0-.4,0-.4,0Z"/><path d="M192.4,506c1.8-3,3.4-5.7,5.3-8.3,1-1.4,2.7-2.1,4.4-1,1.7,1.1,1.7,2.9.6,4.4-1.5,2.3-2,4.4,0,6.7.3.3.5,1.1.3,1.4-3.1,5.7-2.1,12.6-5.6,18.1-1.1,1.8-2.7,3.3-4.9,1.8-1.9-1.2-1.9-3.4-.6-4.8,3.6-3.9,2.1-8.9,3.4-13.5-.9-1.4-3.4-2-2.9-4.8Z"/><path d="M366,260c3.9,1.2,7.2,2.8,10,5.1,1.8,1.5,2.3,3.5,1.2,5.3-1.5,2.4-3.3,1.1-5.2,0-3.7-2-6.7-4-11.7-1.4-3.2,1.7-8.4-1-11.7-3.9-1.8-1.6-.7-4.9,1.2-4.6,5.4,1,10.5-2,16.1-.7Z"/><path d="M730,256.9c6.2,4,12.3,7.6,13.2,15.8.3,2.3,3,4.2,4.4,6.4,1.3,2.1,3.1,4.6.2,6.5-2.9,1.9-4-1.1-5.3-2.9-2.9-4-7-7-7.3-12.9-.1-2.7-4.2-4.8-6.8-6.9-3.4-2.8-3.1-4.1,1.5-6.1Z"/><path d="M471.3,653.7c2.4,5.3-.8,9.4-3.2,13.3-3.2,5.2-8.6,8.5-11.9,13.7-1,1.6-2.8,3.4-5,1.7-1.8-1.5-1.5-3.8-.4-5.5,2.3-3.4,4.4-7.3,7.6-9.7,3.4-2.6,5.4-5.7,7-9.4,1-2.3,1.9-4.8,5.6-4.2.4,0,.4,0,.4,0Z"/><path d="M191.9,419.3c1-4.5,1.7-8.5,2.7-12.6.5-2,.9-4.7,3.8-4.3,2.6.4,3.3,2.8,3,5-1.3,8.6-3.4,16.9-6.8,24.9-.9,2.1-2.5,4.5-5.3,2.9-2.4-1.3-1.6-3.6-.8-5.7,1.3-3.2,2.2-6.6,3.5-10.3Z"/><path d="M258.3,278.8c.2-3.4,2.2-4.4,4.8-3.8,3.5.9,7.1,1.8,10.3,3.7,2.1,1.2,4.3,2.6,3,5.4-1.3,2.7-3.6,1.6-5.6.7-.9-.4-1.8-.6-2.7-.8-2.6,3.9-11.1,5.6-15.1,3.2-1.2-.8-2-1.8-1.7-3.3.3-1.8,1.8-2.1,3.1-2.8,1.3-.7,4.1,1.4,4-2.3Z"/><path d="M434.1,562.6c-3.1-3.7-2.3-6.5,1.7-8,4.1-1.6,6-5.5,9-8.1,2.6-2.3,5-2.4,7.7-.9,1.8,1,2.5,2.7.8,4.6-4.2,4.6-8.4,9.2-12.6,13.8-2.5,2.7-4.4.6-6.6-1.3Z"/><path d="M464.2,284c3.7,2.3,2.2,4.6.2,6.6-2.6,2.6-5.5,4.8-8,7.5-2.5,2.7-4.9,4-7.9,1.2-3.1,1.4-4.2,7.5-8.5,3.8-2.5-2.1-.1-4.9,1.4-7,2.3-3.3,4.9-3.9,7.7-.4,4.6-4.5,8.4-9.7,15.1-11.6Z"/><path d="M295.3,214c3.1-.2,3.5-4.7,6.9-3.5,4.5,1.6,9.2,3,13,6.1,1.4,1.2,2.6,2.8,1.2,4.8-1.4,1.9-3.2,1.4-4.9.5-3.9-2.1-7.6-4.5-12.3-1.3-1.6,1.1-4.5.2-6.9,0-2-.1-4.3-.3-4.6-2.9-.3-3,2.2-3.4,4.3-3.8.9-.2,2,0,3.3,0Z"/><path d="M256.6,407.4c1.1,1.9,1.3,3.8-.3,4.8-3.7,2.4-7.6,4.6-11.5,6.7-1.1.6-2.7.2-3.5-1.1-.9-1.5-.5-3.1.7-4.1,2.1-1.8,4.5-3.3,7.1-5.1-2.1-.8-4.5-1.4-4.1-4.1.4-2.6,2.7-3.1,4.7-3.9.9-.4,1.9-.7,2.8-.9,2.5-.5,5.4-1.9,7.1,1.3,1.7,3.1-1.9,3.6-3.1,5.3-.2.2,0,.6,0,1.2Z"/><path d="M398.6,263.4c2.4,2,5,3.8,2.6,6.7-2.2,2.5-4.5.5-6.6-.9-.9-.7-2-1.2-3-1.7-3.7,4.6-9.8,4.1-12.6-1-.8-1.5-1-3.7.5-3.8,3.9-.4,5.5-4.9,9-5.1,3.1-.2,5.2,2.7,7.8,4.2.7.4,1.3,1,2.3,1.7Z"/><path d="M68.8,438.1c1.5-5.4,2.5-10.5,2.8-15.9.2-3.1,2.9-5.5,5-7.8,1.2-1.3,2.7-2.2,4.3-.8,1.4,1.2,1.6,2.9.6,4.5-2.7,4.3-1.5,9.3-2.6,14-.8,3.6-3,5.4-5.4,7.2-1.7,1.3-3.4,1-4.8-1.2Z"/><path d="M539.1,117.5c4.3-1.4,8.1-3.3,12.3-3.8,2.1-.3,4.3-.1,4.8,2.3.6,2.7-1.3,4-3.5,4.6-7.4,1.9-14.8,3.9-21.7,7.3-1.9,1-3.7.9-4.6-1.2-.9-1.9-.1-3.8,1.7-4.6,3.5-1.6,7-3,10.9-4.6Z"/><path d="M240,355.4c.8-.4,1.2-.7,1.6-.9,2.2-1.1,4.5-3.3,6.7-.6,2.3,2.9-.7,4.3-2.4,6-3.7,3.9-5.6,9-8.6,13.4-.9,1.4-1.9,2.7-3,3.9-.8.9-2,1.1-3.2.5-1.1-.6-2.2-1.8-1.6-2.8,3.4-6.4,3.9-14.4,10.5-19.5Z"/><path d="M202.6,423.9c.5-2,.7-3.7,1.3-5.2.6-1.8,1.7-3.6,4-2.8,2,.7,2.7,2.6,2.3,4.5-2.1,8.2-4.8,16.3-8.5,23.9-.9,1.8-2.4,3-4.4,1.9-1.9-1-2.1-2.8-1.4-4.8,2.2-5.7,4.5-11.5,6.8-17.6Z"/><path d="M183.2,196.1c-3.1-.1-5.7-.1-8.4-.4-1.6-.1-2.9-1-3-2.8-.1-1.8,1.2-2.8,2.7-3.1,1.8-.4,3.6-.3,5.4-.4,2.9,0,5.7.4,7.9-2.8,1.6-2.3,12.6-.8,14.5,1.6,1.6,2,1.2,3.7-1,4.9-1.2.7-2.5.4-3.9.2-3.9-.5-8.1-2.5-11.1,2.3-.3.5-1.9.3-3.2.5Z"/><path d="M193.2,315.1c-.3-3.4,0-6.3-1.3-9.2-1.1-2.4,2.2-8,4.8-8.9,2-.7,3.8.4,3.6,2.1-.9,7.1,2.4,14,.3,21-.7,2.4-1.3,4.9-4.3,4.3-2.7-.5-3.3-2.9-2.8-5.5.2-1.1-.2-2.3-.3-3.8Z"/><path d="M598.3,401c.5-3.1-1.5-3.6-3.5-4.3-2.1-.8-3.5-2.2-2.7-4.6.8-2.3,2.7-2.7,4.9-2,3.4,1,6.1,2.4,7.6,6.3,1.3,3.3,3.5,6.6,6.6,8.8,1.5,1.1,2.9,2.2,3.8,3.9.6,1.1.5,2.3-.3,3.2-.8,1-2,1.3-3.2.8-1.1-.5-2.2-1-3-1.8-3.3-3.5-6.5-7.1-10.3-10.5Z"/><path d="M486.3,402.2c2.9-.3,5.3-.5,7.8-.7.8,0,1.7,0,2.5,0,2.3.5,4.3,2.4,2.8,4.1-2.6,2.9,7.5,11-4.8,9.9-6.8-.6-8.5-4.8-11.3-8.6-1.6-2.2,0-4,3-4.8Z"/><path d="M572.5,125.9c-.4,3.9-3.1,3.6-5.6,3.7-6.4.3-12.9-.4-19.3,1.1-2,.5-3.8-.1-4.3-2.3-.5-1.9.6-3.2,2.3-3.9,7.8-3,16-2.1,24-1.6,1.4,0,2.2,1.3,2.8,3Z"/><path d="M457,71.7c-1.6.6-2.8,1.1-4.1,1.5-1.7.6-3.3.1-3.8-1.4-1.3-3.7.8-7.1,2-10.4,1.1-3.2,3.9-1.2,6.2-.8.9-1.4,1.7-2.8,2.6-4.2,1.1-1.7,2.4-3.5,4.8-2.2,2,1.1,2,3,1.2,4.8-2.1,4.7-4.2,9.4-9,12.7Z"/><path d="M400.4,233.3c-2.1,2.2-4,1.6-5.2-.3-1.8-2.8-2.5-6.1-2.9-9.4-.2-1.4.8-2.5,2.2-2.9,2.8-.7,3.4,2,5.1,3.4,1.1-2,.2-4,.5-5.9.3-1.6.9-3,2.7-3.2,1.7-.2,2.9,1.1,3.3,2.5.9,3.7,1.6,7.5,1.2,11.3-.2,2.1-1.5,3.6-3.8,2.5-2-.9-2.3.5-3.1,1.9Z"/><path d="M592.1,575.5c-2.1-6.1-2.5-12.3-5.2-17.8-.8-1.5-.5-3,.9-4,1.4-1,2.8-.6,4.2.2,5.4,3.3,9.1,16.9,5.9,22.5-1.9,3.3-3.9,2.1-5.7-.9Z"/><path d="M687.5,476.6c.5,2.7,2.3,4,4,5.3,2.2,1.6,3.1,3.8,3.2,6.5,0,2-1,3.2-3,3.2-3.1,0-9.8-5.1-10.7-8.3-.7-2.4-3.2-3.9-2.9-6.7.2-2.2.1-4.5,2.5-5.5,2.6-1.2,3.5,1,4.7,2.6.7.9,1.4,1.8,2.2,3.1Z"/><path d="M170,480.3c-3.6-.9-3.3-3.2-2.2-5.5,1-2.3,2.3-4.4,3.5-6.6-4.3-3.6-4-10.8.5-14.5.9-.8,2-1.3,3.2-.6,1.3.7,1.7,1.9,1.7,3.4,0,2.6-1.9,4.6-2.6,7.3,5.9,1.9,4.4,5.6,2.1,9.3-1.7,2.6-2.4,5.9-6.1,7.3Z"/><path d="M141.7,316.2c4.3,0,5,2.4,3.2,5.2-4.4,6.6-10.5,11.5-16.9,16-1.7,1.2-3.9,1.4-5.3-.8-1.1-1.6-.6-3.4.9-4.4,6.9-4.2,12.1-10.2,18.1-16Z"/><path d="M480.8,474c2.3,2.4.8,4.2-.3,6.2,1.8,1.5,3.6,2.9,5.3,4.4,1.3,1.2,1.9,2.8.7,4.5-1.1,1.4-2.7,1.2-4.1.5-1.9-.9-3.8-2-5.7-3.1-3.2-1.9-2.4-4.2-.5-6.6-1.7-2.1-4.2-1.9-6.3-2.6-1.7-.6-3.1-1.5-2.9-3.5.2-2.2,1.9-3.1,3.9-3.1,3.6,0,6.8,1.1,10.1,3.4Z"/><path d="M67.2,367.6c-2.7,3.4-5.1,6.6-8.2,9.1-1.8,1.5-3.9,2.3-5.7.2-1.7-2.1-.4-3.8,1.2-5.1,5.1-4.2,8.4-9.7,12.2-14.9,1.2-1.7,2.6-3.5,4.8-2.1,2.4,1.4,1.9,3.6.6,5.6-1.5,2.4-3.2,4.6-5,7.2Z"/><path d="M89.7,516c-1.9.3-3.5.1-4-1.6-1.3-4.7-1.2-9.5.3-14.2.4-1.2,1.4-1.9,2.7-1.7,1.7.3,2.6,1.5,2.6,3.1,0,2.6,0,5.3,0,8.6,2.8-1.8,5.7-2.7,6.5,1,.8,3.4,1.7,7.4-1.9,10.1-1.6,1.2-3,0-4.1-1.6-.8-1.2,0-3.2-2.1-3.7Z"/><path d="M335.2,542.8c.4-2.4.6-4.4,1.1-6.3.4-1.5,1.4-2.8,3.2-2.5,1.6.3,2.7,1.4,2.8,3.1.1,2.1,0,4.3,0,6.8,2-.1,5.1-1.7,5.7,1.5.7,3.5,2,7.3,0,10.6-1.3,2.1-3.2,1-4.5-.7-1.2-1.7-1.1-3.8-1.6-5.7-5.4,1.7-6.5.6-6.6-6.8Z"/><path d="M73.3,342.6c-2.8,7.6-7.9,13.3-12.6,19.3-1.2,1.5-2.9,2.4-4.8.9-2-1.6-1.6-3.3-.3-5.2,4-5.5,7.8-11.1,11.8-16.6,2.3-3.1,3.9-2.7,5.8,1.6Z"/><path d="M654.8,240.2c3.1,1.8,5.2,4.1,7.1,6.7,1.1,1.5,1.6,3.4,0,5-1.8,1.8-3.4.7-4.7-.7-5-4.9-10.2-9.5-16.6-12.5-1.5-.7-2.3-2.1-1.6-3.7.8-2.1,2.7-2.4,4.6-1.7,4.2,1.4,7.6,4,11.2,7Z"/><path d="M230.6,141.3c1.3,1.5,2.1,2.8.8,4.2-1.1,1.2-2.5,1.6-4.1,1-6.1-2.4-12.6-2.8-19-3.7-2.2-.3-4.1-1.3-3.9-3.7.1-2.4,2-3.3,4.3-3.1,7.5.6,14.9,1.5,22,5.2Z"/><path d="M382.4,287.6c-2.6-1.1-5-2.2-4-5.1,1-2.9,3.4-2.6,5.8-1.8,1,.3,1.8.5,2.9,0,5.1-2.3,10.5-1,13.7,3.3,1,1.4,1.3,2.8.3,4.1-.8,1.2-2.2,1.8-3.5,1-2.8-1.7-5.2-1.8-8.2-.2-2.1,1.1-4.5-.6-7-1.4Z"/><path d="M201.3,145.7c5.1.3,9.7.6,14.3,1,2.5.3,5.4,1.1,5,4.2-.4,3.4-3.5,3-5.9,2.6-4.6-.8-9.2-.5-13.9-.7-2.8-.1-6.9,1-6.9-3.4,0-4,4-3.5,7.3-3.8Z"/><path d="M216.4,397c1.6-1.9,3.4-2.6,4.9-1,2.8,3-.3,5.5-1,8.2,4.1,3,3.6,12.6-.8,15.7-1.2.8-2.4,1.1-3.7.2-1.4-1-1.8-2.3-1.2-3.9,1-2.6,2.1-5.2,3.1-7.8-5.1-1.7-5.7-3.3-3.5-7.6.6-1.2,1.3-2.3,2.2-3.7Z"/><path d="M349.4,138.3c-5.1-1-9.9-1.9-14.6-2.7-2.3-.4-4.6-1.1-4.4-3.8.2-3.1,2.9-3.5,5.3-3.1,5.2.9,10.5,1.9,15.6,3.2,2.6.6,5.7,1.8,4.8,5.2-1,3.4-4,1.9-6.7,1.2Z"/><path d="M133.7,260.1c-3,2.4-5.6,4.7-8.4,6.8-1.7,1.3-3.8,1.7-5.3-.3-1.4-1.8-.4-3.5,1.1-4.8,4.8-4.4,10.1-8.1,15.5-11.7,1.6-1.1,3.5-1.6,4.9.3,1.6,2.2.3,3.7-1.5,5-2,1.5-4,3-6.2,4.7Z"/><path d="M283.2,533.5c.4-2.3.7-4.3,1.4-6.2.6-1.6,1.9-2.9,3.8-2.5,2.1.5,2.8,2.1,2.6,4.2-.2,1.5-.8,2.9-.1,4.4,4.7,1.2,8,8.6,5.6,12.8-1.6,2.7-3.6,1.9-5.2,0-2-2.6-2-5.8-1.7-9.2-3.7,1.8-5.6.5-6.4-3.4Z"/><path d="M559.4,135.6c-.2-3.5,2.1-4.4,4.5-4.4,6.1,0,12.2.2,18,2.8,1.9.9,3.7,1.9,3,4.4-.8,2.5-2.8,2.6-4.8,1.8-5.2-1.8-10.6-2.5-16.1-2.3-1.7,0-3.3-.3-4.5-2.2Z"/><path d="M470.9,392.6c-3.3,1.4-6.9,3.6-9.5,1.2-3-2.8-1.1-6.9.2-10.3,1.4-3.4,3.4-5.6,7-2,.1.1.2.3.4.3q6.7,3.4,1.9,10.8Z"/><path d="M193.1,163.6c-2.5.5-4.6.9-6.8,1.2-1.6.2-3-.4-3.5-2.1-.4-1.5.4-2.8,1.6-3.3,6.8-3,13.9-4.3,21.2-3.6,1.6.2,2.7,1.4,2.5,3.2-.2,2-1.6,2.7-3.4,2.9-3.8.5-7.5,1.1-11.7,1.7Z"/><path d="M325.4,143.8c-3.3-.6-7.9.8-7.7-3.8.2-4.6,4.8-3.6,7.9-3.4,3.9.3,7.9,1,11.7,1.7,2.2.4,4.4,1.4,3.7,4.2-.6,2.4-2.8,2.4-4.9,2.2-3.4-.3-6.9-.6-10.8-1Z"/><path d="M402,349.9c.5-2.2-1.9-2.2-2.8-3.6-.8-1.4-1.4-2.7-.4-4.2,1-1.4,2.4-1.9,3.9-1.4,3.1,1.1,5.5,3.3,7.3,5.8,1.1,1.5,1.2,4-.8,4.8-3.4,1.4-3,9.9-9.7,5.2-1.8-1.3-4.1-2.2-3.2-4.9.9-2.7,3.2-2.5,5.7-1.8Z"/><path d="M492.1,580.8c-3.3-2.5-2.3-4.9-.4-7.1,2.4-2.7,5.1-5.2,7.8-7.6,1.9-1.7,3.5-.9,4.3,1.2.9,2.5,1.2,5.3-1,7.4-1.1,1.1-2.1,2-2.7,3.5-2.2,5.7-2.5,5.7-8,2.6Z"/><path d="M553.2,381.6c0-2.7-2.2-2.4-3.4-3.3-1.1-.9-1.8-1.9-1.4-3.4.3-1.2,1.3-1.9,2.5-2.2,4.4-1.3,12,3.7,12.5,8.2.2,2.3,1.7,5.5-2,6.1-3.3.5-6.8.2-8.1-3.9,0-.3,0-.7,0-1.3Z"/><path d="M370.4,97.8c-1-1.3-1.8-2.3-2.5-3.4-4.4,2.5-8.5,1-10.5-3.4-.6-1.3-.7-2.6.3-3.7,1.1-1.3,2.7-1.6,4-.6,2,1.6,3.5,1.7,5.6,0,2-1.4,3.9,0,5,1.8,1.6,2.6,4.4,4.9,3,8.4-.8,2-2.7,2.2-4.8.7Z"/><path d="M487.8,451.1c-3.2-3.6-3.5-8.6-8.5-10.7-2.3-.9-.9-3.9,1.7-4.7,3.4-1.1,10.1,2.8,10.6,6.4.2,2.1.8,3.8,1.9,5.5,1.1,1.8,1.8,3.9-.3,5.4-2.2,1.6-3.7,0-5.3-1.8Z"/><path d="M673.8,347.2c2.2,2.8,4.2,5.4,6.4,8.3.4,3.1,4.7,6.4.1,8.4-4.2,1.9-4.6-2.9-6.3-5.3-2-2.8-4-5.7-6.1-8.4-1.2-1.6-2.8-3.3-1-5.2,2.1-2.3,3.9-.4,5.5,1,.4.3.8.6,1.4,1.2Z"/><path d="M332.3,366.7c-.7-.7-1.2-1.6-2-2.2-1.9-1.5-5-2.3-3.4-5.6,1.7-3.3,4.5-5.7,8.1-6.9.9-.3,1.9.4,2.6,1.2.3.4.5.8.7,1.3q4.3,8.6-5.7,12c-.3,0-.3.1-.3.1Z"/><path d="M677.1,209.2c-3.4-3-1.9-4.8,1.2-5.3,6-.8,12-.1,17.9,1,1.7.3,3,1.7,2.9,3.6-.2,2.1-1.9,2.6-3.7,2.5-6-.5-11.9-1.1-18.3-1.8Z"/><path d="M242,494.7c-2.3,5.5-4.7,10.6-7,15.7-.8,1.6-1.9,2.9-3.9,2.3-2.2-.6-2.6-2.5-2.1-4.4,1.4-5.5,4.1-10.5,7.5-15,1.9-2.6,4.3-2.4,5.6,1.4Z"/><path d="M146.8,493.5c1.2-3.2,2.1-6,3.3-8.7.7-1.6,2.2-2.6,4.1-1.8,1.8.8,2.3,2.4,1.7,4.2-1.5,4.9-2.9,9.8-4.5,14.7-.6,1.9-1.7,3.4-4,2.8-2.2-.6-2.5-2.5-2.1-4.4.3-2.1.9-4.2,1.5-6.7Z"/><path d="M682.1,198.5c-.9,2.8-3,3.3-5.2,3.4-4.4.3-8.9.6-13.3.8-2,.1-3.7-.6-4.1-2.7-.3-2,1.1-3.1,2.8-3.5,5.8-1.5,11.8-1.2,17.7-.8,1.2,0,1.9,1.2,2.2,2.8Z"/><path d="M719.4,238.8c4.4,2.7,8.6,5.6,12.1,9.4,1.6,1.7,3.2,4,.7,6-2.1,1.8-4,0-5.5-1.6-2.7-3-6-5.1-9.3-7.4-1.4-1-2.9-2-2.6-3.9.3-2.1,2-2.4,4.1-2.7.4,0,.5,0,.5,0Z"/><path d="M543.9,310.3c-1,1.8-2.3,2.4-3.8,2.5-3.9.1-7.4,1.5-10.9,3.1-1.6.8-3.3.9-4.4-.9-1.1-1.7-.5-3.4,1-4.3,4.2-2.7,8.4-5.4,13.7-5.2,2.9.1,4.9,1.1,4.5,4.8Z"/><path d="M326.4,447.7c6.4-3.6,12.2-.8,18.1.7,1.3.3,2.1,1.7,1.8,3.2-.3,1.5-1.4,2.2-2.9,2.3-5.2.5-10.3-.8-15.4-1.4-2.2-.2-3.2-2.3-1.6-4.9Z"/><path d="M559.8,355c2.6,3,5,5.7,7.3,8.5,1.2,1.5,1.8,3.3,0,4.9-1.5,1.3-3,.9-4.5,0-4.5-2.8-6.7-7.6-9.9-11.5-.9-1.1-.4-2.7.8-3.5,2.5-1.7,4.3-.1,6.4,1.7Z"/><path d="M233.1,481.7c1.8-2.2,3.5-4.8,6.3-2.7,2.8,2.2.5,4.3-.8,6.5-1.7,2.8-3.3,5.8-4.9,8.7-1,1.9-2,4.4-4.7,3.1-2.4-1.1-1.9-3.5-1.3-5.7,1-3.6,3.3-6.5,5.5-9.9Z"/><path d="M513.6,314.2c-2.2,1.7-4.2,4.2-6.5,1.3-1.9-2.4.2-4.3,1.7-6,2.6-2.9,5.8-4.8,9.4-6.3,1.9-.8,4-1.2,5.2,1,1.3,2.3-.3,3.6-2.1,4.7-2.5,1.6-4.9,3.3-7.7,5.2Z"/><path d="M260.2,101.7c1.3,1.8,5.4,2,3.4,5.5-1.6,2.8-4.3,1.9-6.7,1.2-3.3-1-6.8-1.7-9.8-3.7-1.3-.9-2.3-2-1.8-3.7.6-2,2.3-2.4,4-2,3.4.8,6.7,1.8,10.5,2.7.4,0,.3,0,.3,0Z"/><path d="M425.3,211.6c1.4,1.7,1,3,.3,4.4-1.7,3.4-3.2,6.9-5,10.3-.8,1.6-2,2.8-4,1.9-1.7-.8-2.7-2.5-2-4.1,1.5-4,3.2-8,5.3-11.8,1-1.9,3.1-2.4,5.5-.7Z"/><path d="M320.2,144.7c1.7.2,3.1.2,4.4.5,1.7.4,2.5,1.6,2.5,3.3,0,1.6-1.2,2.5-2.6,2.6-4.4.5-8.9.9-13.4,1.1-1.6,0-2.8-1.1-2.8-2.9,0-1.9,1.3-3.2,3-3.5,2.8-.6,5.6-.7,8.8-1.1Z"/><path d="M275.3,443.8c-1.2.6-2.1,1.1-3,1.5-1.5.7-3,.5-3.9-1-.9-1.5-1.1-3.2.6-4.4,3.5-2.5,7.1-4.8,11.5-5.3,1.9-.2,3.8,0,4.5,2.2.8,2.5-1,3.6-2.9,4.5-2.1.9-4.3,1.6-6.8,2.6Z"/><path d="M708.3,217.5c1.5.8,2.7,1.3,3.7,2.2,1,.9,1.7,2.1.9,3.5-.7,1.3-2,1.9-3.3,1.5-4.4-1.3-8.8-2.6-13.2-4.1-1.6-.5-2.4-1.9-1.9-3.5.6-1.9,2.3-2.6,3.9-2.3,3.2.7,6.3,1.7,9.9,2.7Z"/><path d="M279.3,515.7c-1.8,1.3-3.6,3.7-6,1.4-2.1-2-.8-4.4.4-6.3,1.6-2.7,3.3-5.3,5.3-7.8,1.3-1.6,3.3-2.4,5.2-.8,1.7,1.5,1.1,3.2,0,4.9-1.7,2.6-3.3,5.3-5,8.3,0,.3,0,.3,0,.3Z"/><path d="M260.3,101.7c-1.6-.8-3.3-1.5-4.8-2.4-1.5-1-2.3-2.5-1.5-4.3.8-1.8,2.4-2.2,4.2-1.7,3.5,1,7,2,10.5,3.1,2,.6,3.8,1.8,3.2,4.2-.6,2.5-2.8,2.5-4.9,2.2-2-.3-3.9-.7-6.3-1.1-.4,0-.4,0-.4,0Z"/><path d="M235.1,533.6c1.5-3.2,2.7-6.1,4.2-8.9.9-1.7,2.2-3.1,4.4-2,2.3,1.1,2.3,2.9,1.3,5-1.2,2.7-2.4,5.4-3.5,8.2-.8,2.1-1.3,5.1-4.4,4.2-3.1-.9-2.8-3.6-2-6.6Z"/><path d="M330.9,258.4c-3.1-2.8-5.8-5.4-8.5-8.1-1.5-1.4-3-3.1-1.1-5,1.6-1.6,3.6-1.4,5.4-.1,3.1,2.2,6.2,4.6,7.9,8.1,1.6,3.2.9,5.5-3.7,5.2Z"/><path d="M468.9,457.4c-5.1,4-10.6,2.3-15.9,1.7-1.9-.2-2.7-2.4-1.4-3.9,3.1-3.9,7.6-2.7,11.6-2.6,2.7,0,5.9.3,5.7,4.8Z"/><path d="M719.2,238.7c-2.8-2.8-6-4.9-9.5-6.5-2-1-4.2-2.3-2.8-4.9,1.3-2.4,3.6-1.7,5.7-.8,3.7,1.7,7.1,3.7,9.9,6.7,2.8,3.1,2,4.8-2.8,5.7-.4,0-.5-.1-.5-.2Z"/><path d="M333.2,220.7c.3,1.8,1,3.8-.9,5-2,1.3-3.7,0-5.4-1.2-2.6-1.8-5.2-3.5-7.7-5.4-1.7-1.3-2.9-3-1.5-5.1,1.4-2.1,3.4-1.7,5.2-.4,3.3,2.2,6.4,4.6,9.9,7.1.3.2.3.2.3.1Z"/><path d="M323.1,324.7c-.3,2.4-1,4-3.3,4-2.3,0-2.9-1.7-3.6-3.4-1.1-2.7-2.4-5.4-3.6-8.1-.7-1.6-.8-3.3.8-4.5,1.8-1.3,3.5-.6,4.8.9,2.7,3.1,4,6.8,4.9,11Z"/><path d="M447,454.4c-2.3,1-4.2,1.6-5.4-.9-1.1-2.3.3-3.8,2.1-4.9,3.2-1.8,6.4-3.5,10.1-3.7,1.9-.1,3.7.6,4.2,2.7.6,2.3-1,3.3-2.8,3.9-2.6,1-5.3,1.8-8.3,2.9Z"/><path d="M326.7,471.5c-3.6.8-6.9,1.4-10.1,2-1.9.4-3.8.4-4.4-1.9-.5-2.1.5-3.5,2.3-4.4,3.7-1.8,7.7-2.2,11.6-1.8,3.4.3,3.6,2.8.5,6.1Z"/><path d="M232.5,519.3c1-3.4,2.7-6.1,4.7-8.5,1.2-1.4,2.9-2.5,4.8-1,1.6,1.2,1.2,2.9.4,4.5-1.2,2.4-2.3,4.7-3.5,7.1-1,2-1.4,5-4.5,4.2-3-.8-2.3-3.5-1.9-6.2Z"/><path d="M242.1,318.4c-2.8.8-5.6,2-6.6-1.5-.9-3.2,2-4.3,4.3-5.1,2.8-1,5.7-1.6,8.7-1.5,1.9.1,3.3.9,3.5,2.8.2,1.9-1.1,3.1-2.8,3.6-2.2.6-4.5,1-7.1,1.7Z"/><path d="M538.3,189.7c3.4-.6,6.8-1.6,10.2-1.8,2.4-.2,5.5.5,5.7,3.6.1,3.6-3,3.2-5.5,3.3-2.1.1-4.3.5-6.4.7-4,.4-5.1-1-4.1-5.5.2-.3.1-.3.1-.3Z"/><path d="M178,561.1c-.5-2.5-1.1-5.1,1.6-5.9,3.1-1,3.8,1.9,4.6,4,.9,2.3,1.6,4.7,2,7.1.5,2.5-.4,4.8-3.2,5.3-2.5.4-3.2-1.9-3.7-3.8-.5-2.1-.8-4.2-1.3-6.7Z"/><path d="M331.6,337.9c-1.9,1.1-3.4.8-4.1-.8-1.6-3.8-2.1-7.9-2.6-12-.1-1.3,1-2.4,2.5-2.7,1.5-.3,2.7.5,3.3,1.7,2.2,4.3,4.3,8.7.9,13.7Z"/><path d="M467,467.5c-1.5-.2-2.7-.3-3.9-.3-2.2,0-4.2-.5-4.2-3.1,0-2.5,2-3.4,4.1-3.5,2.5-.1,5-.1,7.5.2,2.3.3,4.3,1.4,4.1,4.1-.2,3-2.5,3.1-4.8,3-.8,0-1.7-.2-2.9-.4Z"/><path d="M279.3,515.7c1.6-1.3,3-3.6,5.5-2,2.7,1.7,1.4,4.1.5,6.2-.8,2.2-1.8,4.3-2.6,6.5-.7,1.7-1.7,3-3.7,2.5-1.9-.5-2.7-2.3-2.4-3.9.6-2.9,1.6-5.7,2.5-8.9,0-.4,0-.3,0-.3Z"/><path d="M255.2,301.5c3,.1,6,.2,6,3.5,0,3.7-3.2,3.6-5.9,3.8-2.3.1-4.7.2-7,0-1.7,0-2.8-1.1-3-2.8-.2-1.5.8-2.5,2.1-3.1,2.3-1,4.8-1.4,7.7-1.5Z"/><path d="M268.7,458.2c-4.9-1.1-5.7-3.1-2.6-6,2.2-2,4.7-3.7,7.2-5.3,1.5-1,3.2-1.1,4.5.5,1.4,1.8.9,3.6-.7,4.8-2.6,2.1-5.3,3.9-8.4,6Z"/><path d="M257.3,221.9c-1,4-8.9,8.9-12.3,8.1-1.9-.5-2.8-1.7-2.4-3.7.9-3.8,11.2-7.2,14.6-4.4Z"/><path d="M107.8,530.6c2.7-2.9,4.4-1.6,5.4.9,1.1,2.9,1.9,6,2.7,9,.6,2,0,3.7-2.1,4.4-1.9.7-3.2-.6-3.9-2.2-1.6-3.8-3.1-7.6-2.2-12.2Z"/><path d="M173.1,447.4c-1.6,2.7-2.2,7.3-5.9,5.8-4.2-1.7-1.4-5.3-.3-8.1.6-1.5,1.1-3.2,1.8-4.6.9-1.7,2-3.3,4.3-2.3,2,.9,2.4,2.7,1.8,4.7-.4,1.4-1,2.8-1.7,4.5Z"/><path d="M582.7,532.3c3.8.3,9.8,5.7,10.3,8.8.4,2.3-.5,4-3.1,3.9-3.9,0-9.2-8.9-7.2-12.8Z"/><path d="M234.6,275c-1.4,1.2-2.5,2.2-3.8,2.9-1.2.7-2.6.4-3.6-.7-1.2-1.3-1-2.8,0-4.1,1.9-2.3,3.9-4.5,6-6.5,1.5-1.4,3.5-2.3,5.3-.4,1.6,1.6.8,3.4-.4,4.9-1,1.3-2.2,2.4-3.6,3.9Z"/><path d="M287.9,304.6c3.3,1.1,5,3.8,7.1,5.8,1.7,1.6,2.1,3.9.1,5.7-2,1.8-3.6.6-5.1-1-1.5-1.5-3.2-2.9-4.7-4.5-3.1-3.3-2.5-5,2.5-6.1Z"/><path d="M470.2,429.6c-2.1-4.1-.4-5.7,3.3-5.3,2.8.3,5.4,1.3,7.7,3.1,1.5,1.2,2.5,2.8,1.6,4.7-1,2-2.9,2-4.7,1.3-2.6-1.1-5.1-2.4-7.9-3.8Z"/><path d="M314.6,484.3c-2.1,1.6-4.2,2.8-5.8.3-1.6-2.4-.2-4.5,1.9-5.9,2.2-1.4,4.5-2.7,7-3.7,1.7-.7,3.2.1,4.1,1.8.8,1.7,0,2.9-1.4,3.7-1.8,1.2-3.6,2.3-5.7,3.6Z"/><path d="M169.1,548.7c4.4-1.2,4.9,2.3,5.9,4.7,1.3,2.9,2.5,6,.8,9.1-1,1.7-2.5,1.4-3.8.3-2.3-1.9-4.3-10.7-2.9-14Z"/><path d="M258.3,116.1c-3.6,1.9-11.7,0-13.7-2.9-1.1-1.6-1-3.2.8-4.2,3.3-2,12.6,2.9,12.9,7.1Z"/><path d="M101.7,517.5c2.5-.5,3.5.9,3.6,2.7.2,3.5.1,6.9,0,10.4,0,1.4-.7,2.6-2.2,2.9-1.8.4-2.9-.7-3.3-2.3-1.2-4.7-2-9.4,1.9-13.7Z"/><path d="M230.5,303.8c-.6,1.2-1.1,2.1-1.6,2.9-1.1,2.1-2.3,4.6-5.2,3-2.6-1.4-1.7-4-.8-6.2.8-1.8,1.9-3.4,3.1-5,1.1-1.5,2.5-2.9,4.6-1.9,2.2,1.2,2.1,3.1,1,5.1-.3.6-.7,1.1-1.2,2Z"/><path d="M474.2,422c-3.5,1.2-6.6,0-9.6-.5-2.3-.4-3.2-2.7-2-4.7,2.2-3.3,5.7-1.6,8.7-1.4,2.4.1,4,1.4,4.4,3.9.2,1.1-.5,1.9-1.6,2.7Z"/><path d="M327.6,463.2c-2.5-.2-3.9-1.2-3.7-3.5.2-2.2,2-3,3.9-3.1,2.5-.2,5-.3,7.5,0,2,.1,3.6,1.3,3.6,3.4,0,2.3-1.8,2.9-3.8,3-2.3,0-4.6.2-7.4.3Z"/><path d="M274.7,316.4c-1.5-.9-2.7-1.5-3.7-2.3-1.1-.9-1.6-2.2-1.1-3.6.6-1.6,2.1-2.2,3.6-1.9,1.6.3,3.2.8,4.7,1.6,2.6,1.4,6,3.2,4.1,6.8-2.1,3.8-4.9.5-7.6-.5Z"/><path d="M538.2,425.6c4.2-1.9,9.6-.6,11.8,2.4,1.3,1.8,1.2,3.5-.7,4.6-3.3,1.9-11.1-2.9-11.1-7Z"/><path d="M304.4,318.6c-1.5-1.8-2.8-3.3-3.9-4.9-1.1-1.5-1.5-3,.1-4.4,1.6-1.3,3.5-1.4,4.9.1,1.6,1.6,3.1,3.5,4.3,5.4,1,1.6,1.4,3.5-.2,5-1.9,1.7-3.6.9-5.3-1.2Z"/><path d="M260.4,322.8c-1.4-4.1,1.1-5.3,3.9-5.2,3.3.2,7.3,0,8.5,4.2.6,2-1.2,3.5-3.3,3.3-3-.3-6.3,0-9.2-2.4Z"/><path d="M58.4,463.2c.4-1.4.6-2.3.9-3.3.7-1.8,1.8-3.4,4.1-2.7,2.1.6,2.6,2.4,2.3,4.4-.3,1.8-.8,3.6-1.1,5.3-.4,2-.9,4.2-3.5,4-2.7-.2-2.8-2.4-2.9-4.4,0-1,.1-2,.3-3.4Z"/><path d="M549.9,329.4c-2.4-2.3-2-4.1.4-5.4,3.2-1.8,6.7-1.9,10.1-.7,1.5.5,2.6,1.6,2.4,3.3-.2,1.9-1.6,2.3-3.2,2.4-3.1.2-6.2.4-9.7.3Z"/><path d="M232.4,326.3c.9-4.3,7.3-7.7,10.7-5.9,1.8,1,2.7,2.5,1.4,4.5-1.8,2.8-8.9,3.8-12,1.4Z"/><path d="M217.9,392.3c-1.7,1.7-3.2,3.3-5.3,1.6-2-1.6-1.1-3.6,0-5.3,1.1-1.7,2.1-3.4,3.3-4.9,1-1.3,2.3-2,3.9-1.1,1.7,1,2,2.7,1.3,4.3-.8,1.8-1.9,3.4-3.2,5.5Z"/><path d="M166.4,550.1c.2,2.7.4,5,.3,7.3,0,1.6-.8,2.9-2.6,3.1-1.5.1-2.4-.9-3-2.1-1.1-2.3-1-4.8-1-7.3,0-2.1.2-4.2,2.7-4.6,2.2-.4,3.1,1.4,3.6,3.7Z"/><path d="M484.8,372.6c-3.3-.8-7.3-7.5-6.5-10.2.4-1.2,1.2-2,2.4-2.1,2.2-.3,4.1.6,4.9,2.6,1.3,3.2,2.3,6.6-.8,9.8Z"/><path d="M123.7,538.4c1,2.2,1.9,4,2.6,5.8.6,1.5.3,3-1.2,4-1.7,1.1-3.3.4-4.4-1.1-1.4-1.9-2.4-4-2.9-6.3-.5-2-.1-3.8,1.8-4.7,2-1,3,.5,4.1,2.3Z"/><path d="M260.2,380.7c-1.7-2.3-1.3-4.3.9-5.2,2.8-1.1,5.5-3.9,8.7-2.3,2.5,1.3,2.1,3.8.2,5.3-2.7,2.1-5.7,4-9.8,2.1Z"/><path d="M273.4,384.8c-3.8-1.4-3.8-3.5-1.4-5.6,1.6-1.4,3.5-2.5,5.5-3.4,1.5-.8,3.4-.9,4.5.8,1.1,1.8.5,3.6-1.1,4.8-2.1,1.6-4.3,3.2-7.5,3.4Z"/><path d="M542.9,322.1c-2.6.6-4.4,0-4.9-2.4-.5-2.4,1.2-3.6,3.2-4.3,1.1-.4,2.2-.6,3.4-.7,2.3-.2,4.5.3,5,2.9.6,3-1.8,3.5-3.9,4-.8.2-1.6.3-2.8.4Z"/><path d="M63.8,472.5c1-2.2,1.8-4.3,4.4-3.6,2.5.7,2.5,2.9,2.2,4.9-.4,2.8,1.3,7.6-3.4,7.1-3.9-.4-4.1-4.5-3.1-8.4Z"/><path d="M228,283.5c1.7-2.1,3.4-3.7,5.6-1.7,1.8,1.6,1.2,3.8-.2,5.4-1.8,2.1-2.8,7.1-6.7,4.6-3.8-2.3-.6-5.4,1.3-8.3Z"/><path d="M536.8,584c3.3,1.6,4.3,4.5,5.4,7.2.6,1.5.2,3-1.3,3.9-1.6,1-2.9.2-4-.9-1.7-1.9-3-4.1-3.6-6.5-.6-2.3.3-3.9,3.4-3.8Z"/><path d="M252.9,339.4c1.5-.8,2.6-1.7,3.8-2.1,1.9-.7,3.4,0,4,1.9,1.2,3.7-2.2,4.4-4.2,5.8-1.7,1.3-4,2.5-5.7,0-1.6-2.3-.2-4,2.1-5.6Z"/><path d="M48.6,446.9c-1.4,1.7-2.8,2.4-4.5,1.1-1.6-1.1-1.7-2.8-1.1-4.4,1-2.6,1.9-5.4,4.8-6.5,1-.4,2.1-.2,2.6.8,2.1,3.4-.7,5.9-1.8,9.1Z"/><path d="M55.3,452.6c-.1.7-.2,1.1-.3,1.4-.7,2.2-.4,5.4-3.9,5.5-2,0-2.9-1.5-3.1-3.3-.2-3.1.3-6.4,3.3-7.7,3.1-1.4,4.1.9,3.9,4.1Z"/><path d="M267.2,212.8c-.6.3-.9.4-1.3.5-2.4.5-4.9,1.9-6.8-.7-.9-1.3-.4-2.6.6-3.6,2.3-2.3,5.3-3.7,8.1-2.3,3.3,1.6,2.7,4.1-.6,6.1Z"/><path d="M582.9,520.9c2.3,2.4,6.4,4.3,3.5,7.7-2.9,3.3-5.1-.8-7.3-2.4-1.6-1.1-2.7-2.6-1.6-4.6,1.2-2.2,3.1-2.1,5.4-.7Z"/><path d="M173.1,352.7c4-.9,4.8,1.4,4.1,4.2-.7,3.1-1.9,6.4-5.7,6.6-2.2,0-2.8-2.1-2.3-4.1.6-2.4,1.9-4.6,3.9-6.7Z"/><path d="M257,374.1c-2.6.1-5.1.3-5.1-2.7,0-3.2,3.1-3.4,5.4-4.1,2.2-.6,4.7-.5,5.3,2.1.8,4-2.3,4.4-5.6,4.8Z"/><path d="M264.4,333.2c-2.1.7-3.8,1.3-5.6,1.6-1.8.3-3.4-.3-3.9-2.3-.5-2,.7-3.2,2.3-3.9,2.5-1,5.2-1.8,7.6.2,1.5,1.3,1.6,2.8-.4,4.4Z"/><path d="M354.7,561c-3-2-4.2-4.6-4.1-7.8,0-1.3.5-2.7,2-3.2,1.6-.5,2.5.6,3.3,1.7,3.4,4.6,3.1,7.7-1.2,9.2Z"/><path d="M538.4,598.3c1,1.5,1.9,2.8,2.3,4.1.5,1.6-.2,3.2-1.8,3.5-3.5.7-4.5-2.7-6.4-4.6-1.2-1.1-1.4-2.7,0-3.9,2-1.8,3.9-.9,6,.9Z"/><path d="M558.5,337.7c-2-1.6-2.3-3.2-.6-4.8,1.9-1.8,4-1.1,6-.3,1.7.7,3.3,1.8,3.2,3.9-.2,2.1-1.8,2.8-3.5,2.6-1.6-.1-3.1-.8-5-1.5Z"/><path d="M399.9,363.7c-2.4-.6-4.5-1-6.5-1.9-1.6-.7-2.8-2.2-1.4-4,2.6-3.1,5.1-.7,7.5.6,2.3,1.3,3.9,3,.4,5.3Z"/><path d="M672.8,510.3c.6,2.5-.1,4.1-2.4,4.3-2.2.2-3.7-1.3-4.7-3.1-.9-1.7-1.4-3.9.3-5,3.9-2.6,5,1.2,6.8,3.8Z"/><path d="M541.3,547.4c-.8-.8-1.5-1.4-1.9-2-1.2-1.7-2.1-3.5-.4-5.3,1.2-1.3,2.7-1.2,4-.2,1.9,1.6,3.7,3.5,3,6.2-.6,2.1-2.4,2.6-4.6,1.3Z"/><path d="M319.9,261.3c.2-.6.5-.8,1-1.3,2.6-.7,4.8-.5,6.6,1.3,1.4,1.4,2.2,3,.8,4.8-1.4,1.8-3,1.5-4.8.5-2-1.1-3.3-2.7-3.6-5.4Z"/><path d="M395.7,128.3c.8,2.8-.3,4.4-2.7,4.5-2.6,0-3.6-2-4.1-4.2-.4-1.9,0-3.9,2.1-4.5,3.2-.9,3.7,1.8,4.8,4.3Z"/><path d="M540.6,549.9c-1.7,4-3.8,4.6-5.8,2-1.3-1.8-1.6-4,.3-5.2,2.9-1.8,4.4.5,5.4,3.3Z"/><path d="M332.2,366.7c0,4.6-1.8,6.4-4.7,4.6-1.8-1.1-3.3-3-2.2-4.9,1.9-3.4,4.2-.5,6.6.3.3.1.3.1.3,0Z"/><path d="M364.2,609.6c0-1.8.2-3.3.3-4.7-5.4-1.5-6.1-2.7-4.7-8.2.5-1.9,1.2-3.8,1.9-5.6.8-1.8,1.7-4,4.3-3,2.3.9,2.3,3,1.8,5.1-.2.8-.3,1.6-.5,2.9,5.3.4,5.7,3.5,4.5,7.7-.5,1.7-.5,3.6-.8,5.4-.3,1.9-.7,3.7-3,4-2.3.3-3.2-1.3-3.7-3.6Z"/><path d="M429.3,625.8c-1.1,2.2-1,4.8-3.9,4.9-1.3,0-2.3-.6-2.7-1.8-1.1-3.1-.5-6.3,1.5-8.4,4.1-4.3,7.9-8.7,10.8-13.9.8-1.4,2-2.3,3.7-1.7,1.7.6,2.2,2,2,3.6-.4,3.4-.2,7.1-4.3,8.7-1.2.5-1.7,1.6-1.9,2.8-.3,3.1-2.5,4.4-5.3,5.8Z"/><path d="M372.2,608.1c.7-2.4,1.6-4.4,4.1-3.7,2,.6,2.5,2.5,2.3,4.5-.4,4.4,4.2,5.3,5.8,8.5,1.6,3.2,4.6,6.2,1.6,9.2-3.2,3.3-6.3-1-7.8-2.7-3.6-4.3-8.7-8.4-6.2-15.8Z"/><path d="M417.8,529.1c2.3,1.7,4.2,3.3,6.3,4.6,5.5,3.4,5.9,7,1.4,11.7-5.6,5.9-13.2,7.4-20.6,9.3-11.4,2.9-22.2.4-32.7-3.9-5.4-2.2-5.8-7.5-.6-10.7,4.8-3,8.1-6.8,10.1-11.9,4.2-10.9-3.1-21.5-14.9-21.1-2.8,0-5.6.9-8.4,1.3-3.7.5-7.2-.3-9.3-3.5-2.2-3.3-1.3-6.7.8-9.8,6.2-9.1,15.2-14.2,25.5-16.2,16.1-3.2,32.4-3.7,48.7-.4,5.6,1.1,10.9,3.1,15.8,6.1,7.4,4.5,7.3,11.8,0,16.1-2.8,1.6-5.7,2.8-8.8,3.6-5.7,1.4-10.3,4.6-13.7,9.4-4.4,6.3-4.5,8.8.3,15.5Z"/></svg>